<svg width="51" height="51" viewBox="0 0 51 51" fill="none" xmlns="http://www.w3.org/2000/svg">
<path d="M48.6094 12.75H46.2188V7.96875C46.2188 3.50625 37.0437 0 25.5 0C13.9563 0 4.78125 3.50625 4.78125 7.96875V12.75H2.39062C1.0708 12.75 0 13.8198 0 15.1406V23.1094C0 24.4292 1.0708 25.5 2.39062 25.5H4.07502C2.549 27.1944 1.59375 29.4146 1.59375 31.875V38.25C1.59375 41.2333 3.65068 43.7166 6.41783 44.4128C6.41285 44.4865 6.375 44.5493 6.375 44.625V47.8125C6.375 49.5726 7.8024 51 9.5625 51H12.75C14.5101 51 15.9375 49.5726 15.9375 47.8125V44.625H35.0625V47.8125C35.0625 49.5726 36.4899 51 38.25 51H41.4375C43.1976 51 44.625 49.5726 44.625 47.8125V44.625C44.625 44.5493 44.5871 44.4865 44.5822 44.4128C47.3493 43.7166 49.4062 41.2333 49.4062 38.25V31.875C49.4062 29.4146 48.451 27.1944 46.925 25.5H48.6094C49.9292 25.5 51 24.4292 51 23.1094V15.1406C51 13.8198 49.9292 12.75 48.6094 12.75ZM9.5625 8.40703C10.7817 7.08023 16.4346 4.78125 25.5 4.78125C34.5654 4.78125 40.2183 7.08023 41.4375 8.40703V11.1562H33.4688C33.4688 9.39615 32.0413 7.96875 30.2812 7.96875H20.7188C18.9587 7.96875 17.5312 9.39615 17.5312 11.1562H9.5625V8.40703ZM41.4375 15.9375V22.3125H27.0938V15.9375H41.4375ZM9.5625 15.9375H23.9062V22.3125H9.5625V15.9375ZM44.625 38.25C44.625 39.1286 43.9098 39.8438 43.0312 39.8438H7.96875C7.0902 39.8438 6.375 39.1286 6.375 38.25V31.875C6.375 29.2383 8.51959 27.0938 11.1562 27.0938H39.8438C42.4804 27.0938 44.625 29.2383 44.625 31.875V38.25ZM36.6562 30.2812C34.8962 30.2812 33.4688 31.7087 33.4688 33.4688C33.4688 35.2288 34.8962 36.6562 36.6562 36.6562C38.4163 36.6562 39.8438 35.2288 39.8438 33.4688C39.8438 31.7087 38.4163 30.2812 36.6562 30.2812ZM14.3438 30.2812C12.5837 30.2812 11.1562 31.7087 11.1562 33.4688C11.1562 35.2288 12.5837 36.6562 14.3438 36.6562C16.1038 36.6562 17.5312 35.2288 17.5312 33.4688C17.5312 31.7087 16.1038 30.2812 14.3438 30.2812Z" fill="black"/>
</svg>
