<svg width="51" height="51" viewBox="0 0 51 51" fill="none" xmlns="http://www.w3.org/2000/svg">
<path d="M25.5 2C15.8297 2 8 9.72782 8 19.25C8 25.6394 10.1867 27.6361 21.7877 45.9717C23.4999 48.6777 27.502 48.6745 29.2122 45.9717C40.8193 27.6265 43 25.6382 43 19.25C43 9.71785 35.1602 2 25.5 2ZM25.5 43.6875C13.8858 25.3312 12.375 24.1724 12.375 19.25C12.375 12.1048 18.2513 6.3125 25.5 6.3125C32.7487 6.3125 38.625 12.1048 38.625 19.25C38.625 24.1513 37.2427 25.128 25.5 43.6875ZM18.2083 19.25C18.2083 15.2804 21.4729 12.0625 25.5 12.0625C29.5271 12.0625 32.7917 15.2804 32.7917 19.25C32.7917 23.2196 29.5271 26.4375 25.5 26.4375C21.4729 26.4375 18.2083 23.2196 18.2083 19.25Z" fill="black"/>
</svg>
