<svg width="51" height="51" viewBox="0 0 51 51" fill="none" xmlns="http://www.w3.org/2000/svg">
<path fill-rule="evenodd" clip-rule="evenodd" d="M25.1065 35.8762C22.3606 35.8762 20.1371 38.1381 20.1371 40.9252C20.1371 43.7149 22.3632 45.9742 25.1065 45.9742C27.8498 45.9742 30.0759 43.7124 30.0759 40.9252C30.0759 38.1355 27.8498 35.8762 25.1065 35.8762V35.8762ZM14.5618 30.2128L18.0759 33.7828C21.9576 29.8405 28.253 29.8405 32.1348 33.7828L35.6489 30.2128C29.8275 24.2968 20.3856 24.2968 14.5618 30.2128V30.2128ZM7.53357 23.0726L11.0477 26.6426C18.8111 18.7555 31.3995 18.7555 39.163 26.6426L42.6796 23.0726C32.974 13.2118 17.2366 13.2118 7.53357 23.0726V23.0726ZM0.505371 15.9302L4.01946 19.5002C15.6647 7.66817 34.5485 7.66817 46.1937 19.5002L49.7078 15.9327C36.1204 2.12702 14.0927 2.12702 0.505371 15.9302V15.9302Z" fill="black"/>
</svg>
