<svg width="24" height="20" viewBox="0 0 24 20" fill="none" xmlns="http://www.w3.org/2000/svg">
<path fill-rule="evenodd" clip-rule="evenodd" d="M12 0C6.47998 0 2 4.47998 2 10C2 15.52 6.47998 20 12 20C17.52 20 22 15.52 22 10C22 4.47998 17.52 0 12 0ZM8.20001 9C8.20001 6.8999 9.90002 5.19995 12 5.19995C14.1 5.19995 15.8 6.8999 15.8 9C15.8 12 12 15.5 12 15.5C12 15.5 8.20001 12 8.20001 9ZM10.5 9C10.5 9.82996 11.17 10.5 12 10.5C12.83 10.5 13.5 9.82996 13.5 9C13.5 8.17004 12.83 7.5 12 7.5C11.17 7.5 10.5 8.17004 10.5 9ZM4 10C4 14.42 7.58002 18 12 18C16.42 18 20 14.42 20 10C20 5.57996 16.42 2 12 2C7.58002 2 4 5.57996 4 10Z" fill="#FF81A7"/>
</svg>
