<svg width="47" height="47" viewBox="0 0 47 47" fill="none" xmlns="http://www.w3.org/2000/svg">
<path d="M28.3181 40.7708H0V45H28.3181V40.7708Z" fill="black"/>
<path d="M29.7013 11.4782L5.91895 7.40686L5.21658 11.5764L28.9989 15.6478L29.7013 11.4782Z" fill="black"/>
<path d="M23.6132 15.9557L3.63672 9.50488L2.99682 11.5187L22.9733 17.9695L23.6132 15.9557Z" fill="black"/>
<path d="M12.3437 27.3497L5.3252 21.8082L2.80304 25.0545L9.82152 30.5961L12.3437 27.3497Z" fill="black"/>
<path d="M40.6596 2.84635L6.33008 25.2664L8.61108 28.8159L42.9406 6.39588L40.6596 2.84635Z" fill="black"/>
<path d="M41.9086 4.78464L7.55371 26.9975L9.81861 30.5575L44.1735 8.34462L41.9086 4.78464Z" fill="black"/>
<path d="M40.7431 2.77655L40.7431 2.77655C39.234 3.75771 38.7986 5.78459 39.7705 7.3037L39.7755 7.31144C40.7474 8.83056 42.7586 9.26666 44.2676 8.2855L44.2676 8.28549C45.7766 7.30433 46.212 5.27746 45.2401 3.75834L45.2352 3.7506C44.2633 2.23149 42.2521 1.79539 40.7431 2.77655Z" fill="black"/>
<path d="M5.91771 7.40953L5.14941 8.12927L5.86337 8.9038L6.63167 8.18405L5.91771 7.40953Z" fill="black"/>
<path d="M7.14429 12.8559L1.84863 11.2136L5.90735 7.41132L7.14429 12.8559Z" fill="black"/>
<path d="M24.3914 13.2564L15.2334 10.9504L14.4709 14.0279L23.6289 16.3338L24.3914 13.2564Z" fill="black"/>
<path d="M7.02802 28.3718L1.71875 24.2053L5.32986 21.8086L7.02802 28.3718Z" fill="black"/>
<path d="M10.4115 23.1077L5.3291 21.8051L4.81224 23.8545L9.89463 25.1571L10.4115 23.1077Z" fill="black"/>
</svg>
