<svg width="50" height="50" viewBox="0 0 50 50" fill="none" xmlns="http://www.w3.org/2000/svg">
<path d="M40.0238 20C38.4936 19.9963 37.0435 20.3369 35.7457 20.9478L29.1804 10.5812C29.0676 10.4031 28.9117 10.2565 28.7271 10.1549C28.5424 10.0533 28.3351 10 28.1244 10H22.812C22.2943 10 21.8745 10.4198 21.8745 10.9375V11.5625C21.8745 12.0802 22.2942 12.5 22.812 12.5H27.4365L30.603 17.5H19.9996V15.9375C19.9996 15.4198 19.5799 15 19.0621 15H12.4997C11.8094 15 11.2497 15.5596 11.2497 16.25C11.2497 16.9404 11.8093 17.5 12.4997 17.5H16.8747L14.3896 21.0132C13.0549 20.3599 11.5535 19.9948 9.96604 20.0001C4.44822 20.0183 -7.81242e-05 24.482 1.02907e-09 30C7.81262e-05 35.5228 4.47712 40 9.99979 40C14.6593 40 18.5744 36.813 19.6845 32.5H23.7494C23.9504 32.5 24.1484 32.4515 24.3267 32.3587C24.5049 32.2659 24.6582 32.1315 24.7734 31.9668L32.6441 20.7228L33.6345 22.2867C31.4169 24.1187 30.0027 26.8885 29.9992 29.9888C29.9932 35.4547 34.4401 39.9497 39.9056 39.9996C45.418 40.0499 49.9135 35.6369 49.9988 30.1562C50.0847 24.6482 45.5324 20.0133 40.0238 20V20ZM9.99979 37.5C5.86439 37.5 2.49993 34.1355 2.49993 30C2.49993 25.8644 5.86431 22.5 9.99979 22.5C11.0394 22.5 12.0302 22.7128 12.9311 23.0968L7.7258 30.5331C7.14611 31.3611 7.74088 32.5 8.74979 32.5H17.0706C16.0388 35.41 13.259 37.5 9.99979 37.5V37.5ZM17.4997 30H11.1506L15.0368 24.448C16.5489 25.8211 17.4997 27.8015 17.4997 30ZM23.0987 30H19.9996C19.9996 26.95 18.6337 24.2194 16.4808 22.3851L18.1504 20H30.0985L23.0987 30ZM39.7029 37.4943C35.7921 37.3429 32.6304 34.1601 32.5034 30.2484C32.4283 27.9383 33.4044 25.8497 34.9885 24.4245L39.1103 30.9328C39.3874 31.3702 39.9665 31.5002 40.4039 31.2232L40.9319 30.8887C41.3693 30.6117 41.4993 30.0325 41.2223 29.5951L37.0985 23.0837C37.9912 22.7079 38.9713 22.4999 39.9991 22.4999C44.1345 22.4999 47.499 25.8644 47.499 29.9999C47.499 34.2338 43.9727 37.6595 39.7029 37.4943V37.4943Z" fill="black"/>
</svg>
