<svg width="49" height="49" viewBox="0 0 49 49" fill="none" xmlns="http://www.w3.org/2000/svg">
<path d="M31.091 1.59783H3.99457V0.865489C3.99457 0.38947 3.6051 0 3.12908 0H2.46332C1.9873 0 1.59783 0.38947 1.59783 0.865489V1.59783H0.865489C0.38947 1.59783 0 1.9873 0 2.46332V3.12908C0 3.6051 0.38947 3.99457 0.865489 3.99457H1.59783V48.1345C1.59783 48.6105 1.9873 49 2.46332 49H3.12908C3.6051 49 3.99457 48.6105 3.99457 48.1345V3.99457H12.25V7.05707H9.4538C7.53891 7.05707 7.05707 7.53891 7.05707 9.4538V15.712C7.05707 17.6269 8.60413 18.1087 9.4538 18.1087H26.7636C28.6785 18.1087 29.1603 17.6269 29.1603 15.712V9.4538C29.1603 7.53891 28.6785 7.05707 26.7636 7.05707H23.9674V3.99457H31.091C31.5671 3.99457 31.9565 3.6051 31.9565 3.12908V2.46332C31.9565 1.9873 31.5671 1.59783 31.091 1.59783ZM26.7636 15.712H9.4538V9.4538H26.7636V15.712ZM21.5707 7.05707H14.6467V3.99457H21.5707V7.05707Z" fill="black"/>
<path d="M41.2774 41.2772C42.3435 41.2772 43.2081 40.4126 43.2081 39.3465C43.2081 38.2804 42.3435 37.4158 41.2774 37.4158C40.2113 37.4158 39.3467 38.2804 39.3467 39.3465C39.3467 40.4126 40.2113 41.2772 41.2774 41.2772ZM25.8317 41.2772C26.8978 41.2772 27.7624 40.4126 27.7624 39.3465C27.7624 38.2804 26.8978 37.4158 25.8317 37.4158C24.7656 37.4158 23.901 38.2804 23.901 39.3465C23.901 40.4126 24.7656 41.2772 25.8317 41.2772ZM47.5522 25.8315H47.0695V22.9355C47.0695 20.2325 41.0843 18.1087 33.5545 18.1087C26.0248 18.1087 20.0396 20.2325 20.0396 22.9355V25.8315H19.5569C18.7575 25.8315 18.1089 26.4795 18.1089 27.2796V32.1063C18.1089 32.9058 18.7575 33.5543 19.5569 33.5543H20.0396V43.2079C20.0396 44.274 20.9042 45.1386 21.9703 45.1386V47.0693C21.9703 48.1354 22.8349 49 23.901 49H26.7971C27.8632 49 28.7278 48.1354 28.7278 47.0693V45.1386H38.3813V47.0693C38.3813 48.1354 39.2459 49 40.312 49H43.2081C44.2742 49 45.1388 48.1354 45.1388 47.0693V45.1386C46.2049 45.1386 47.0695 44.274 47.0695 43.2079V33.5543H47.5522C48.3516 33.5543 49.0002 32.9058 49.0002 32.1063V27.2796C49.0002 26.4795 48.3516 25.8315 47.5522 25.8315ZM21.9685 25.8315H32.5892V33.5543H21.9697L21.9685 25.8315V25.8315ZM26.7971 47.0693H23.901V45.1386H26.7971V47.0693ZM43.2081 47.0693H40.312V45.1386H43.2081V47.0693ZM45.1388 43.2079H21.9703L21.9697 35.4851H45.1394L45.1388 43.2079ZM45.1394 33.5543H34.5199V25.8315H45.1406L45.1394 33.5543ZM45.1406 23.9008H37.416V23.4181C37.416 22.6181 36.7674 21.9701 35.9679 21.9701H31.1412C30.3417 21.9701 29.6931 22.6181 29.6931 23.4181V23.9008H21.9685V22.9542C22.17 22.1511 26.0375 20.0394 33.5545 20.0394C41.0716 20.0394 44.9391 22.1511 45.1406 22.9542V23.9008Z" fill="black"/>
</svg>
