<svg width="50" height="50" viewBox="0 0 50 50" fill="none" xmlns="http://www.w3.org/2000/svg">
<path d="M41.9184 38.8453C41.9184 39.4373 41.5191 39.8638 40.9462 39.8638C40.3559 39.8638 39.974 39.4112 39.974 38.8453C39.974 38.2795 40.3559 37.8268 40.9462 37.8268C41.5191 37.8268 41.9184 38.2795 41.9184 38.8453ZM14.9392 37.8268C14.3229 37.8268 13.967 38.2795 13.967 38.8453C13.967 39.4112 14.3229 39.8638 14.9392 39.8638C15.5035 39.8638 15.8854 39.4373 15.8854 38.8453C15.8767 38.2795 15.5035 37.8268 14.9392 37.8268ZM25.1389 37.8007C24.6701 37.8007 24.3837 38.1054 24.3142 38.558H25.9722C25.8941 38.0618 25.5903 37.8007 25.1389 37.8007ZM34.4965 37.8268C33.9062 37.8268 33.5503 38.2795 33.5503 38.8453C33.5503 39.4112 33.9062 39.8638 34.4965 39.8638C35.0868 39.8638 35.4687 39.4373 35.4687 38.8453C35.4687 38.2795 35.0868 37.8268 34.4965 37.8268ZM43.6892 40.0989C43.6892 40.125 43.7153 40.1424 43.7153 40.1946C43.7153 40.2208 43.6892 40.2382 43.6892 40.2904C43.6632 40.3165 43.6632 40.3339 43.6458 40.36C43.6198 40.3862 43.6024 40.4036 43.5503 40.4036C43.5243 40.4297 43.5069 40.4297 43.4549 40.4297C43.4288 40.4297 43.4115 40.4297 43.3594 40.4036C43.3333 40.4036 43.316 40.3775 43.2899 40.36C43.2639 40.3339 43.2465 40.3165 43.2465 40.2904C43.2205 40.2469 43.2205 40.2208 43.2205 40.1946C43.2205 40.1511 43.2205 40.125 43.2465 40.0989C43.2465 40.0554 43.2726 40.0292 43.2899 40.0031C43.316 39.977 43.3333 39.977 43.3594 39.9596C43.4028 39.9335 43.4288 39.9335 43.4549 39.9335C43.4983 39.9335 43.5243 39.9335 43.5503 39.9596C43.5937 39.9857 43.6198 39.9857 43.6458 40.0031C43.6719 40.0205 43.6632 40.0554 43.6892 40.0989ZM43.4983 40.2208C43.5417 40.2208 43.5417 40.1946 43.5677 40.1946C43.5937 40.1685 43.5937 40.1511 43.5937 40.125C43.5937 40.0989 43.5937 40.0815 43.5677 40.0554C43.5417 40.0554 43.5243 40.0292 43.4722 40.0292H43.3333V40.3339H43.4028V40.2121H43.4288L43.5243 40.3339H43.5937L43.4983 40.2208V40.2208ZM50 10.1786V40.8214C50 43.1283 48.1337 45 45.8333 45H4.16667C1.86632 45 0 43.1283 0 40.8214V10.1786C0 7.87165 1.86632 6 4.16667 6H45.8333C48.1337 6 50 7.87165 50 10.1786ZM5.55556 22.3313C5.55556 28.9908 10.9462 34.3882 17.5781 34.3882C19.9392 34.3882 22.2569 33.6743 24.2187 32.3772C17.8906 27.215 17.934 17.4737 24.2187 12.3114C22.2569 11.0056 19.9392 10.3004 17.5781 10.3004C10.9462 10.2917 5.55556 15.6978 5.55556 22.3313ZM25 31.8027C31.1198 27.0147 31.0937 17.6826 25 12.8685C18.9062 17.6826 18.8802 27.0234 25 31.8027ZM12.6476 38.4449C12.6476 37.6875 12.1528 37.1913 11.3715 37.1652C10.9722 37.1652 10.5469 37.2871 10.2604 37.731C10.0521 37.3741 9.69618 37.1652 9.20139 37.1652C8.87153 37.1652 8.54167 37.2871 8.28125 37.6353V37.2522H7.56944V40.4471H8.28125C8.28125 38.8018 8.06424 37.8181 9.0625 37.8181C9.94792 37.8181 9.77431 38.706 9.77431 40.4471H10.4601C10.4601 38.854 10.2431 37.8181 11.2413 37.8181C12.1267 37.8181 11.9531 38.6886 11.9531 40.4471H12.6649V38.4449H12.6476ZM16.5451 37.2522H15.8594V37.6353C15.625 37.348 15.2951 37.1652 14.8437 37.1652C13.9497 37.1652 13.2639 37.879 13.2639 38.8453C13.2639 39.8203 13.9497 40.5254 14.8437 40.5254C15.2951 40.5254 15.625 40.36 15.8594 40.0554V40.4558H16.5451V37.2522ZM20.0608 39.4808C20.0608 38.175 18.0729 38.767 18.0729 38.1576C18.0729 37.6614 19.1059 37.7397 19.6788 38.0618L19.9653 37.496C19.1493 36.965 17.3437 36.9737 17.3437 38.2098C17.3437 39.4547 19.3316 38.9324 19.3316 39.5156C19.3316 40.0641 18.1597 40.0205 17.5347 39.5853L17.2309 40.1337C18.2031 40.7953 20.0608 40.656 20.0608 39.4808V39.4808ZM23.1337 40.2904L22.9427 39.6984C22.6128 39.8813 21.8837 40.0815 21.8837 39.3415V37.8964H23.0208V37.2522H21.8837V36.2772H21.1719V37.2522H20.5122V37.8877H21.1719V39.3415C21.1719 40.8737 22.6736 40.5951 23.1337 40.2904V40.2904ZM24.2882 39.1239H26.6753C26.6753 37.7136 26.033 37.1565 25.1649 37.1565C24.2448 37.1565 23.5851 37.8442 23.5851 38.8366C23.5851 40.6212 25.5469 40.9172 26.5191 40.0728L26.1892 39.5504C25.5122 40.1076 24.4878 40.0554 24.2882 39.1239V39.1239ZM29.4184 37.2522C29.0191 37.0781 28.4115 37.0955 28.099 37.6353V37.2522H27.3872V40.4471H28.099V38.6451C28.099 37.6353 28.9236 37.7658 29.2101 37.9138L29.4184 37.2522V37.2522ZM30.3385 38.8453C30.3385 37.8529 31.3455 37.5308 32.1354 38.1141L32.4653 37.5482C31.4583 36.756 29.6267 37.1913 29.6267 38.854C29.6267 40.5777 31.5712 40.9259 32.4653 40.1598L32.1354 39.594C31.3368 40.1598 30.3385 39.8203 30.3385 38.8453ZM36.1285 37.2522H35.4167V37.6353C34.6962 36.6777 32.8212 37.2174 32.8212 38.8453C32.8212 40.5167 34.7656 40.9955 35.4167 40.0554V40.4558H36.1285V37.2522V37.2522ZM39.0538 37.2522C38.8455 37.1478 38.099 36.9998 37.7344 37.6353V37.2522H37.0486V40.4471H37.7344V38.6451C37.7344 37.6875 38.5156 37.7484 38.8455 37.9138L39.0538 37.2522V37.2522ZM42.5521 35.9551H41.8663V37.6353C41.1545 36.6864 39.2708 37.1913 39.2708 38.8453C39.2708 40.5342 41.224 40.9868 41.8663 40.0554V40.4558H42.5521V35.9551ZM43.2118 29.4174V29.8179H43.2812V29.4174H43.4462V29.3478H43.0469V29.4174H43.2118V29.4174ZM43.7847 40.1946C43.7847 40.1511 43.7847 40.0989 43.7587 40.0554C43.7326 40.0292 43.7153 39.9857 43.6892 39.9596C43.6632 39.9335 43.6198 39.9161 43.5937 39.89C43.5503 39.89 43.4983 39.8638 43.4549 39.8638C43.4288 39.8638 43.3854 39.89 43.3333 39.89C43.2899 39.9161 43.2639 39.9335 43.2378 39.9596C43.1944 39.9857 43.1684 40.0292 43.1684 40.0554C43.1424 40.0989 43.1424 40.1511 43.1424 40.1946C43.1424 40.2208 43.1424 40.2643 43.1684 40.3165C43.1684 40.3426 43.1944 40.3862 43.2378 40.4123C43.2639 40.4384 43.2812 40.4558 43.3333 40.4819C43.3767 40.508 43.4288 40.508 43.4549 40.508C43.4983 40.508 43.5503 40.508 43.5937 40.4819C43.6198 40.4558 43.6632 40.4384 43.6892 40.4123C43.7153 40.3862 43.7326 40.3426 43.7587 40.3165C43.7847 40.2643 43.7847 40.2208 43.7847 40.1946ZM44.0625 29.3391H43.941L43.8021 29.6438L43.6632 29.3391H43.5417V29.8092H43.6111V29.4522L43.75 29.7569H43.8455L43.967 29.4522V29.8092H44.0625V29.3391V29.3391ZM44.4444 22.3313C44.4444 15.6978 39.0538 10.2917 32.4219 10.2917C30.0608 10.2917 27.7431 11.0056 25.7812 12.3027C32.0399 17.465 32.1354 27.2324 25.7812 32.3685C27.7431 33.6743 30.0781 34.3795 32.4219 34.3795C39.0538 34.3882 44.4444 28.9908 44.4444 22.3313V22.3313Z" fill="black"/>
</svg>
