<svg width="47" height="47" viewBox="0 0 47 47" fill="none" xmlns="http://www.w3.org/2000/svg">
<path d="M22.9868 28.2746C20.2712 28.5346 18.2778 30.9833 18.2778 33.7256V43.3438C18.2778 43.7063 18.5699 44 18.9306 44H20.2361C20.5968 44 20.8889 43.7063 20.8889 43.3438V33.6477C20.8889 32.3393 21.775 31.1244 23.0586 30.9111C24.6921 30.6412 26.1111 31.907 26.1111 33.5V43.3438C26.1111 43.7063 26.4032 44 26.7639 44H28.0694C28.4301 44 28.7222 43.7063 28.7222 43.3438V33.5C28.7222 30.4304 26.1013 27.976 22.9868 28.2746ZM45.5778 31.2023L36.5556 26.8768V24.4864C36.5556 23.5644 36.0741 22.7096 35.2875 22.2355L24.8056 15.9125V9.875H30.6806C31.0412 9.875 31.3333 9.58133 31.3333 9.21875V7.90625C31.3333 7.54367 31.0412 7.25 30.6806 7.25H24.8056V2.65625C24.8056 2.29367 24.5134 2 24.1528 2H22.8472C22.4866 2 22.1944 2.29367 22.1944 2.65625V7.25H16.3194C15.9588 7.25 15.6667 7.54367 15.6667 7.90625V9.21875C15.6667 9.58133 15.9588 9.875 16.3194 9.875H22.1944V15.9125L11.7125 22.2355C11.3257 22.4686 11.0057 22.7985 10.7835 23.193C10.5613 23.5875 10.4445 24.0331 10.4444 24.4864V26.8776L1.42224 31.2023C0.567917 31.6125 0 32.6707 0 33.8544V43.3438C0 43.7063 0.292118 44 0.652778 44H1.95833C2.31899 44 2.61111 43.7063 2.61111 43.3438V33.8544C2.61111 33.692 2.64783 33.5738 2.67639 33.509L10.4444 29.7848V43.3438C10.4444 43.7063 10.7366 44 11.0972 44H12.4028C12.7634 44 13.0556 43.7063 13.0556 43.3438V24.4864L23.5 18.1864L33.9444 24.4864V43.3438C33.9444 43.7063 34.2366 44 34.5972 44H35.9028C36.2634 44 36.5556 43.7063 36.5556 43.3438V29.7848L44.3236 33.509C44.3522 33.573 44.3889 33.6911 44.3889 33.8544V43.3438C44.3889 43.7063 44.681 44 45.0417 44H46.3472C46.7079 44 47 43.7063 47 43.3438V33.8544C47 32.6707 46.4321 31.6125 45.5778 31.2023V31.2023Z" fill="black"/>
</svg>
