<svg width="47" height="47" viewBox="0 0 47 47" fill="none" xmlns="http://www.w3.org/2000/svg">
<path d="M46.5907 35.966C46.4898 35.5713 46.0859 35.3418 45.6912 35.4428L31.9416 39.1238C31.1247 36.8656 28.9769 35.2408 26.4345 35.2408C26.2968 35.2408 26.1683 35.2684 26.0306 35.2775L23.378 25.3818C24.3417 24.574 24.9659 23.3715 24.9659 22.0221C24.9659 19.8557 23.3872 18.0564 21.322 17.6893L19.0181 9.34492C18.9172 8.9502 18.5133 8.7207 18.1186 8.82168L16.6959 9.19805C16.3012 9.29902 16.0718 9.70293 16.1727 10.0977L18.2471 17.6066H17.9718L12.7767 12.4109C12.5564 12.1906 12.3085 12.0254 12.0699 11.8326C12.7216 11.3369 13.2815 10.7311 13.7221 10.0059C14.6399 8.50039 14.9061 6.71953 14.4839 5.00293C13.7679 2.06543 11.1245 0 8.0772 0C6.08543 0 3.7816 0.945508 2.42316 3.18535C1.5053 4.69082 1.23912 6.47168 1.66133 8.18828C1.97341 9.45508 2.64345 10.5383 3.53377 11.3828C1.43187 12.6771 0 14.9996 0 17.625V42.5938C0 45.0264 1.97341 47 4.40574 47C6.83808 47 8.81149 45.0264 8.81149 42.5938V36.5352L9.14192 36.8197L10.3443 43.3832C10.7482 45.568 12.896 47.4039 15.4844 46.9174C16.6317 46.7063 17.6322 46.0545 18.3022 45.0906C18.9722 44.1176 19.2201 42.9518 19.0089 41.7951L17.7148 34.7635C17.4027 33.0836 16.5215 31.5414 15.2182 30.4398L11.7486 27.4564V23.858L14.3278 26.4375H20.5601C20.5785 26.4375 20.5969 26.4283 20.6152 26.4283L23.2311 36.2047C21.6249 37.2512 20.5601 39.0596 20.5601 41.125C20.5601 44.3654 23.1944 47 26.4345 47C29.3441 47 31.7397 44.8795 32.2078 42.098L46.4531 38.2793C46.8477 38.1783 47.0772 37.7744 46.9762 37.3797L46.5907 35.966ZM8.0772 2.9375C9.72935 2.9375 11.2255 4.05742 11.6385 5.7373C12.2535 8.225 10.2801 10.2812 8.0772 10.2812C6.42504 10.2812 4.92893 9.16133 4.51589 7.48145C3.90092 4.99375 5.87432 2.9375 8.0772 2.9375ZM5.87432 42.5938C5.87432 43.4016 5.21346 44.0625 4.40574 44.0625C3.59802 44.0625 2.93716 43.4016 2.93716 42.5938V31.5047L5.87432 34.0199V42.5938ZM15.5486 23.5L10.069 18.0197C9.9221 17.8729 9.73853 17.7994 9.55496 17.7994C9.17863 17.7994 8.81149 18.0932 8.81149 18.5338V28.8059L13.3274 32.6705C14.1167 33.3406 14.6491 34.277 14.8418 35.2959L16.136 42.3275C16.2829 43.1262 15.7505 43.8881 14.9612 44.035C14.8694 44.0533 14.7776 44.0625 14.695 44.0625C13.9974 44.0625 13.3824 43.5668 13.2539 42.86L11.9598 35.8375C11.8955 35.4795 11.7028 35.149 11.4274 34.9104L4.48835 28.9711C3.49706 28.1174 2.93716 26.9057 2.93716 25.6113V17.625C2.93716 15.275 4.80042 13.2922 7.15015 13.2188H7.34291C8.75641 13.2188 9.89456 13.6869 10.7115 14.5131L16.7602 20.5625H20.5601C21.3679 20.5625 22.0287 21.2234 22.0287 22.0312C22.0287 22.8391 21.3679 23.5 20.5601 23.5H15.5486ZM26.4345 44.0625C24.819 44.0625 23.4973 42.7406 23.4973 41.125C23.4973 39.5094 24.819 38.1875 26.4345 38.1875C28.0499 38.1875 29.3716 39.5094 29.3716 41.125C29.3716 42.7406 28.0499 44.0625 26.4345 44.0625Z" fill="black"/>
</svg>
