<svg width="47" height="47" viewBox="0 0 47 47" fill="none" xmlns="http://www.w3.org/2000/svg">
<path d="M23.5 0C10.5181 0 0 10.5181 0 23.5C0 36.4819 10.5181 47 23.5 47C36.4819 47 47 36.4819 47 23.5C47 10.5181 36.4819 0 23.5 0ZM23.5 43.9677C12.2143 43.9677 3.03226 34.7857 3.03226 23.5C3.03226 12.2143 12.2143 3.03226 23.5 3.03226C34.7857 3.03226 43.9677 12.2143 43.9677 23.5C43.9677 34.7857 34.7857 43.9677 23.5 43.9677ZM23.5 29.5645C19.2927 29.5645 15.3319 31.4218 12.6218 34.6625C12.0817 35.3069 12.1669 36.2639 12.8113 36.7946C13.4556 37.3347 14.4127 37.2494 14.9433 36.605C17.0659 34.0655 20.1835 32.6063 23.4905 32.6063C26.7976 32.6063 29.9151 34.0655 32.0377 36.605C32.5399 37.2115 33.497 37.3631 34.1698 36.7946C34.8141 36.2544 34.8994 35.2974 34.3593 34.6625C31.6681 31.4218 27.7073 29.5645 23.5 29.5645ZM15.9194 21.9839C17.5966 21.9839 18.9516 20.6288 18.9516 18.9516C18.9516 17.2744 17.5966 15.9194 15.9194 15.9194C14.2421 15.9194 12.8871 17.2744 12.8871 18.9516C12.8871 20.6288 14.2421 21.9839 15.9194 21.9839ZM31.0806 21.9839C32.7579 21.9839 34.1129 20.6288 34.1129 18.9516C34.1129 17.2744 32.7579 15.9194 31.0806 15.9194C29.4034 15.9194 28.0484 17.2744 28.0484 18.9516C28.0484 20.6288 29.4034 21.9839 31.0806 21.9839Z" fill="black"/>
</svg>
