<svg width="49" height="49" viewBox="0 0 49 49" fill="none" xmlns="http://www.w3.org/2000/svg">
<path d="M20.2768 33.6875H16.4375C15.8014 33.6875 15.2857 33.1733 15.2857 32.5391V28.7109C15.2857 28.0767 15.8014 27.5625 16.4375 27.5625H20.2768C20.9129 27.5625 21.4286 28.0767 21.4286 28.7109V32.5391C21.4286 33.1733 20.9129 33.6875 20.2768 33.6875ZM28.7232 33.6875H32.5625C33.1986 33.6875 33.7143 33.1733 33.7143 32.5391V28.7109C33.7143 28.0767 33.1986 27.5625 32.5625 27.5625H28.7232C28.0871 27.5625 27.5714 28.0767 27.5714 28.7109V32.5391C27.5714 33.1733 28.0871 33.6875 28.7232 33.6875ZM16.4375 24.5H20.2768C20.9129 24.5 21.4286 23.9858 21.4286 23.3516V19.5234C21.4286 18.8892 20.9129 18.375 20.2768 18.375H16.4375C15.8014 18.375 15.2857 18.8892 15.2857 19.5234V23.3516C15.2857 23.9858 15.8014 24.5 16.4375 24.5ZM28.7232 24.5H32.5625C33.1986 24.5 33.7143 23.9858 33.7143 23.3516V19.5234C33.7143 18.8892 33.1986 18.375 32.5625 18.375H28.7232C28.0871 18.375 27.5714 18.8892 27.5714 19.5234V23.3516C27.5714 23.9858 28.0871 24.5 28.7232 24.5ZM46 49H3V47.0859C3 46.4517 3.51571 45.9375 4.15179 45.9375H6.07143V8.13477C6.07143 7.0248 7.10276 6.125 8.375 6.125H16.8214V2.29688C16.8214 1.02833 17.8528 0 19.125 0H29.875C31.1472 0 32.1786 1.02833 32.1786 2.29688V6.125H40.625C41.8972 6.125 42.9286 7.0248 42.9286 8.13477V45.9375H44.8482C45.4843 45.9375 46 46.4517 46 47.0859V49ZM9.14286 45.9375H21.4286V37.8984C21.4286 37.2642 21.9443 36.75 22.5804 36.75H26.4196C27.0557 36.75 27.5714 37.2642 27.5714 37.8984V45.9375H39.8571V9.1875H32.1786V13.0156C32.1786 14.2842 31.1472 15.3125 29.875 15.3125H19.125C17.8528 15.3125 16.8214 14.2842 16.8214 13.0156V9.1875H9.14286V45.9375ZM28.5312 6.125H26.0357V3.63672C26.0357 3.48443 25.975 3.33837 25.867 3.23068C25.759 3.123 25.6126 3.0625 25.4598 3.0625H23.5402C23.3874 3.0625 23.241 3.123 23.133 3.23068C23.025 3.33837 22.9643 3.48443 22.9643 3.63672V6.125H20.4687C20.316 6.125 20.1695 6.1855 20.0615 6.29319C19.9535 6.40087 19.8929 6.54693 19.8929 6.69922V8.61328C19.8929 8.76557 19.9535 8.91163 20.0615 9.01931C20.1695 9.127 20.316 9.1875 20.4687 9.1875H22.9643V11.6758C22.9643 11.8281 23.025 11.9741 23.133 12.0818C23.241 12.1895 23.3874 12.25 23.5402 12.25H25.4598C25.6126 12.25 25.759 12.1895 25.867 12.0818C25.975 11.9741 26.0357 11.8281 26.0357 11.6758V9.1875H28.5312C28.684 9.1875 28.8305 9.127 28.9385 9.01931C29.0465 8.91163 29.1071 8.76557 29.1071 8.61328V6.69922C29.1071 6.54693 29.0465 6.40087 28.9385 6.29319C28.8305 6.1855 28.684 6.125 28.5312 6.125Z" fill="black"/>
</svg>
