<svg width="53" height="53" viewBox="0 0 53 53" fill="none" xmlns="http://www.w3.org/2000/svg">
<path d="M33.8694 14.5206C34.9981 13.0064 35.6667 11.1341 35.6667 9.10938C35.6667 4.08649 31.5545 0 26.5 0C21.4455 0 17.3333 4.08649 17.3333 9.10938C17.3333 11.1341 18.0019 13.0064 19.1306 14.5206C16.1443 15.5768 14 18.4126 14 21.7383V32.6074C14 35.1684 15.7751 37.3252 18.1667 37.9268V47.5137C18.1667 50.5388 20.6433 53 23.6875 53H29.3125C32.3567 53 34.8333 50.5388 34.8333 47.5137V37.9268C37.2249 37.3251 39 35.1684 39 32.6074V21.7383C39 18.4126 36.8557 15.5768 33.8694 14.5206ZM26.5 3.3125C29.7217 3.3125 32.3333 5.90784 32.3333 9.10938C32.3333 12.3109 29.7217 14.9062 26.5 14.9062C23.2783 14.9062 20.6667 12.3109 20.6667 9.10938C20.6667 5.90784 23.2783 3.3125 26.5 3.3125ZM35.6667 32.6074C35.6667 33.808 34.6873 34.7812 33.4792 34.7812H31.5V47.5137C31.5 48.7142 30.5206 49.6875 29.3125 49.6875H23.6875C22.4794 49.6875 21.5 48.7142 21.5 47.5137V34.7812H19.5208C18.3127 34.7812 17.3333 33.808 17.3333 32.6074V21.7383C17.3333 19.3371 19.2921 17.3906 21.7083 17.3906H22.6833C25.0491 18.4716 27.849 18.5183 30.3167 17.3906H31.2917C33.7079 17.3906 35.6667 19.3371 35.6667 21.7383V32.6074Z" fill="black"/>
</svg>
