<svg width="50" height="50" viewBox="0 0 50 50" fill="none" xmlns="http://www.w3.org/2000/svg">
<path d="M25 16.25C20.8578 16.25 17.5 20.1672 17.5 25C17.5 29.832 20.8578 33.75 25 33.75C29.1406 33.75 32.5 29.8336 32.5 25C32.5 20.1672 29.1422 16.25 25 16.25ZM28.125 29.375C28.125 29.7203 27.8453 30 27.5 30H22.5C22.1547 30 21.875 29.7203 21.875 29.375V28.125C21.875 27.7797 22.1547 27.5 22.5 27.5H23.75V23.1687L23.7133 23.193C23.645 23.2385 23.5685 23.2702 23.4879 23.2861C23.4074 23.3021 23.3246 23.302 23.2441 23.2859C23.1637 23.2698 23.0872 23.2379 23.019 23.1922C22.9508 23.1465 22.8923 23.0879 22.8469 23.0195L22.1531 21.9797C22.1076 21.9114 22.0759 21.8349 22.06 21.7544C22.044 21.6739 22.0441 21.591 22.0602 21.5105C22.0763 21.4301 22.1082 21.3536 22.1539 21.2854C22.1996 21.2172 22.2582 21.1587 22.3266 21.1133L23.5242 20.3148C23.8321 20.1095 24.194 20 24.5641 20H25.625C25.9703 20 26.25 20.2797 26.25 20.625V27.5H27.5C27.8453 27.5 28.125 27.7797 28.125 28.125V29.375ZM47.5 10H2.5C1.11953 10 0 11.1195 0 12.5V37.5C0 38.8805 1.11953 40 2.5 40H47.5C48.8805 40 50 38.8805 50 37.5V12.5C50 11.1195 48.8805 10 47.5 10ZM47.25 31.25C44.4883 31.25 41.25 34.4883 41.25 37.25H8.75C8.75 34.4883 5.51172 31.25 2.75 31.25V18.75C5.51172 18.75 8.75 15.5117 8.75 12.75H41.25C41.25 15.5117 44.4883 18.75 47.25 18.75V31.25Z" fill="black"/>
</svg>
