<svg width="62" height="62" viewBox="0 0 62 62" fill="none" xmlns="http://www.w3.org/2000/svg">
<path d="M0.0749907 28.9757C0.124985 27.2259 0.224972 25.3262 0.374954 23.2764C0.574929 21.1767 0.874892 19.0769 1.27484 16.9772C1.67479 14.8774 2.19973 12.8527 2.84965 10.9029C3.54956 8.95318 4.42445 7.2284 5.47432 5.72858C6.57419 4.22877 7.87403 3.05392 9.37384 2.20402C10.9236 1.35412 12.7734 0.954173 14.9232 1.00417C17.4728 1.10416 19.6226 1.85406 21.3724 3.25389C23.1221 4.65372 24.522 6.60347 25.5718 9.10317C26.6217 11.6029 27.3716 14.6525 27.8216 18.252C28.2715 21.8016 28.4965 25.8011 28.4965 30.2505C28.4965 33.9501 28.3715 37.6246 28.1215 41.2742C27.9215 44.8737 27.3716 48.1483 26.4717 51.098C25.5718 53.9976 24.222 56.3473 22.4222 58.1471C20.6224 59.9969 18.1228 60.9467 14.9232 60.9967C12.6734 61.0467 10.7237 60.5218 9.07388 59.4219C7.47407 58.3721 6.09924 56.9972 4.94939 55.2974C3.84952 53.5477 2.94963 51.5479 2.24972 49.2982C1.5998 46.9985 1.09986 44.6738 0.749907 42.324C0.399951 39.9243 0.174978 37.5746 0.0749907 35.2749C-0.0249969 32.9752 -0.0249969 30.8755 0.0749907 28.9757ZM14.6982 6.92844C13.2484 6.92844 12.0235 7.70334 11.0236 9.25314C10.0738 10.753 9.29885 12.6277 8.69892 14.8774C8.099 17.1272 7.64905 19.5519 7.34909 22.1515C7.04913 24.7012 6.89915 27.0259 6.89915 29.1257C6.89915 32.2253 6.97414 35.3249 7.12412 38.4245C7.32409 41.5242 7.72404 44.3238 8.32397 46.8235C8.92389 49.2732 9.74879 51.2979 10.7987 52.8977C11.8485 54.4476 13.2484 55.2225 14.9981 55.2225C16.398 55.2225 17.5478 54.6725 18.4477 53.5727C19.3476 52.4728 20.0225 50.848 20.4725 48.6983C20.9724 46.5485 21.2974 43.8989 21.4473 40.7492C21.6473 37.5996 21.7473 34.0001 21.7473 29.9506C21.7473 27.1009 21.6223 24.3013 21.3724 21.5516C21.1224 18.752 20.6974 16.2773 20.0975 14.1275C19.5476 11.9778 18.8227 10.253 17.9228 8.95318C17.0229 7.60335 15.948 6.92844 14.6982 6.92844Z" fill="black"/>
<path d="M33.075 28.9757C33.125 27.2259 33.225 25.3262 33.375 23.2764C33.5749 21.1767 33.8749 19.0769 34.2748 16.9772C34.6748 14.8774 35.1997 12.8527 35.8496 10.9029C36.5496 8.95318 37.4245 7.2284 38.4743 5.72858C39.5742 4.22877 40.874 3.05392 42.3738 2.20402C43.9236 1.35412 45.7734 0.954173 47.9232 1.00417C50.4728 1.10416 52.6226 1.85406 54.3724 3.25389C56.1221 4.65372 57.522 6.60347 58.5718 9.10317C59.6217 11.6029 60.3716 14.6525 60.8216 18.252C61.2715 21.8016 61.4965 25.8011 61.4965 30.2505C61.4965 33.9501 61.3715 37.6246 61.1215 41.2742C60.9215 44.8737 60.3716 48.1483 59.4717 51.098C58.5718 53.9976 57.222 56.3473 55.4222 58.1471C53.6224 59.9969 51.1228 60.9467 47.9232 60.9967C45.6734 61.0467 43.7237 60.5218 42.0739 59.4219C40.4741 58.3721 39.0992 56.9972 37.9494 55.2974C36.8495 53.5477 35.9496 51.5479 35.2497 49.2982C34.5998 46.9985 34.0999 44.6738 33.7499 42.324C33.4 39.9243 33.175 37.5746 33.075 35.2749C32.975 32.9752 32.975 30.8755 33.075 28.9757ZM47.6982 6.92844C46.2484 6.92844 45.0235 7.70334 44.0236 9.25314C43.0738 10.753 42.2988 12.6277 41.6989 14.8774C41.099 17.1272 40.6491 19.5519 40.3491 22.1515C40.0491 24.7012 39.8991 27.0259 39.8991 29.1257C39.8991 32.2253 39.9741 35.3249 40.1241 38.4245C40.3241 41.5242 40.724 44.3238 41.324 46.8235C41.9239 49.2732 42.7488 51.2979 43.7987 52.8977C44.8485 54.4476 46.2484 55.2225 47.9981 55.2225C49.398 55.2225 50.5478 54.6725 51.4477 53.5727C52.3476 52.4728 53.0225 50.848 53.4725 48.6983C53.9724 46.5485 54.2974 43.8989 54.4473 40.7492C54.6473 37.5996 54.7473 34.0001 54.7473 29.9506C54.7473 27.1009 54.6223 24.3013 54.3724 21.5516C54.1224 18.752 53.6974 16.2773 53.0975 14.1275C52.5476 11.9778 51.8227 10.253 50.9228 8.95318C50.0229 7.60335 48.948 6.92844 47.6982 6.92844Z" fill="black"/>
</svg>
