<svg width="60" height="60" viewBox="0 0 60 60" fill="none" xmlns="http://www.w3.org/2000/svg">
<path d="M23.7389 11.9701C22.4853 12.7681 21.382 12.9177 20.4292 12.419C19.4764 11.8703 19 11.0224 19 9.87531C19 9.37656 19.1003 8.8778 19.3009 8.37905C19.5015 7.83042 19.8525 7.38155 20.354 7.03242L29.7566 0.972569C30.3083 0.623441 30.8097 0.374064 31.2611 0.22444C31.7625 0.0748135 32.2139 0 32.615 0C33.7183 0 34.4956 0.274314 34.9469 0.822941C35.4484 1.3217 35.6991 2.01995 35.6991 2.9177C35.7493 11.7456 35.7994 20.7481 35.8496 29.9252C35.8997 39.1022 35.9499 48.0798 36 56.8579C35.9499 57.8554 35.5737 58.6284 34.8717 59.1771C34.1696 59.7257 33.4174 60 32.615 60C31.8628 60 31.1608 59.7506 30.5088 59.2519C29.8569 58.7531 29.4808 58.005 29.3805 57.0075C29.3805 55.611 29.3805 53.8903 29.3805 51.8454C29.3805 49.8005 29.3555 47.581 29.3053 45.187C29.3053 42.793 29.2802 40.2993 29.2301 37.7057C29.2301 35.1122 29.2301 32.5436 29.2301 30C29.2301 27.9052 29.205 25.8105 29.1549 23.7157C29.1549 21.6209 29.1549 19.6259 29.1549 17.7307C29.1549 15.8354 29.1549 14.1147 29.1549 12.5686C29.1549 10.9726 29.1549 9.62593 29.1549 8.52868L23.7389 11.9701Z" fill="black"/>
</svg>
