<svg width="60" height="60" viewBox="0 0 60 60" fill="none" xmlns="http://www.w3.org/2000/svg">
<path d="M39.7692 0C40.7949 0 41.5385 0.307693 42 0.923079C42.5128 1.53846 42.7692 2.20513 42.7692 2.92308C42.7692 3.69231 42.4872 4.38462 41.9231 5C41.4103 5.61539 40.641 5.94872 39.6154 6H26.3846C26.3846 7.02564 26.359 8.1282 26.3077 9.30769C26.2564 10.4872 26.2051 11.6923 26.1538 12.9231C26.0513 14.6154 25.9744 16.3077 25.9231 18C25.8718 19.641 25.8462 21.2051 25.8462 22.6923C26.2564 22.7436 26.8205 22.7949 27.5385 22.8462C28.3077 22.8462 29.0513 22.8974 29.7692 23C34.0256 23.5641 37.4103 25.359 39.9231 28.3846C42.4359 31.4103 43.7179 35.5641 43.7692 40.8462C43.7692 44.1795 43.3333 47.0513 42.4615 49.4615C41.5897 51.8718 40.4103 53.8462 38.9231 55.3846C37.4359 56.9744 35.7179 58.1282 33.7692 58.8462C31.8718 59.6154 29.8718 60 27.7692 60C25.8205 60 24.0513 59.8205 22.4615 59.4615C20.9231 59.1026 19.359 58.5128 17.7692 57.6923C17.1538 57.3333 16.6923 56.8718 16.3846 56.3077C16.1282 55.7949 16 55.282 16 54.7692C16 53.7949 16.4359 53.0256 17.3077 52.4615C18.1795 51.8462 19.2051 51.7692 20.3846 52.2308C21.4615 52.641 22.5128 53.0513 23.5385 53.4615C24.6154 53.8718 25.8718 54.1282 27.3077 54.2308C30.8462 54.3846 33.359 53.3077 34.8462 51C36.3846 48.6923 37.1282 45.359 37.0769 41C37.0256 37.6154 36.359 34.8718 35.0769 32.7692C33.7949 30.6154 31.6154 29.2564 28.5385 28.6923C27.5128 28.4872 26.5641 28.3846 25.6923 28.3846C24.8205 28.3846 23.7436 28.4103 22.4615 28.4615C20.8205 28.5128 19.8462 28.2308 19.5385 27.6154C19.2821 26.9487 19.1538 26.1026 19.1538 25.0769L19.6923 3.23077C19.6923 2.25641 19.8974 1.48718 20.3077 0.923079C20.7692 0.307693 21.6154 0 22.8462 0H39.7692Z" fill="black"/>
</svg>
