<svg width="60" height="60" viewBox="0 0 60 60" fill="none" xmlns="http://www.w3.org/2000/svg">
<path d="M39.7595 0C40.9241 0 41.7595 0.27848 42.2658 0.835441C42.7722 1.39241 43.0253 2.02532 43.0253 2.73418C43.0253 3.44304 42.7468 4.10127 42.1899 4.70886C41.6835 5.31646 40.9241 5.67089 39.9114 5.77215C37.7848 6.02531 35.6329 6.68354 33.4557 7.74684C31.2785 8.81013 29.4051 10.5316 27.8354 12.9114C26.7215 14.6835 25.7089 16.8101 24.7975 19.2911C23.8861 21.7215 23.2278 24.557 22.8228 27.7975C23.8354 27.3924 25.0506 27.0633 26.4684 26.8101C27.8861 26.557 29.2278 26.4304 30.4937 26.4304C32.9241 26.4304 35.076 26.8101 36.9494 27.5696C38.8228 28.2785 40.3924 29.3165 41.6582 30.6835C42.9241 32 43.8861 33.5949 44.5443 35.4684C45.2025 37.3418 45.5316 39.3924 45.5316 41.6203C45.5316 42.076 45.5063 42.7089 45.4557 43.519C45.4557 44.3291 45.4304 45.0127 45.3797 45.5696C45.1772 47.7468 44.6709 49.7215 43.8608 51.4937C43.0506 53.2658 42.0127 54.7848 40.7468 56.0506C39.481 57.3165 38.0127 58.2785 36.3418 58.9367C34.6709 59.6456 32.8987 60 31.0253 60C26.5696 60 22.9494 58.7089 20.1646 56.1266C17.4304 53.5443 15.8354 49.7468 15.3797 44.7342C15.1266 42.4051 15 40.0253 15 37.5949C15.0506 35.1646 15.2025 32.7342 15.4557 30.3038C15.8608 26.2025 16.5696 22.4051 17.5823 18.9114C18.5949 15.4177 20.1139 12.1266 22.1392 9.03798C23.0506 7.62025 24.1646 6.35443 25.481 5.24051C26.8481 4.07595 28.2911 3.11392 29.8101 2.35443C31.3797 1.5443 33 0.962025 34.6709 0.607596C36.3924 0.202532 38.0886 0 39.7595 0ZM38.6962 41.2405C38.6962 38.7089 37.9873 36.6076 36.5696 34.9367C35.1519 33.2658 32.9747 32.4304 30.038 32.4304C28.7722 32.4304 27.4051 32.6582 25.9367 33.1139C24.4684 33.5696 23.2278 34.3291 22.2152 35.3924C22.1139 36.3544 22.038 37.2405 21.9873 38.0506C21.9367 38.8101 21.9114 39.5696 21.9114 40.3291C21.9114 40.9873 21.9114 41.7215 21.9114 42.5316C21.962 43.3418 22.038 44.0253 22.1392 44.5823C22.2405 45.6456 22.4684 46.7089 22.8228 47.7722C23.2278 48.8354 23.7342 49.7975 24.3418 50.6582C25 51.519 25.7848 52.2532 26.6962 52.8608C27.6076 53.4684 28.6456 53.7975 29.8101 53.8481C32.3418 54 34.3418 53.3418 35.8101 51.8734C37.2785 50.3544 38.2152 48.2025 38.6203 45.4177C38.6203 45.2152 38.6203 44.9367 38.6203 44.5823C38.6709 44.1772 38.6962 43.7722 38.6962 43.3671C38.6962 42.9114 38.6962 42.5063 38.6962 42.1519C38.6962 41.7468 38.6962 41.443 38.6962 41.2405Z" fill="black"/>
</svg>
