<svg width="60" height="60" viewBox="0 0 60 60" fill="none" xmlns="http://www.w3.org/2000/svg">
<path d="M15.0991 43.5994C15.4505 39.9849 16.4796 36.9227 18.1864 34.4126C19.9435 31.9026 22.328 29.4679 25.34 27.1084C23.9344 25.9036 22.6794 24.7239 21.575 23.5693C20.5208 22.3645 19.6172 21.1094 18.8641 19.8042C18.1613 18.4488 17.6593 17.0181 17.3581 15.512C17.0569 13.9558 16.9816 12.2239 17.1322 10.3163C17.2828 8.96084 17.6593 7.65562 18.2617 6.4006C18.9143 5.14558 19.7678 4.04116 20.822 3.08735C21.9264 2.13353 23.2316 1.38052 24.7376 0.828312C26.2437 0.276104 27.9505 0 29.8581 0C31.6653 0 33.322 0.301204 34.828 0.903612C36.3842 1.50602 37.7145 2.35944 38.819 3.46386C39.9736 4.51807 40.8521 5.79819 41.4545 7.30422C42.0569 8.76004 42.3079 10.3916 42.2075 12.1988C42.0067 14.8092 41.2537 17.244 39.9485 19.503C38.6935 21.7118 36.9113 24.0211 34.6021 26.4307C34.7025 26.5311 34.7527 26.5813 34.7527 26.5813C34.7527 26.5813 34.8029 26.6064 34.9033 26.6566C36.2587 27.9116 37.5388 29.1416 38.7437 30.3464C39.9987 31.501 41.1031 32.756 42.0569 34.1114C43.0107 35.4167 43.7637 36.8474 44.3159 38.4036C44.9184 39.9096 45.2698 41.6416 45.3702 43.5994C45.571 48.1677 44.4415 51.9327 41.9816 54.8946C39.572 57.8564 35.832 59.5382 30.7617 59.9398C28.3521 60.1406 26.1433 59.8394 24.1352 59.0361C22.1272 58.2329 20.3953 57.0783 18.9394 55.5723C17.5338 54.0663 16.4796 52.2841 15.7768 50.2259C15.074 48.1677 14.8481 45.9588 15.0991 43.5994ZM30.6111 54.1416C32.9204 53.991 34.828 53.1376 36.334 51.5813C37.84 49.9749 38.5931 47.49 38.5931 44.1265C38.5931 42.7711 38.3672 41.5412 37.9153 40.4367C37.5137 39.2821 36.9364 38.2028 36.1834 37.1988C35.4806 36.1446 34.6021 35.1406 33.5479 34.1867C32.5439 33.1827 31.4394 32.1285 30.2346 31.0241C28.9294 32.0783 27.7748 33.0572 26.7708 33.9608C25.817 34.8645 24.9886 35.8183 24.2858 36.8223C23.6332 37.8263 23.1061 38.9307 22.7045 40.1355C22.3531 41.2902 22.1021 42.6707 21.9515 44.2771C21.7005 47.4398 22.3531 49.9247 23.9093 51.7319C25.5157 53.5392 27.7497 54.3424 30.6111 54.1416ZM29.8581 6.0994C28.2517 6.04919 26.9214 6.5512 25.8672 7.60542C24.8631 8.65964 24.2858 9.83936 24.1352 11.1446C23.9846 12.1486 23.9595 13.1275 24.0599 14.0813C24.1603 14.9849 24.4113 15.8886 24.8129 16.7922C25.2145 17.6958 25.817 18.6245 26.6202 19.5783C27.4234 20.4819 28.4525 21.4859 29.7075 22.5904C30.9625 21.3353 31.9666 20.2309 32.7196 19.2771C33.4726 18.2731 34.0499 17.3695 34.4515 16.5663C34.8531 15.7129 35.1292 14.9096 35.2798 14.1566C35.4304 13.3534 35.5057 12.5251 35.5057 11.6717C35.5559 10.1657 35.0288 8.88554 33.9244 7.83132C32.82 6.7269 31.4645 6.1496 29.8581 6.0994Z" fill="black"/>
</svg>
