<svg width="47" height="44" viewBox="0 0 47 44" fill="none" xmlns="http://www.w3.org/2000/svg">
<path d="M45.2926 2.11495L35.7459 0.0524907C34.7086 -0.170942 33.6438 0.336078 33.2216 1.247L28.8154 10.8718C28.4299 11.714 28.6869 12.7022 29.4488 13.278L35.0116 17.5404C31.7069 24.1317 25.933 29.6144 18.7455 32.7682L14.1925 27.5605C13.5683 26.8472 12.5218 26.6066 11.6222 26.9675L1.34116 31.0925C0.358957 31.4964 -0.182634 32.4932 0.0560331 33.4643L2.25911 42.4016C2.4886 43.3297 3.36983 44 4.40712 44C27.9158 44 47 26.1683 47 4.12584C47 3.16336 46.2932 2.32979 45.2926 2.11495Z" fill="black"/>
</svg>
