<svg width="48" height="48" viewBox="0 0 48 48" fill="none" xmlns="http://www.w3.org/2000/svg">
<path d="M40 19.125H30.4758L21.7174 3.67691C21.6006 3.47124 21.432 3.30032 21.2285 3.18145C21.0251 3.06258 20.7942 2.99999 20.559 3L13.1957 3C12.3098 3 11.6707 3.85412 11.914 4.71244L15.9999 19.125H10.6665L7.06648 14.2875C6.81481 13.949 6.41897 13.75 5.99981 13.75H1.33395C0.466448 13.75 -0.170222 14.5714 0.0406126 15.4196L2.66646 24.5L0.0406126 33.5804C-0.170222 34.4286 0.466448 35.25 1.33395 35.25H5.99981C6.41981 35.25 6.81481 35.051 7.06648 34.7125L10.6665 29.875H15.9999L11.914 44.2867C11.6707 45.145 12.3098 46 13.1957 46H20.559C21.0374 46 21.479 45.7413 21.7165 45.3231L30.4758 29.875H40C42.9458 29.875 48 27.4688 48 24.5C48 21.5312 42.9458 19.125 40 19.125ZM40 27.1875H28.9282L19.7857 43.3125H14.964L19.5357 27.1875H9.33315L5.33314 32.5625H3.11229L5.44397 24.5L3.11063 16.4375H5.33314L9.33315 21.8125H19.5349L14.964 5.6875H19.7865L28.9291 21.8125H40C42.1866 21.8125 45.2175 23.6392 45.3333 24.4924C45.2175 25.3608 42.1866 27.1875 40 27.1875Z" fill="black"/>
</svg>
