<svg width="52" height="52" viewBox="0 0 52 52" fill="none" xmlns="http://www.w3.org/2000/svg">
<path d="M26.1124 0C18.4475 0 12.9964 3.20927 8.82145 9.47598C7.39386 11.6189 7.87147 14.521 9.90873 16.083L14.1307 19.32C16.2108 20.9149 19.1876 20.5555 20.8281 18.4557C22.9849 15.6952 23.6777 15.2098 25.4617 15.2098C26.488 15.2098 28.0018 15.9206 28.0018 17.0625C28.0018 19.6758 17.0235 19.1693 17.0235 29.4786V30.875C17.0235 32.5007 17.8152 33.9421 19.0286 34.8282C16.9516 36.6181 15.6319 39.2809 15.6319 42.25C15.6319 47.6262 19.9575 52 25.2744 52C30.5913 52 34.9168 47.6262 34.9168 42.25C34.9168 39.2809 33.5971 36.6181 31.5202 34.8282C32.7335 33.942 33.5253 32.5007 33.5253 30.875V30.3971C36.0751 28.4685 44 25.8772 44 16.237C44 6.98679 34.9521 0 26.1124 0ZM25.2744 48.75C21.7298 48.75 18.8461 45.8341 18.8461 42.25C18.8461 38.6659 21.7298 35.75 25.2744 35.75C28.819 35.75 31.7027 38.6659 31.7027 42.25C31.7027 45.8341 28.819 48.75 25.2744 48.75ZM30.3111 29.8181V30.875C30.3111 31.7725 29.5917 32.5 28.7041 32.5H21.8447C20.9572 32.5 20.2376 31.7725 20.2376 30.875V29.4786C20.2376 20.6648 31.2159 23.6564 31.2159 17.0625C31.2159 13.8125 28.034 11.9598 25.4617 11.9598C22.0685 11.9598 20.5233 13.6031 18.306 16.441C17.7633 17.1357 16.7708 17.2656 16.0727 16.7303L11.8507 13.4933C11.172 12.9729 11.0113 12.006 11.4871 11.2917C14.9164 6.14443 19.2838 3.25 26.1124 3.25C33.2099 3.25 40.7859 8.85198 40.7859 16.237C40.7859 26.0434 30.3111 26.1943 30.3111 29.8181V29.8181Z" fill="black"/>
</svg>
