<svg width="47" height="47" viewBox="0 0 47 47" fill="none" xmlns="http://www.w3.org/2000/svg">
<path d="M39.6562 32.3125H29.375C26.9424 32.3125 24.9688 30.3389 24.9688 27.9062C24.9688 25.4736 26.9424 23.5 29.375 23.5H38.1875C38.1875 23.5 47 13.6777 47 8.8125C47 3.94727 43.0527 0 38.1875 0C33.3223 0 29.375 3.94727 29.375 8.8125C29.375 11.9887 33.1295 17.2762 35.7365 20.5625H29.375C25.3268 20.5625 22.0312 23.858 22.0312 27.9062C22.0312 31.9545 25.3268 35.25 29.375 35.25H39.6562C42.0889 35.25 44.0625 37.2236 44.0625 39.6562C44.0625 42.0889 42.0889 44.0625 39.6562 44.0625H11.2635C13.8705 40.7762 17.625 35.4887 17.625 32.3125C17.625 27.4473 13.6777 23.5 8.8125 23.5C3.94727 23.5 0 27.4473 0 32.3125C0 37.1777 8.8125 47 8.8125 47H39.6562C43.7045 47 47 43.7045 47 39.6562C47 35.608 43.7045 32.3125 39.6562 32.3125ZM32.3125 8.8125C32.3125 5.57207 34.9471 2.9375 38.1875 2.9375C41.4279 2.9375 44.0625 5.57207 44.0625 8.8125C44.0625 10.6852 41.2994 15.0547 38.1875 18.9469C35.0664 15.0363 32.3125 10.6301 32.3125 8.8125ZM2.9375 32.3125C2.9375 29.0721 5.57207 26.4375 8.8125 26.4375C12.0529 26.4375 14.6875 29.0721 14.6875 32.3125C14.6875 34.1852 11.9244 38.5547 8.8125 42.4469C5.69141 38.5363 2.9375 34.1301 2.9375 32.3125ZM8.8125 30.8438C6.86641 30.8438 6.87559 33.7812 8.8125 33.7812C10.7586 33.7812 10.7494 30.8438 8.8125 30.8438ZM38.1875 7.34375C36.2414 7.34375 36.2506 10.2812 38.1875 10.2812C40.1336 10.2812 40.1244 7.34375 38.1875 7.34375Z" fill="black"/>
</svg>
