<svg width="47" height="47" viewBox="0 0 47 47" fill="none" xmlns="http://www.w3.org/2000/svg">
<path d="M46.2656 5.875H8.8125V0.734375C8.8125 0.330469 8.48203 0 8.07812 0H6.60938C6.20547 0 5.875 0.330469 5.875 0.734375V5.875H0.734375C0.330469 5.875 0 6.20547 0 6.60938V8.07812C0 8.48203 0.330469 8.8125 0.734375 8.8125H5.875V46.2656C5.875 46.6695 6.20547 47 6.60938 47H8.07812C8.48203 47 8.8125 46.6695 8.8125 46.2656V8.8125H17.625V13.2188H16.1562C14.5314 13.2188 13.2188 14.5314 13.2188 16.1562V32.3125C13.2188 33.9373 14.5314 35.25 16.1562 35.25H42.5938C44.2186 35.25 45.5312 33.9373 45.5312 32.3125V16.1562C45.5312 14.5314 44.2186 13.2188 42.5938 13.2188H41.125V8.8125H46.2656C46.6695 8.8125 47 8.48203 47 8.07812V6.60938C47 6.20547 46.6695 5.875 46.2656 5.875ZM42.5938 32.3125H16.1562V16.1562H42.5938V32.3125ZM38.1875 13.2188H20.5625V8.8125H38.1875V13.2188Z" fill="black"/>
</svg>
