<svg width="47" height="47" viewBox="0 0 47 47" fill="none" xmlns="http://www.w3.org/2000/svg">
<path d="M23.5 0C10.5181 0 0 10.5181 0 23.5C0 36.4819 10.5181 47 23.5 47C36.4819 47 47 36.4819 47 23.5C47 10.5181 36.4819 0 23.5 0ZM23.5 43.9677C12.2143 43.9677 3.03226 34.7857 3.03226 23.5C3.03226 12.2143 12.2143 3.03226 23.5 3.03226C34.7857 3.03226 43.9677 12.2143 43.9677 23.5C43.9677 34.7857 34.7857 43.9677 23.5 43.9677ZM23.5 26.5323C20.155 26.5323 17.4355 29.2518 17.4355 32.5968C17.4355 35.9417 20.155 38.6613 23.5 38.6613C26.845 38.6613 29.5645 35.9417 29.5645 32.5968C29.5645 29.2518 26.845 26.5323 23.5 26.5323ZM23.5 35.629C21.8323 35.629 20.4677 34.2645 20.4677 32.5968C20.4677 30.929 21.8323 29.5645 23.5 29.5645C25.1677 29.5645 26.5323 30.929 26.5323 32.5968C26.5323 34.2645 25.1677 35.629 23.5 35.629ZM18.9516 18.9516C18.9516 17.2744 17.5966 15.9194 15.9194 15.9194C14.2421 15.9194 12.8871 17.2744 12.8871 18.9516C12.8871 20.6288 14.2421 21.9839 15.9194 21.9839C17.5966 21.9839 18.9516 20.6288 18.9516 18.9516ZM31.0806 15.9194C29.4034 15.9194 28.0484 17.2744 28.0484 18.9516C28.0484 20.6288 29.4034 21.9839 31.0806 21.9839C32.7579 21.9839 34.1129 20.6288 34.1129 18.9516C34.1129 17.2744 32.7579 15.9194 31.0806 15.9194Z" fill="black"/>
</svg>
