<svg width="52" height="52" viewBox="0 0 52 52" fill="none" xmlns="http://www.w3.org/2000/svg">
<path d="M40.125 26.0001H15.75V16.2501C15.75 9.07977 18.3297 3.25009 25.5 3.25009C32.6703 3.25009 35.25 9.07977 35.25 16.2501V18.2813C35.25 18.9516 35.7984 19.5001 36.4688 19.5001H37.2812C37.9516 19.5001 38.5 18.9516 38.5 18.2813V16.4024C38.5 7.4243 34.5289 0.0305637 25.5508 9.50017e-05C16.5625 -0.0303737 12.5 7.27196 12.5 16.2501V26.0001H10.875C8.18359 26.0001 6 28.1836 6 30.875V47.125C6 49.8164 8.18359 52 10.875 52H40.125C42.8164 52 45 49.8164 45 47.125V30.875C45 28.1836 42.8164 26.0001 40.125 26.0001ZM41.75 47.125C41.75 48.0188 41.0188 48.75 40.125 48.75H10.875C9.98125 48.75 9.25 48.0188 9.25 47.125V30.875C9.25 29.9813 9.98125 29.25 10.875 29.25H40.125C41.0188 29.25 41.75 29.9813 41.75 30.875V47.125ZM25.5 43.875C24.6062 43.875 23.875 43.1438 23.875 42.25V35.75C23.875 34.8563 24.6062 34.125 25.5 34.125C26.3938 34.125 27.125 34.8563 27.125 35.75V42.25C27.125 43.1438 26.3938 43.875 25.5 43.875Z" fill="black"/>
</svg>
