<svg width="47" height="47" viewBox="0 0 47 47" fill="none" xmlns="http://www.w3.org/2000/svg">
<path d="M43.6225 36.3812L43.9109 37.0562C44.1499 37.6154 43.8916 38.263 43.3341 38.5026L39.4518 40.2718C38.7509 40.5733 37.8644 40.2994 37.5139 39.4643L32.0456 26.4375H19.1072C18.7547 26.4375 18.4141 26.31 18.1478 26.0783C17.8815 25.8467 17.7075 25.5265 17.6576 25.1765C14.511 3.08305 14.7336 4.69675 14.7143 4.40621C14.7143 1.91576 16.7742 -0.0921141 19.2783 0.00326297C21.5551 0.0900111 23.4103 1.95083 23.4968 4.23455C23.5919 6.74621 21.5901 8.81247 19.1072 8.81247C18.8221 8.81247 18.5438 8.78428 18.2739 8.73224L19.122 14.6875H31.1875C31.794 14.6875 32.2857 15.1807 32.2857 15.789V16.5234C32.2857 17.1317 31.794 17.625 31.1875 17.625H19.5404L20.3772 23.5H33.0179C33.306 23.5 33.5878 23.5853 33.8278 23.7451C34.0679 23.905 34.2556 24.1324 34.3674 24.3988L39.6528 36.9895L42.1806 35.8027C42.738 35.563 43.3837 35.8221 43.6225 36.3812V36.3812ZM31.9551 33.7915C30.616 39.6661 25.3639 44.0625 19.1072 44.0625C11.8405 44.0625 5.92857 38.1325 5.92857 30.8437C5.92857 25.454 9.16154 20.808 13.7841 18.7525L13.3566 15.7527C7.30674 18.08 3 23.9664 3 30.8437C3 39.7524 10.2256 47 19.1072 47C25.5048 47 31.0428 43.2392 33.6403 37.8061L31.9551 33.7915V33.7915Z" fill="black"/>
</svg>
