<svg width="52" height="52" viewBox="0 0 52 52" fill="none" xmlns="http://www.w3.org/2000/svg">
<path d="M25.9999 31.7856C22.4103 31.7856 19.5 34.744 19.5 38.3928C19.5 42.0425 22.4112 45 25.9999 45C29.5904 45 32.4999 42.04 32.4999 38.3928C32.4999 34.744 29.5895 31.7856 25.9999 31.7856ZM25.9999 42.3571C23.8493 42.3571 22.1 40.579 22.1 38.3928C22.1 36.2067 23.8493 34.4285 25.9999 34.4285C28.1506 34.4285 29.8999 36.2067 29.8999 38.3928C29.8999 40.579 28.1506 42.3571 25.9999 42.3571ZM51.6918 18.402C37.3115 4.53928 14.7022 4.52607 0.30806 18.402C-0.093312 18.7893 -0.104687 19.4352 0.286935 19.8324L0.749245 20.3024C1.1238 20.6831 1.72993 20.6938 2.11424 20.323C15.5196 7.4068 36.5347 7.45883 49.8865 20.323C50.2708 20.693 50.8769 20.6823 51.2515 20.3024L51.7138 19.8324C52.1046 19.4352 52.0932 18.7893 51.6918 18.402ZM42.739 27.6818C33.2051 19.0528 18.7817 19.0643 9.26094 27.6818C8.85063 28.0534 8.82869 28.6984 9.20812 29.1023L9.65743 29.5805C10.0198 29.9662 10.6178 29.9901 11.0111 29.6358C19.5561 21.9236 32.4609 21.9376 40.9905 29.6358C41.3829 29.9901 41.9809 29.967 42.3441 29.5805L42.7934 29.1023C43.1712 28.6984 43.1493 28.0534 42.739 27.6818Z" fill="black"/>
</svg>
