<svg width="19" height="20" viewBox="0 0 19 20" fill="none" xmlns="http://www.w3.org/2000/svg">
<path fill-rule="evenodd" clip-rule="evenodd" d="M14.2001 7.78021C14.2001 3.99298 11.0961 0.923096 7.26672 0.923096C3.43738 0.923096 0.333374 3.99298 0.333374 7.78021C0.333374 11.5675 3.43738 14.6374 7.26672 14.6374C8.98401 14.6374 10.5627 14.015 11.7787 12.9916L12.0667 13.2765V14.1099L17.4 19.3846L19 17.8022L13.6667 12.5275H12.8241L12.536 12.2427C13.5707 11.04 14.2001 9.4787 14.2001 7.78021ZM2.46667 7.78027C2.46667 5.14288 4.59998 3.03302 7.26672 3.03302C9.93335 3.03302 12.0667 5.14288 12.0667 7.78027C12.0667 10.4177 9.93335 12.5275 7.26672 12.5275C4.59998 12.5275 2.46667 10.4177 2.46667 7.78027Z" fill="#757575"/>
</svg>
