<svg width="24" height="24" viewBox="0 0 24 24" fill="none" xmlns="http://www.w3.org/2000/svg">
<g opacity="0.54">
<path fill-rule="evenodd" clip-rule="evenodd" d="M10 0C4.47998 0 0 4.48001 0 10C0 15.52 4.47998 20 10 20C15.52 20 20 15.52 20 10C20 4.48001 15.52 0 10 0ZM6.20001 9C6.20001 6.90002 7.90002 5.20001 10 5.20001C12.1 5.20001 13.8 6.90002 13.8 9C13.8 12 10 15.5 10 15.5C10 15.5 6.20001 12 6.20001 9ZM8.5 9C8.5 9.82999 9.16998 10.5 10 10.5C10.83 10.5 11.5 9.82999 11.5 9C11.5 8.17001 10.83 7.5 10 7.5C9.16998 7.5 8.5 8.17001 8.5 9ZM2 10C2 14.42 5.58002 18 10 18C14.42 18 18 14.42 18 10C18 5.57999 14.42 2 10 2C5.58002 2 2 5.57999 2 10Z" transform="translate(2 2)" fill="black"/>
</g>
</svg>
