<svg width="24" height="24" viewBox="0 0 24 24" fill="none" xmlns="http://www.w3.org/2000/svg">
<g opacity="0.54">
<path fill-rule="evenodd" clip-rule="evenodd" d="M3 9C3 4.03003 7.03 0 12 0C16.97 0 21 4.03003 21 9C21 13.97 16.97 18 12 18C9.51001 18 7.26999 16.99 5.64001 15.36L7.06 13.9399C8.32001 15.21 10.07 16 12 16C15.87 16 19 12.87 19 9C19 5.13 15.87 2 12 2C8.13 2 5 5.13 5 9H8L3.95999 13.03L3.89001 12.89L0 9H3ZM11 10V5H12.5V9.25L16 11.33L15.28 12.54L11 10Z" transform="translate(1 3)" fill="black"/>
</g>
</svg>
