<svg width="23" height="20" viewBox="0 0 23 20" fill="none" xmlns="http://www.w3.org/2000/svg">
<path d="M0.821429 3.67347H22.1786C22.6323 3.67347 23 3.30801 23 2.85714V0.816327C23 0.365459 22.6323 0 22.1786 0H0.821429C0.367743 0 0 0.365459 0 0.816327V2.85714C0 3.30801 0.367743 3.67347 0.821429 3.67347ZM0.821429 11.8367H22.1786C22.6323 11.8367 23 11.4713 23 11.0204V8.97959C23 8.52872 22.6323 8.16327 22.1786 8.16327H0.821429C0.367743 8.16327 0 8.52872 0 8.97959V11.0204C0 11.4713 0.367743 11.8367 0.821429 11.8367ZM0.821429 20H22.1786C22.6323 20 23 19.6345 23 19.1837V17.1429C23 16.692 22.6323 16.3265 22.1786 16.3265H0.821429C0.367743 16.3265 0 16.692 0 17.1429V19.1837C0 19.6345 0.367743 20 0.821429 20Z" fill="white"/>
</svg>
