<svg width="49" height="49" viewBox="0 0 49 49" fill="none" xmlns="http://www.w3.org/2000/svg">
<path d="M22.6625 18.3333H18.375V14.0167C18.375 13.6775 18.0994 13.4 17.7625 13.4H14.0875C13.7506 13.4 13.475 13.6775 13.475 14.0167V18.3333H9.1875C8.85063 18.3333 8.575 18.6108 8.575 18.95V22.65C8.575 22.9892 8.85063 23.2667 9.1875 23.2667H13.475V27.5833C13.475 27.9225 13.7506 28.2 14.0875 28.2H17.7625C18.0994 28.2 18.375 27.9225 18.375 27.5833V23.2667H22.6625C22.9994 23.2667 23.275 22.9892 23.275 22.65V18.95C23.275 18.6108 22.9994 18.3333 22.6625 18.3333ZM48.3875 33.1333H46.55V24.8006C46.55 23.5056 46.0294 22.2337 45.1106 21.3165L38.687 14.8492C37.7836 13.9242 36.5203 13.4 35.2264 13.4H31.85V9.59208C31.85 7.61104 30.1503 6 28.0678 6H3.78219C1.69969 6 0 7.61104 0 9.59208V32.0079C0 33.989 1.69969 35.6 3.78219 35.6H5.0225C4.93828 36.0008 4.9 36.4094 4.9 36.8333C4.9 40.2404 7.64094 43 11.025 43C14.4091 43 17.15 40.2404 17.15 36.8333C17.15 36.4094 17.1041 36.0008 17.0275 35.6H31.9725C31.8883 36.0008 31.85 36.4094 31.85 36.8333C31.85 40.2404 34.5909 43 37.975 43C41.3591 43 44.1 40.2404 44.1 36.8333C44.1 36.4094 44.0541 36.0008 43.9775 35.6H48.3875C48.7244 35.6 49 35.3225 49 34.9833V33.75C49 33.4108 48.7244 33.1333 48.3875 33.1333ZM11.025 40.5333C8.99609 40.5333 7.35 38.876 7.35 36.8333C7.35 34.7906 8.99609 33.1333 11.025 33.1333C13.0539 33.1333 14.7 34.7906 14.7 36.8333C14.7 38.876 13.0539 40.5333 11.025 40.5333ZM29.4 33.1333H15.8944C14.7766 31.6456 13.0156 30.6667 11.025 30.6667C9.03438 30.6667 7.27344 31.6456 6.15563 33.1333H3.78219C3.04719 33.1333 2.45 32.6323 2.45 32.0079V9.59208C2.45 8.96771 3.04719 8.46667 3.78219 8.46667H28.0678C28.8028 8.46667 29.4 8.96771 29.4 9.59208V33.1333V33.1333ZM31.85 15.8667H35.2264C35.8695 15.8667 36.505 16.1287 36.9567 16.5912L43.3803 23.0585C43.4416 23.1202 43.4645 23.205 43.5181 23.2744H31.85V15.8667ZM37.975 40.5333C35.9461 40.5333 34.3 38.876 34.3 36.8333C34.3 34.7906 35.9461 33.1333 37.975 33.1333C40.0039 33.1333 41.65 34.7906 41.65 36.8333C41.65 38.876 40.0039 40.5333 37.975 40.5333ZM44.1 33.1333H42.8444C41.7266 31.6456 39.9656 30.6667 37.975 30.6667C35.9844 30.6667 34.2234 31.6456 33.1056 33.1333H31.85V25.7333H44.1V33.1333Z" fill="black"/>
</svg>
