<svg width="47" height="47" viewBox="0 0 47 47" fill="none" xmlns="http://www.w3.org/2000/svg">
<path d="M23.5 0C10.5213 0 0 10.5213 0 23.5C0 36.4787 10.5213 47 23.5 47C36.4787 47 47 36.4787 47 23.5C47 10.5213 36.4787 0 23.5 0ZM9.02713 37.9729C1.38754 30.3333 1.05333 18.1725 7.99426 10.1384L36.8617 39.0057C28.8259 45.9481 16.6652 45.6109 9.02713 37.9729V37.9729ZM39.0057 36.8616L10.1384 7.99426C18.1742 1.052 30.3348 1.38915 37.9729 9.02713C45.6125 16.6666 45.9467 28.8275 39.0057 36.8616V36.8616Z" fill="black"/>
</svg>
