<svg width="47" height="47" viewBox="0 0 47 47" fill="none" xmlns="http://www.w3.org/2000/svg">
<path d="M20.5714 9.82227V13.4941C20.5714 14.1025 20.0797 14.5957 19.4732 14.5957H15.8125C15.206 14.5957 14.7143 14.1025 14.7143 13.4941V9.82227C14.7143 9.21393 15.206 8.7207 15.8125 8.7207H19.4732C20.0797 8.7207 20.5714 9.21393 20.5714 9.82227ZM31.1875 8.7207H27.5268C26.9203 8.7207 26.4286 9.21393 26.4286 9.82227V13.4941C26.4286 14.1025 26.9203 14.5957 27.5268 14.5957H31.1875C31.794 14.5957 32.2857 14.1025 32.2857 13.4941V9.82227C32.2857 9.21393 31.794 8.7207 31.1875 8.7207ZM19.4732 17.5332H15.8125C15.206 17.5332 14.7143 18.0264 14.7143 18.6348V22.3066C14.7143 22.915 15.206 23.4082 15.8125 23.4082H19.4732C20.0797 23.4082 20.5714 22.915 20.5714 22.3066V18.6348C20.5714 18.0264 20.0797 17.5332 19.4732 17.5332ZM31.1875 17.5332H27.5268C26.9203 17.5332 26.4286 18.0264 26.4286 18.6348V22.3066C26.4286 22.915 26.9203 23.4082 27.5268 23.4082H31.1875C31.794 23.4082 32.2857 22.915 32.2857 22.3066V18.6348C32.2857 18.0264 31.794 17.5332 31.1875 17.5332ZM19.4732 26.3457H15.8125C15.206 26.3457 14.7143 26.8389 14.7143 27.4473V31.1191C14.7143 31.7275 15.206 32.2207 15.8125 32.2207H19.4732C20.0797 32.2207 20.5714 31.7275 20.5714 31.1191V27.4473C20.5714 26.8389 20.0797 26.3457 19.4732 26.3457ZM31.1875 26.3457H27.5268C26.9203 26.3457 26.4286 26.8389 26.4286 27.4473V31.1191C26.4286 31.7275 26.9203 32.2207 27.5268 32.2207H31.1875C31.794 32.2207 32.2857 31.7275 32.2857 31.1191V27.4473C32.2857 26.8389 31.794 26.3457 31.1875 26.3457ZM44 45.1641V47H3V45.1641C3 44.5557 3.49173 44.0625 4.09821 44.0625H5.92857V2.20312C5.92857 0.986357 6.91193 0 8.125 0H38.875C40.0881 0 41.0714 0.986357 41.0714 2.20312V44.0625H42.9018C43.5083 44.0625 44 44.5557 44 45.1641ZM38.1429 44.0625V2.9375H8.85714V44.0625H20.5714V36.2598C20.5714 35.6514 21.0632 35.1582 21.6696 35.1582H25.3304C25.9368 35.1582 26.4286 35.6514 26.4286 36.2598V44.0625H38.1429Z" fill="black"/>
</svg>
