<svg width="47" height="47" viewBox="0 0 47 47" fill="none" xmlns="http://www.w3.org/2000/svg">
<path d="M35.25 35.25C36.8721 35.25 38.1875 33.9346 38.1875 32.3125C38.1875 30.6904 36.8721 29.375 35.25 29.375C33.6279 29.375 32.3125 30.6904 32.3125 32.3125C32.3125 33.9346 33.6279 35.25 35.25 35.25ZM11.75 35.25C13.3721 35.25 14.6875 33.9346 14.6875 32.3125C14.6875 30.6904 13.3721 29.375 11.75 29.375C10.1279 29.375 8.8125 30.6904 8.8125 32.3125C8.8125 33.9346 10.1279 35.25 11.75 35.25ZM44.7969 11.75H44.0625V7.34375C44.0625 3.23125 34.9563 0 23.5 0C12.0437 0 2.9375 3.23125 2.9375 7.34375V11.75H2.20312C0.986816 11.75 0 12.7359 0 13.9531V21.2969C0 22.5132 0.986816 23.5 2.20312 23.5H2.9375V38.1875C2.9375 39.8096 4.25295 41.125 5.875 41.125V44.0625C5.875 45.6846 7.19045 47 8.8125 47H13.2188C14.8408 47 16.1562 45.6846 16.1562 44.0625V41.125H30.8438V44.0625C30.8438 45.6846 32.1592 47 33.7812 47H38.1875C39.8096 47 41.125 45.6846 41.125 44.0625V41.125C42.7471 41.125 44.0625 39.8096 44.0625 38.1875V23.5H44.7969C46.0132 23.5 47 22.5132 47 21.2969V13.9531C47 12.7359 46.0132 11.75 44.7969 11.75ZM5.87225 11.75H22.0312V23.5H5.87408L5.87225 11.75V11.75ZM13.2188 44.0625H8.8125V41.125H13.2188V44.0625ZM38.1875 44.0625H33.7812V41.125H38.1875V44.0625ZM41.125 38.1875H5.875L5.87408 26.4375H41.1259L41.125 38.1875ZM41.1259 23.5H24.9688V11.75H41.1278L41.1259 23.5ZM41.1278 8.8125H29.375V8.07812C29.375 6.8609 28.3882 5.875 27.1719 5.875H19.8281C18.6118 5.875 17.625 6.8609 17.625 8.07812V8.8125H5.87225V7.37221C6.17885 6.15039 12.063 2.9375 23.5 2.9375C34.937 2.9375 40.8212 6.15039 41.1278 7.37221V8.8125Z" fill="black"/>
</svg>
