<svg width="50" height="50" viewBox="0 0 50 50" fill="none" xmlns="http://www.w3.org/2000/svg">
<path d="M26.2326 22.1504C26.2326 23.7246 25.3212 24.6306 23.7153 24.6306H21.6059V19.6703H23.724C25.3212 19.6703 26.2326 20.5672 26.2326 22.1504V22.1504ZM30.3559 27.8795C30.3559 28.6391 30.9809 29.1333 31.9618 29.1333C33.2118 29.1333 34.1493 28.3004 34.1493 27.129V26.4243L32.1094 26.5616C30.9549 26.644 30.3559 27.0924 30.3559 27.8795ZM50 9.39286V41.6071C50 44.0324 48.1337 46 45.8333 46H4.16667C1.86632 46 0 44.0324 0 41.6071V9.39286C0 6.96763 1.86632 5 4.16667 5H45.8333C48.1337 5 50 6.96763 50 9.39286ZM11.0937 20.2103C11.8229 20.2743 12.5521 19.8259 13.0122 19.2585C13.4635 18.6728 13.7587 17.8857 13.6806 17.0895C13.0382 17.117 12.2396 17.5379 11.7795 18.1237C11.3628 18.627 11.0069 19.4415 11.0937 20.2103V20.2103ZM16.3542 27.0283C16.3368 27.01 14.6528 26.3328 14.6354 24.2828C14.6181 22.5714 15.9635 21.7478 16.0243 21.702C15.2604 20.5123 14.0799 20.3842 13.6719 20.3567C12.6128 20.2926 11.7101 20.9882 11.2066 20.9882C10.6944 20.9882 9.93056 20.3842 9.09722 20.4025C8.01215 20.4208 6.99653 21.0705 6.44965 22.1047C5.3125 24.173 6.15451 27.2297 7.25694 28.9136C7.79514 29.7464 8.44618 30.6616 9.29687 30.625C10.1042 30.5884 10.4253 30.0759 11.3976 30.0759C12.3785 30.0759 12.6563 30.625 13.5069 30.6158C14.3924 30.5975 14.9392 29.783 15.4861 28.9502C16.0851 27.9984 16.3368 27.0833 16.3542 27.0283ZM28.1076 22.1413C28.1076 19.7069 26.5017 18.0413 24.2101 18.0413H19.7656V30.5243H21.6059V26.2596H24.1493C26.4757 26.2596 28.1076 24.5757 28.1076 22.1413V22.1413ZM35.9201 24.3103C35.9201 22.5074 34.5486 21.3451 32.4479 21.3451C30.4948 21.3451 29.0538 22.5257 29.0017 24.1364H30.6597C30.7986 23.3676 31.4757 22.8643 32.3958 22.8643C33.5243 22.8643 34.1493 23.4134 34.1493 24.4384V25.1248L31.8576 25.2712C29.7222 25.4085 28.5677 26.3328 28.5677 27.9344C28.5677 29.5542 29.7569 30.625 31.467 30.625C32.6215 30.625 33.6892 30.0118 34.1753 29.0326H34.2101V30.5335H35.9115V24.3103H35.9201ZM44.7917 21.4641H42.9253L40.7639 28.8404H40.7292L38.5677 21.4641H36.6319L39.7483 30.5518L39.5833 31.1009C39.3056 32.0344 38.8455 32.4004 38.0295 32.4004C37.8819 32.4004 37.6042 32.3821 37.4913 32.373V33.8739C37.5955 33.9105 38.0556 33.9196 38.1944 33.9196C39.9913 33.9196 40.8333 33.1967 41.5712 31.0094L44.7917 21.4641Z" fill="black"/>
</svg>
