<svg width="50" height="50" viewBox="0 0 50 50" fill="none" xmlns="http://www.w3.org/2000/svg">
<path d="M16.1719 25.6915C16.1719 26.7536 15.3299 27.5632 14.2622 27.5632C13.4635 27.5632 12.8733 27.1105 12.8733 26.2574C12.8733 25.1953 13.6979 24.3422 14.7569 24.3422C15.5642 24.3422 16.1719 24.8384 16.1719 25.6915ZM6.98785 21.4694H6.57986C6.44965 21.4694 6.31944 21.5565 6.30208 21.7045L5.92882 24.0288L6.64062 24.0027C7.59549 24.0027 8.33333 23.8721 8.50694 22.7665C8.7066 21.6 7.96875 21.4694 6.98785 21.4694V21.4694ZM31.6406 21.4694H31.25C31.0937 21.4694 30.9896 21.5565 30.9722 21.7045L30.6076 24.0288L31.3021 24.0027C32.4306 24.0027 33.2118 23.7415 33.2118 22.4357C33.2031 21.5129 32.3785 21.4694 31.6406 21.4694V21.4694ZM50 10.1786V40.8214C50 43.1283 48.1337 45 45.8333 45H4.16667C1.86632 45 0 43.1283 0 40.8214V10.1786C0 7.87165 1.86632 6 4.16667 6H45.8333C48.1337 6 50 7.87165 50 10.1786ZM11.1372 21.9656C11.1372 20.1375 9.7309 19.5281 8.125 19.5281H4.65278C4.43576 19.5281 4.21875 19.7022 4.20139 19.9373L2.77778 28.8254C2.75174 28.9996 2.88194 29.1737 3.05556 29.1737H4.70486C4.93924 29.1737 5.15625 28.9212 5.18229 28.6775L5.57292 26.3618C5.65972 25.735 6.71875 25.9527 7.13542 25.9527C9.61805 25.9527 11.1372 24.4728 11.1372 21.9656V21.9656ZM18.4462 22.7317H16.7969C16.467 22.7317 16.4497 23.2105 16.4323 23.4455C15.9288 22.7056 15.1997 22.575 14.375 22.575C12.2483 22.575 10.625 24.4467 10.625 26.5098C10.625 28.2074 11.684 29.3129 13.3767 29.3129C14.158 29.3129 15.1302 28.8864 15.6771 28.277C15.6337 28.4076 15.5903 28.6862 15.5903 28.8167C15.5903 29.017 15.6771 29.165 15.8681 29.165H17.3611C17.5955 29.165 17.7951 28.9125 17.8385 28.6688L18.724 23.0712C18.75 22.9058 18.6198 22.7317 18.4462 22.7317ZM21.9618 31.2542L27.4913 23.1931C27.5347 23.1496 27.5347 23.106 27.5347 23.0451C27.5347 22.8971 27.4045 22.7404 27.2569 22.7404H25.5903C25.4427 22.7404 25.2865 22.8275 25.1997 22.958L22.8993 26.3531L21.9444 23.0886C21.875 22.8971 21.684 22.7404 21.467 22.7404H19.8437C19.6962 22.7404 19.566 22.8971 19.566 23.0451C19.566 23.1496 21.2587 27.9897 21.4062 28.4511C21.1719 28.7819 19.6267 30.9408 19.6267 31.202C19.6267 31.3587 19.7569 31.4806 19.9045 31.4806H21.5712C21.7274 31.4719 21.875 31.3848 21.9618 31.2542V31.2542ZM35.7899 21.9656C35.7899 20.1375 34.3837 19.5281 32.7778 19.5281H29.3316C29.0972 19.5281 28.8802 19.7022 28.8542 19.9373L27.4479 28.8167C27.4306 28.9908 27.5608 29.165 27.7257 29.165H29.5052C29.6788 29.165 29.809 29.0344 29.8524 28.8864L30.2431 26.3618C30.3299 25.735 31.3889 25.9527 31.8056 25.9527C34.2708 25.9527 35.7899 24.4728 35.7899 21.9656ZM43.099 22.7317H41.4497C41.1198 22.7317 41.1024 23.2105 41.0764 23.4455C40.599 22.7056 39.8611 22.575 39.0191 22.575C36.8924 22.575 35.2691 24.4467 35.2691 26.5098C35.2691 28.2074 36.3281 29.3129 38.0208 29.3129C38.8281 29.3129 39.8003 28.8864 40.3212 28.277C40.2951 28.4076 40.2344 28.6862 40.2344 28.8167C40.2344 29.017 40.3212 29.165 40.5122 29.165H42.0139C42.2483 29.165 42.4479 28.9125 42.4913 28.6688L43.3767 23.0712C43.4028 22.9058 43.2726 22.7317 43.099 22.7317V22.7317ZM47.2222 19.8328C47.2222 19.6587 47.092 19.5281 46.9444 19.5281H45.3385C45.2083 19.5281 45.0781 19.6326 45.0608 19.7632L43.6545 28.8167L43.6285 28.8603C43.6285 29.017 43.7587 29.165 43.9323 29.165H45.3646C45.5816 29.165 45.7986 28.9125 45.816 28.6688L47.2222 19.8589V19.8328V19.8328ZM39.4097 24.3422C38.3507 24.3422 37.526 25.1866 37.526 26.2574C37.526 27.1018 38.1337 27.5632 38.9323 27.5632C39.974 27.5632 40.816 26.7623 40.816 25.6915C40.8247 24.8384 40.217 24.3422 39.4097 24.3422Z" fill="black"/>
</svg>
