<svg width="47" height="47" viewBox="0 0 47 47" fill="none" xmlns="http://www.w3.org/2000/svg">
<path d="M23.5 0C10.5181 0 0 10.5181 0 23.5C0 36.4819 10.5181 47 23.5 47C36.4819 47 47 36.4819 47 23.5C47 10.5181 36.4819 0 23.5 0ZM43.9677 23.5C43.9677 34.7478 34.8615 43.9677 23.5 43.9677C12.2522 43.9677 3.03226 34.8615 3.03226 23.5C3.03226 12.2522 12.1385 3.03226 23.5 3.03226C34.7478 3.03226 43.9677 12.1385 43.9677 23.5ZM29.8583 31.8671L22.1639 26.2764C21.8702 26.0585 21.6996 25.7173 21.6996 25.3573V10.2339C21.6996 9.60847 22.2113 9.09677 22.8367 9.09677H24.1633C24.7887 9.09677 25.3004 9.60847 25.3004 10.2339V24.097L31.9808 28.9581C32.4925 29.3276 32.5968 30.0383 32.2272 30.55L31.4502 31.6208C31.0806 32.123 30.37 32.2367 29.8583 31.8671V31.8671Z" fill="black"/>
</svg>
