<svg width="50" height="50" viewBox="0 0 50 50" fill="none" xmlns="http://www.w3.org/2000/svg">
<path d="M45.8333 6H4.16667C1.86632 6 0 7.87165 0 10.1786V40.8214C0 43.1283 1.86632 45 4.16667 45H45.8333C48.1337 45 50 43.1283 50 40.8214V10.1786C50 7.87165 48.1337 6 45.8333 6ZM4.16667 8.78571H45.8333C46.5972 8.78571 47.2222 9.4125 47.2222 10.1786V14.3571H2.77778V10.1786C2.77778 9.4125 3.40278 8.78571 4.16667 8.78571ZM45.8333 42.2143H4.16667C3.40278 42.2143 2.77778 41.5875 2.77778 40.8214V22.7143H47.2222V40.8214C47.2222 41.5875 46.5972 42.2143 45.8333 42.2143ZM16.6667 34.9018V35.5982C16.6667 36.1728 16.1979 36.6429 15.625 36.6429H9.375C8.80208 36.6429 8.33333 36.1728 8.33333 35.5982V34.9018C8.33333 34.3272 8.80208 33.8571 9.375 33.8571H15.625C16.1979 33.8571 16.6667 34.3272 16.6667 34.9018ZM33.3333 34.9018V35.5982C33.3333 36.1728 32.8646 36.6429 32.2917 36.6429H20.4861C19.9132 36.6429 19.4444 36.1728 19.4444 35.5982V34.9018C19.4444 34.3272 19.9132 33.8571 20.4861 33.8571H32.2917C32.8646 33.8571 33.3333 34.3272 33.3333 34.9018Z" fill="black"/>
</svg>
