<svg width="47" height="47" viewBox="0 0 47 47" fill="none" xmlns="http://www.w3.org/2000/svg">
<path d="M32.3778 20.375H35.5111C36.0333 20.375 36.5556 19.85 36.5556 19.325V16.175C36.5556 15.65 36.0333 15.125 35.5111 15.125H32.3778C31.8556 15.125 31.3333 15.65 31.3333 16.175V19.325C31.3333 19.85 31.8556 20.375 32.3778 20.375ZM21.9333 12.5H25.0667C25.5889 12.5 26.1111 11.975 26.1111 11.45V8.3C26.1111 7.775 25.5889 7.25 25.0667 7.25H21.9333C21.4111 7.25 20.8889 7.775 20.8889 8.3V11.45C20.8889 11.975 21.4111 12.5 21.9333 12.5V12.5ZM32.3778 12.5H35.5111C36.0333 12.5 36.5556 11.975 36.5556 11.45V8.3C36.5556 7.775 36.0333 7.25 35.5111 7.25H32.3778C31.8556 7.25 31.3333 7.775 31.3333 8.3V11.45C31.3333 11.975 31.8556 12.5 32.3778 12.5V12.5ZM11.4889 12.5H14.6222C15.1444 12.5 15.6667 11.975 15.6667 11.45V8.3C15.6667 7.775 15.1444 7.25 14.6222 7.25H11.4889C10.9667 7.25 10.4444 7.775 10.4444 8.3V11.45C10.4444 11.975 10.9667 12.5 11.4889 12.5V12.5ZM21.9333 20.375H25.0667C25.5889 20.375 26.1111 19.85 26.1111 19.325V16.175C26.1111 15.65 25.5889 15.125 25.0667 15.125H21.9333C21.4111 15.125 20.8889 15.65 20.8889 16.175V19.325C20.8889 19.85 21.4111 20.375 21.9333 20.375ZM46.3472 4.625C46.7079 4.625 47 4.33133 47 3.96875V2.65625C47 2.29367 46.7079 2 46.3472 2H0.652778C0.292118 2 0 2.29367 0 2.65625V3.96875C0 4.33133 0.292118 4.625 0.652778 4.625H2.60948V41.375H0.652778C0.292118 41.375 0 41.6687 0 42.0312V43.3438C0 43.7063 0.292118 44 0.652778 44H46.3472C46.7079 44 47 43.7063 47 43.3438V42.0312C47 41.6687 46.7079 41.375 46.3472 41.375H44.3889V4.625H46.3472ZM26.1111 41.375H20.8889V34.8125C20.8889 34.0873 21.4731 33.5 22.1944 33.5H24.8056C25.5269 33.5 26.1111 34.0873 26.1111 34.8125V41.375ZM41.7778 41.375H28.7222V34.8125C28.7222 32.6411 26.9654 30.875 24.8056 30.875H22.1944C20.0346 30.875 18.2778 32.6411 18.2778 34.8125V41.375H5.22059V4.625H41.7778V41.375ZM11.4889 20.375H14.6222C15.1444 20.375 15.6667 19.85 15.6667 19.325V16.175C15.6667 15.65 15.1444 15.125 14.6222 15.125H11.4889C10.9667 15.125 10.4444 15.65 10.4444 16.175V19.325C10.4444 19.85 10.9667 20.375 11.4889 20.375ZM13.6357 33.308L14.9617 33.4934C15.3125 33.5427 15.6234 33.3097 15.7018 32.9717C16.5145 29.4583 19.7604 26.8784 23.5008 26.8784C27.2412 26.8784 30.4864 29.4583 31.2999 32.9717C31.3782 33.3097 31.6891 33.5427 32.04 33.4934L33.3659 33.308C33.7413 33.2555 34.0105 32.9045 33.9322 32.5419C32.9016 27.7816 28.5362 24.2715 23.5 24.2715C18.4638 24.2715 14.0984 27.7816 13.0694 32.5411C12.9911 32.9045 13.2604 33.2555 13.6357 33.308V33.308Z" fill="black"/>
</svg>
