<svg width="60" height="60" viewBox="0 0 60 60" fill="none" xmlns="http://www.w3.org/2000/svg">
<path d="M16.075 27.9757C16.125 26.2259 16.225 24.3262 16.375 22.2764C16.5749 20.1767 16.8749 18.0769 17.2748 15.9772C17.6748 13.8774 18.1997 11.8527 18.8496 9.90294C19.5496 7.95318 20.4245 6.2284 21.4743 4.72858C22.5742 3.22877 23.874 2.05392 25.3738 1.20402C26.9236 0.354124 28.7734 -0.0458271 30.9232 0.00416604C33.4728 0.104155 35.6226 0.854063 37.3724 2.25389C39.1221 3.65372 40.522 5.60347 41.5718 8.10317C42.6217 10.6029 43.3716 13.6525 43.8216 17.252C44.2715 20.8016 44.4965 24.8011 44.4965 29.2505C44.4965 32.9501 44.3715 36.6246 44.1215 40.2742C43.9215 43.8737 43.3716 47.1483 42.4717 50.098C41.5718 52.9976 40.222 55.3473 38.4222 57.1471C36.6224 58.9969 34.1228 59.9467 30.9232 59.9967C28.6734 60.0467 26.7237 59.5218 25.0739 58.4219C23.4741 57.3721 22.0992 55.9972 20.9494 54.2974C19.8495 52.5477 18.9496 50.5479 18.2497 48.2982C17.5998 45.9985 17.0999 43.6738 16.7499 41.324C16.4 38.9243 16.175 36.5746 16.075 34.2749C15.975 31.9752 15.975 29.8755 16.075 27.9757ZM30.6982 5.92844C29.2484 5.92844 28.0235 6.70334 27.0236 8.25314C26.0738 9.75296 25.2988 11.6277 24.6989 13.8774C24.099 16.1272 23.6491 18.5519 23.3491 21.1515C23.0491 23.7012 22.8991 26.0259 22.8991 28.1257C22.8991 31.2253 22.9741 34.3249 23.1241 37.4245C23.3241 40.5242 23.724 43.3238 24.324 45.8235C24.9239 48.2732 25.7488 50.2979 26.7987 51.8977C27.8485 53.4476 29.2484 54.2225 30.9981 54.2225C32.398 54.2225 33.5478 53.6725 34.4477 52.5727C35.3476 51.4728 36.0225 49.848 36.4725 47.6983C36.9724 45.5485 37.2974 42.8989 37.4473 39.7492C37.6473 36.5996 37.7473 33.0001 37.7473 28.9506C37.7473 26.1009 37.6223 23.3013 37.3724 20.5516C37.1224 17.752 36.6974 15.2773 36.0975 13.1275C35.5476 10.9778 34.8227 9.25302 33.9228 7.95318C33.0229 6.60335 31.948 5.92844 30.6982 5.92844Z" fill="black"/>
</svg>
