<svg width="78" height="78" viewBox="0 0 78 78" fill="none" xmlns="http://www.w3.org/2000/svg">
<path d="M0.0481437 37.1842C0.0802395 36.0468 0.144431 34.812 0.240718 33.4797C0.369101 32.1148 0.561676 30.75 0.818442 29.3852C1.07521 28.0203 1.41221 26.7043 1.82946 25.4369C2.2788 24.1696 2.84048 23.0485 3.51449 22.0736C4.22059 21.0987 5.05508 20.335 6.01796 19.7826C7.01293 19.2302 8.20047 18.9702 9.58059 19.0027C11.2175 19.0677 12.5976 19.5551 13.7209 20.465C14.8443 21.3749 15.743 22.6423 16.417 24.2671C17.091 25.8919 17.5724 27.8741 17.8613 30.2138C18.1502 32.521 18.2946 35.1207 18.2946 38.0129C18.2946 40.4176 18.2143 42.806 18.0539 45.1782C17.9255 47.5179 17.5724 49.6464 16.9947 51.5637C16.417 53.4484 15.5504 54.9758 14.395 56.1456C13.2395 57.348 11.6347 57.9654 9.58059 57.9979C8.13628 58.0304 6.88454 57.6892 5.82538 56.9743C4.79832 56.2918 3.91568 55.3982 3.17748 54.2933C2.47137 53.156 1.89365 51.8561 1.44431 50.3938C1.02706 48.899 0.706107 47.3879 0.481437 45.8606C0.256766 44.3008 0.112335 42.7735 0.0481437 41.2787C-0.0160479 39.7839 -0.0160479 38.4191 0.0481437 37.1842ZM9.43615 22.8535C8.50538 22.8535 7.71903 23.3572 7.07712 24.3645C6.4673 25.3394 5.96981 26.558 5.58466 28.0203C5.19951 29.4827 4.91065 31.0587 4.71808 32.7485C4.5255 34.4058 4.42922 35.9169 4.42922 37.2817C4.42922 39.2964 4.47736 41.3112 4.57365 43.3259C4.70203 45.3407 4.9588 47.1605 5.34394 48.7853C5.72909 50.3776 6.25867 51.6937 6.93269 52.7335C7.6067 53.7409 8.50538 54.2446 9.62873 54.2446C10.5274 54.2446 11.2656 53.8871 11.8433 53.1722C12.4211 52.4573 12.8544 51.4012 13.1432 50.0039C13.4642 48.6065 13.6728 46.8843 13.7691 44.837C13.8975 42.7898 13.9617 40.4501 13.9617 37.8179C13.9617 35.9656 13.8814 34.1458 13.7209 32.3586C13.5605 30.5388 13.2876 28.9302 12.9025 27.5329C12.5494 26.1356 12.0841 25.0145 11.5063 24.1696C10.9286 23.2922 10.2385 22.8535 9.43615 22.8535Z" fill="black"/>
<path d="M19.95 37.1842C19.9821 36.0468 20.0463 34.812 20.1426 33.4797C20.271 32.1148 20.4635 30.75 20.7203 29.3852C20.9771 28.0203 21.3141 26.7043 21.7313 25.4369C22.1807 24.1696 22.7423 23.0485 23.4163 22.0736C24.1224 21.0987 24.9569 20.335 25.9198 19.7826C26.9148 19.2302 28.1023 18.9702 29.4824 19.0027C31.1193 19.0677 32.4994 19.5551 33.6228 20.465C34.7461 21.3749 35.6448 22.6423 36.3188 24.2671C36.9929 25.8919 37.4743 27.8741 37.7631 30.2138C38.052 32.521 38.1964 35.1207 38.1964 38.0129C38.1964 40.4176 38.1162 42.806 37.9557 45.1782C37.8273 47.5179 37.4743 49.6464 36.8966 51.5637C36.3188 53.4484 35.4523 54.9758 34.2968 56.1456C33.1414 57.348 31.5366 57.9654 29.4824 57.9979C28.0381 58.0304 26.7864 57.6892 25.7272 56.9743C24.7002 56.2918 23.8175 55.3982 23.0793 54.2933C22.3732 53.156 21.7955 51.8561 21.3462 50.3938C20.9289 48.899 20.608 47.3879 20.3833 45.8606C20.1586 44.3008 20.0142 42.7735 19.95 41.2787C19.8858 39.7839 19.8858 38.4191 19.95 37.1842ZM29.338 22.8535C28.4072 22.8535 27.6209 23.3572 26.979 24.3645C26.3692 25.3394 25.8717 26.558 25.4865 28.0203C25.1014 29.4827 24.8125 31.0587 24.6199 32.7485C24.4274 34.4058 24.3311 35.9169 24.3311 37.2817C24.3311 39.2964 24.3792 41.3112 24.4755 43.3259C24.6039 45.3407 24.8607 47.1605 25.2458 48.7853C25.6309 50.3776 26.1605 51.6937 26.8345 52.7335C27.5086 53.7409 28.4072 54.2446 29.5306 54.2446C30.4293 54.2446 31.1675 53.8871 31.7452 53.1722C32.3229 52.4573 32.7562 51.4012 33.0451 50.0039C33.366 48.6065 33.5747 46.8843 33.6709 44.837C33.7993 42.7898 33.8635 40.4501 33.8635 37.8179C33.8635 35.9656 33.7833 34.1458 33.6228 32.3586C33.4623 30.5388 33.1895 28.9302 32.8044 27.5329C32.4513 26.1356 31.9859 25.0145 31.4082 24.1696C30.8305 23.2922 30.1404 22.8535 29.338 22.8535Z" fill="black"/>
<path d="M39.8519 37.1842C39.884 36.0468 39.9481 34.812 40.0444 33.4797C40.1728 32.1148 40.3654 30.75 40.6222 29.3852C40.8789 28.0203 41.2159 26.7043 41.6332 25.4369C42.0825 24.1696 42.6442 23.0485 43.3182 22.0736C44.0243 21.0987 44.8588 20.335 45.8217 19.7826C46.8166 19.2302 48.0042 18.9702 49.3843 19.0027C51.0212 19.0677 52.4013 19.5551 53.5247 20.465C54.648 21.3749 55.5467 22.6423 56.2207 24.2671C56.8947 25.8919 57.3761 27.8741 57.665 30.2138C57.9539 32.521 58.0983 35.1207 58.0983 38.0129C58.0983 40.4176 58.0181 42.806 57.8576 45.1782C57.7292 47.5179 57.3761 49.6464 56.7984 51.5637C56.2207 53.4484 55.3541 54.9758 54.1987 56.1456C53.0432 57.348 51.4384 57.9654 49.3843 57.9979C47.94 58.0304 46.6883 57.6892 45.6291 56.9743C44.602 56.2918 43.7194 55.3982 42.9812 54.2933C42.2751 53.156 41.6974 51.8561 41.248 50.3938C40.8308 48.899 40.5098 47.3879 40.2851 45.8606C40.0605 44.3008 39.916 42.7735 39.8519 41.2787C39.7877 39.7839 39.7877 38.4191 39.8519 37.1842ZM49.2399 22.8535C48.3091 22.8535 47.5227 23.3572 46.8808 24.3645C46.271 25.3394 45.7735 26.558 45.3884 28.0203C45.0032 29.4827 44.7144 31.0587 44.5218 32.7485C44.3292 34.4058 44.2329 35.9169 44.2329 37.2817C44.2329 39.2964 44.2811 41.3112 44.3774 43.3259C44.5057 45.3407 44.7625 47.1605 45.1477 48.7853C45.5328 50.3776 46.0624 51.6937 46.7364 52.7335C47.4104 53.7409 48.3091 54.2446 49.4324 54.2446C50.3311 54.2446 51.0693 53.8871 51.647 53.1722C52.2248 52.4573 52.6581 51.4012 52.9469 50.0039C53.2679 48.6065 53.4765 46.8843 53.5728 44.837C53.7012 42.7898 53.7654 40.4501 53.7654 37.8179C53.7654 35.9656 53.6851 34.1458 53.5247 32.3586C53.3642 30.5388 53.0914 28.9302 52.7062 27.5329C52.3532 26.1356 51.8878 25.0145 51.31 24.1696C50.7323 23.2922 50.0423 22.8535 49.2399 22.8535Z" fill="black"/>
<path d="M59.7532 37.1842C59.7853 36.0468 59.8495 34.812 59.9458 33.4797C60.0742 32.1148 60.2668 30.75 60.5235 29.3852C60.7803 28.0203 61.1173 26.7043 61.5345 25.4369C61.9839 24.1696 62.5456 23.0485 63.2196 22.0736C63.9257 21.0987 64.7602 20.335 65.723 19.7826C66.718 19.2302 67.9055 18.9702 69.2857 19.0027C70.9225 19.0677 72.3027 19.5551 73.426 20.465C74.5494 21.3749 75.4481 22.6423 76.1221 24.2671C76.7961 25.8919 77.2775 27.8741 77.5664 30.2138C77.8552 32.521 77.9997 35.1207 77.9997 38.0129C77.9997 40.4176 77.9194 42.806 77.7589 45.1782C77.6306 47.5179 77.2775 49.6464 76.6998 51.5637C76.1221 53.4484 75.2555 54.9758 74.1 56.1456C72.9446 57.348 71.3398 57.9654 69.2857 57.9979C67.8414 58.0304 66.5896 57.6892 65.5305 56.9743C64.5034 56.2918 63.6208 55.3982 62.8826 54.2933C62.1765 53.156 61.5987 51.8561 61.1494 50.3938C60.7321 48.899 60.4112 47.3879 60.1865 45.8606C59.9618 44.3008 59.8174 42.7735 59.7532 41.2787C59.689 39.7839 59.689 38.4191 59.7532 37.1842ZM69.1412 22.8535C68.2105 22.8535 67.4241 23.3572 66.7822 24.3645C66.1724 25.3394 65.6749 26.558 65.2897 28.0203C64.9046 29.4827 64.6157 31.0587 64.4232 32.7485C64.2306 34.4058 64.1343 35.9169 64.1343 37.2817C64.1343 39.2964 64.1824 41.3112 64.2787 43.3259C64.4071 45.3407 64.6639 47.1605 65.049 48.7853C65.4342 50.3776 65.9638 51.6937 66.6378 52.7335C67.3118 53.7409 68.2105 54.2446 69.3338 54.2446C70.2325 54.2446 70.9707 53.8871 71.5484 53.1722C72.1261 52.4573 72.5594 51.4012 72.8483 50.0039C73.1693 48.6065 73.3779 46.8843 73.4742 44.837C73.6025 42.7898 73.6667 40.4501 73.6667 37.8179C73.6667 35.9656 73.5865 34.1458 73.426 32.3586C73.2655 30.5388 72.9927 28.9302 72.6076 27.5329C72.2545 26.1356 71.7891 25.0145 71.2114 24.1696C70.6337 23.2922 69.9436 22.8535 69.1412 22.8535Z" fill="black"/>
</svg>
