<svg width="71" height="71" viewBox="0 0 71 71" fill="none" xmlns="http://www.w3.org/2000/svg">
<path d="M0.0575626 34.448C0.0959378 33.1065 0.172688 31.6501 0.287813 30.0786C0.441314 28.4688 0.671564 26.859 0.978565 25.2492C1.28557 23.6394 1.6885 22.0871 2.18738 20.5923C2.72463 19.0974 3.3962 17.7751 4.20207 16.6252C5.04632 15.4754 6.04408 14.5747 7.19533 13.9231C8.38496 13.2715 9.80483 12.9649 11.455 13.0032C13.4121 13.0799 15.0622 13.6548 16.4054 14.728C17.7485 15.8012 18.823 17.296 19.6289 19.2124C20.4347 21.1289 21.0104 23.4669 21.3557 26.2266C21.7011 28.9479 21.8738 32.0142 21.8738 35.4254C21.8738 38.2617 21.7779 41.0789 21.586 43.8769C21.4325 46.6365 21.0104 49.1471 20.3196 51.4084C19.6289 53.6315 18.5927 55.4329 17.2112 56.8128C15.8297 58.2309 13.911 58.9592 11.455 58.9975C9.72808 59.0358 8.23146 58.6334 6.96508 57.7901C5.73708 56.9852 4.68176 55.9312 3.79913 54.628C2.95488 53.2865 2.26413 51.7534 1.72688 50.0286C1.228 48.2655 0.844252 46.4832 0.575626 44.6818C0.307001 42.842 0.134313 41.0406 0.0575626 39.2774C-0.0191875 37.5143 -0.0191875 35.9045 0.0575626 34.448ZM11.2823 17.5451C10.1694 17.5451 9.22921 18.1392 8.46171 19.3274C7.73258 20.4773 7.13777 21.9146 6.67727 23.6394C6.21676 25.3642 5.87139 27.2231 5.64114 29.2162C5.41089 31.1709 5.29576 32.9532 5.29576 34.563C5.29576 36.9394 5.35333 39.3158 5.46845 41.6921C5.62195 44.0685 5.92895 46.2149 6.38945 48.1313C6.84995 50.0094 7.48314 51.5618 8.28902 52.7883C9.0949 53.9765 10.1694 54.5705 11.5125 54.5705C12.587 54.5705 13.4697 54.1489 14.1604 53.3057C14.8512 52.4625 15.3692 51.2168 15.7146 49.5687C16.0983 47.9205 16.3478 45.8891 16.4629 43.4744C16.6164 41.0597 16.6932 38.3001 16.6932 35.1954C16.6932 33.0107 16.5972 30.8643 16.4054 28.7562C16.2135 26.6098 15.8873 24.7126 15.4268 23.0644C15.0047 21.4163 14.4482 20.094 13.7575 19.0974C13.0667 18.0626 12.2417 17.5451 11.2823 17.5451Z" fill="black"/>
<path d="M24.6206 34.448C24.6589 33.1065 24.7357 31.6501 24.8508 30.0786C25.0043 28.4688 25.2346 26.859 25.5416 25.2492C25.8486 23.6394 26.2515 22.0871 26.7504 20.5923C27.2876 19.0974 27.9592 17.7751 28.7651 16.6252C29.6093 15.4754 30.6071 14.5747 31.7583 13.9231C32.9479 13.2715 34.3678 12.9649 36.018 13.0032C37.9751 13.0799 39.6252 13.6548 40.9683 14.728C42.3115 15.8012 43.386 17.296 44.1918 19.2124C44.9977 21.1289 45.5734 23.4669 45.9187 26.2266C46.2641 28.9479 46.4368 32.0142 46.4368 35.4254C46.4368 38.2617 46.3409 41.0789 46.149 43.8769C45.9955 46.6365 45.5733 49.1471 44.8826 51.4084C44.1918 53.6315 43.1557 55.4329 41.7742 56.8128C40.3927 58.2309 38.474 58.9592 36.018 58.9975C34.2911 59.0358 32.7944 58.6334 31.5281 57.7901C30.3001 56.9852 29.2447 55.9312 28.3621 54.628C27.5179 53.2865 26.8271 51.7534 26.2899 50.0286C25.791 48.2655 25.4072 46.4832 25.1386 44.6818C24.87 42.842 24.6973 41.0406 24.6206 39.2774C24.5438 37.5143 24.5438 35.9045 24.6206 34.448ZM35.8453 17.5451C34.7324 17.5451 33.7922 18.1392 33.0247 19.3274C32.2956 20.4773 31.7008 21.9146 31.2403 23.6394C30.7798 25.3642 30.4344 27.2231 30.2041 29.2162C29.9739 31.1709 29.8588 32.9532 29.8588 34.563C29.8588 36.9394 29.9163 39.3158 30.0314 41.6921C30.1849 44.0685 30.4919 46.2149 30.9524 48.1313C31.4129 50.0094 32.0461 51.5618 32.852 52.7883C33.6579 53.9765 34.7324 54.5705 36.0755 54.5705C37.15 54.5705 38.0326 54.1489 38.7234 53.3057C39.4141 52.4625 39.9322 51.2168 40.2776 49.5687C40.6613 47.9205 40.9108 45.8891 41.0259 43.4744C41.1794 41.0597 41.2562 38.3001 41.2562 35.1954C41.2562 33.0107 41.1602 30.8643 40.9683 28.7562C40.7765 26.6098 40.4503 24.7126 39.9898 23.0644C39.5676 21.4163 39.0112 20.094 38.3205 19.0974C37.6297 18.0626 36.8046 17.5451 35.8453 17.5451Z" fill="black"/>
<path d="M49.184 34.448C49.2224 33.1065 49.2992 31.6501 49.4143 30.0786C49.5678 28.4688 49.798 26.859 50.105 25.2492C50.412 23.6394 50.815 22.0871 51.3138 20.5923C51.8511 19.0974 52.5227 17.7751 53.3285 16.6252C54.1728 15.4754 55.1705 14.5747 56.3218 13.9231C57.5114 13.2715 58.9313 12.9649 60.5814 13.0032C62.5386 13.0799 64.1887 13.6548 65.5318 14.728C66.8749 15.8012 67.9494 17.296 68.7553 19.2124C69.5612 21.1289 70.1368 23.4669 70.4822 26.2266C70.8276 28.9479 71.0003 32.0142 71.0003 35.4254C71.0003 38.2617 70.9043 41.0789 70.7125 43.8769C70.559 46.6365 70.1368 49.1471 69.4461 51.4084C68.7553 53.6315 67.7192 55.4329 66.3377 56.8128C64.9562 58.2309 63.0374 58.9592 60.5814 58.9975C58.8545 59.0358 57.3579 58.6334 56.0915 57.7901C54.8635 56.9852 53.8082 55.9312 52.9256 54.628C52.0813 53.2865 51.3906 51.7534 50.8533 50.0286C50.3545 48.2655 49.9707 46.4832 49.7021 44.6818C49.4335 42.842 49.2608 41.0406 49.184 39.2774C49.1073 37.5143 49.1073 35.9045 49.184 34.448ZM60.4087 17.5451C59.2959 17.5451 58.3557 18.1392 57.5882 19.3274C56.859 20.4773 56.2642 21.9146 55.8037 23.6394C55.3432 25.3642 54.9979 27.2231 54.7676 29.2162C54.5374 31.1709 54.4222 32.9532 54.4222 34.563C54.4222 36.9394 54.4798 39.3158 54.5949 41.6921C54.7484 44.0685 55.0554 46.2149 55.5159 48.1313C55.9764 50.0094 56.6096 51.5618 57.4155 52.7883C58.2214 53.9765 59.2959 54.5705 60.639 54.5705C61.7135 54.5705 62.5961 54.1489 63.2869 53.3057C63.9776 52.4625 64.4957 51.2168 64.8411 49.5687C65.2248 47.9205 65.4743 45.8891 65.5894 43.4744C65.7429 41.0597 65.8196 38.3001 65.8196 35.1954C65.8196 33.0107 65.7237 30.8643 65.5318 28.7562C65.3399 26.6098 65.0138 24.7126 64.5532 23.0644C64.1311 21.4163 63.5747 20.094 62.8839 19.0974C62.1932 18.0626 61.3681 17.5451 60.4087 17.5451Z" fill="black"/>
</svg>
