<svg width="60" height="60" viewBox="0 0 60 60" fill="none" xmlns="http://www.w3.org/2000/svg">
<path d="M20.7601 45.8304C21.5793 44.2728 22.3473 42.9161 23.0641 41.7604C23.8321 40.6048 24.6001 39.1978 25.3681 37.5397C25.8289 36.5348 26.3921 35.4796 27.0577 34.3742C27.7233 33.2687 28.4145 32.0628 29.1314 30.7564C29.5922 29.9022 30.0786 28.9726 30.5906 27.9677C31.1026 26.9125 31.6146 25.8825 32.1266 24.8775C32.6386 23.8223 33.0994 22.7923 33.509 21.7873C33.9698 20.7824 34.3538 19.9031 34.661 19.1494C34.917 18.3454 35.1474 17.5164 35.3522 16.6622C35.557 15.7577 35.6594 14.6774 35.6594 13.4213C35.6594 11.5119 35.301 9.90399 34.5842 8.59757C33.8674 7.24091 32.3314 6.43697 29.9762 6.18573C27.9793 5.98475 26.3665 6.38672 25.1377 7.39165C23.9601 8.34634 22.8337 9.62763 21.7585 11.2355C21.1953 11.939 20.5553 12.3912 19.8385 12.5922C19.1728 12.7429 18.5072 12.6927 17.8416 12.4415C17.0736 12.14 16.4592 11.5873 15.9984 10.7833C15.5888 9.97936 15.64 9.07492 16.152 8.06999C17.3296 5.60789 18.9936 3.67339 21.1441 2.26648C23.3457 0.859576 26.2897 0.105876 29.9762 0.00538346C31.8706 -0.0448626 33.5602 0.256617 35.045 0.909822C36.581 1.51278 37.8867 2.41723 38.9619 3.62315C40.0371 4.77882 40.8563 6.16061 41.4195 7.7685C42.0339 9.3764 42.3411 11.1602 42.3411 13.1198C42.3411 14.1247 42.2387 15.3809 42.0339 16.8883C41.8291 18.3454 41.5219 19.6519 41.1123 20.8075C40.4467 22.7672 39.6275 24.777 38.6547 26.8371C37.7331 28.8973 36.6834 30.9825 35.5058 33.0929C33.6626 36.5096 31.8194 39.9767 29.9762 43.4939C28.1841 46.961 26.1617 50.5536 23.9089 54.2719C26.8785 54.2719 29.8226 54.2467 32.741 54.1965C35.6594 54.1463 38.5779 54.1211 41.4963 54.1211C42.5203 54.1211 43.2627 54.4226 43.7235 55.0256C44.2355 55.5783 44.4915 56.2064 44.4915 56.9098C44.4915 57.6133 44.2099 58.2665 43.6467 58.8694C43.1347 59.5227 42.3411 59.8493 41.2659 59.8493H29.4386C27.9537 59.8493 26.4433 59.8493 24.9073 59.8493C23.4225 59.8493 21.7841 59.8995 19.9921 60C19.1216 60 18.3024 59.9498 17.5344 59.8493C16.8176 59.7488 16.2288 59.5227 15.768 59.1709C15.3072 58.8192 15.0512 58.2916 15 57.5882C15 56.9349 15.2816 56.0556 15.8448 54.9502C16.3056 54.096 16.792 53.1664 17.304 52.1615C17.816 51.1063 18.2768 50.2019 18.6864 49.4482C19.096 48.7447 19.48 48.0915 19.8385 47.4886C20.1969 46.8856 20.5041 46.3329 20.7601 45.8304Z" fill="black"/>
</svg>
