<svg width="60" height="60" viewBox="0 0 60 60" fill="none" xmlns="http://www.w3.org/2000/svg">
<path d="M28.8084 22.8632C29.8189 22.8126 30.7537 22.4842 31.6126 21.8779C32.4716 21.2716 33.2042 20.5389 33.8105 19.68C34.4168 18.7705 34.8716 17.76 35.1747 16.6484C35.5284 15.5368 35.7053 14.4 35.7053 13.2379C35.7053 11.1158 35.1747 9.39789 34.1137 8.08421C33.0526 6.77053 31.5621 6.11368 29.6421 6.11368C28.0758 6.11368 26.7116 6.34105 25.5495 6.79579C24.3874 7.2 23.2505 7.90737 22.1389 8.91789C21.4821 9.52421 20.8 9.85263 20.0926 9.90316C19.4358 9.95368 18.8295 9.82737 18.2737 9.52421C17.6168 9.17053 17.1368 8.64 16.8337 7.93263C16.5811 7.22526 16.6316 6.51789 16.9853 5.81053C17.4905 4.69895 18.2232 3.76421 19.1832 3.00632C20.1937 2.24842 21.3053 1.64211 22.5179 1.18737C23.7305 0.682106 24.9937 0.353685 26.3074 0.202105C27.6716 -1.01328e-06 29.0105 -0.0505267 30.3242 0.0505277C33.9621 0.252633 36.8926 1.56632 39.1158 3.99158C41.3389 6.41684 42.4758 9.62527 42.5263 13.6168C42.5263 16.0421 42.0211 18.24 41.0105 20.2105C40 22.1811 38.3832 23.8989 36.16 25.3642C39.2926 26.8295 41.5158 28.9516 42.8295 31.7305C44.1432 34.5095 44.7495 37.8947 44.6484 41.8863C44.5979 44.2611 44.2189 46.4589 43.5116 48.48C42.8547 50.5011 41.92 52.2695 40.7074 53.7853C39.5453 55.3011 38.1558 56.539 36.5389 57.499C34.9221 58.5095 33.1284 59.1916 31.1579 59.5453C30.3495 59.6968 29.4147 59.7979 28.3537 59.8484C27.2926 59.9495 26.3832 60 25.6253 60C24.1095 60 22.72 59.8484 21.4568 59.5453C20.1937 59.2926 19.0568 58.9895 18.0463 58.6358C16.6821 58.08 16 57.1705 16 55.9074C16 55.4526 16.1011 54.9979 16.3032 54.5432C16.5558 54.0379 16.8842 53.6337 17.2884 53.3305C17.6926 52.9768 18.1726 52.7495 18.7284 52.6484C19.2842 52.5474 19.8653 52.6232 20.4716 52.8758C21.3305 53.1789 22.1642 53.4316 22.9726 53.6337C23.8316 53.8358 24.7663 53.9368 25.7768 53.9368C26.1811 53.9368 26.7116 53.9368 27.3684 53.9368C28.0253 53.8863 28.6316 53.8105 29.1874 53.7095C30.4 53.5579 31.5368 53.1537 32.5979 52.4968C33.6589 51.7895 34.5684 50.9053 35.3263 49.8442C36.1347 48.7832 36.7663 47.5705 37.2211 46.2063C37.7263 44.8421 37.9789 43.3768 37.9789 41.8105C37.9789 39.9411 37.8021 38.2484 37.4484 36.7326C37.0947 35.2168 36.5389 33.9032 35.7811 32.7916C35.0232 31.68 34.0632 30.8211 32.9011 30.2147C31.7389 29.6084 30.3747 29.3053 28.8084 29.3053H23.8821C22.8716 29.3053 22.0884 28.9768 21.5326 28.32C21.0274 27.6632 20.7747 26.9558 20.7747 26.1979C20.7747 25.4905 20.9768 24.8337 21.3811 24.2274C21.8358 23.6211 22.5684 23.2926 23.5789 23.2421L28.8084 22.8632Z" fill="black"/>
</svg>
