<svg width="47" height="47" viewBox="0 0 47 47" fill="none" xmlns="http://www.w3.org/2000/svg">
<path d="M41.0714 0H8.85714C5.62199 0 3 2.62998 3 5.875V41.125C3 44.37 5.62199 47 8.85714 47H41.0714C42.6885 47 44 45.6846 44 44.0625V2.9375C44 1.31545 42.6885 0 41.0714 0ZM41.0714 44.0625H8.85714C7.24277 44.0625 5.92857 42.7443 5.92857 41.125V5.875C5.92857 4.2557 7.24277 2.9375 8.85714 2.9375H41.0714V44.0625ZM13.25 38.1875H33.75C34.5554 38.1875 35.2143 37.5266 35.2143 36.7188C35.2143 35.9109 34.5554 35.25 33.75 35.25H13.25C12.4446 35.25 11.7857 35.9109 11.7857 36.7188C11.7857 37.5266 12.4446 38.1875 13.25 38.1875ZM23.5 29.375C29.9694 29.375 35.2143 24.1141 35.2143 17.625C35.2143 11.1359 29.9694 5.875 23.5 5.875C17.0306 5.875 11.7857 11.1359 11.7857 17.625C11.7857 24.1141 17.0306 29.375 23.5 29.375ZM32.1375 16.1562H28.56C28.4237 13.675 27.9615 11.4425 27.2596 9.69283C29.7955 10.9082 31.6542 13.2904 32.1375 16.1562ZM28.56 19.0938H32.1375C31.6533 21.9596 29.7955 24.3418 27.2596 25.5572C27.9624 23.8075 28.4237 21.575 28.56 19.0938V19.0938ZM23.5 8.93275C24.2038 9.61664 25.4008 12.0924 25.6443 16.1562H21.3548C21.5992 12.0933 22.7962 9.61664 23.5 8.93275ZM25.6443 19.0938C25.4008 23.1567 24.2038 25.6334 23.5 26.3172C22.7962 25.6334 21.5992 23.1576 21.3557 19.0938H25.6443ZM19.7404 9.69283C19.0376 11.4425 18.5763 13.675 18.44 16.1562H14.8625C15.3458 13.2904 17.2045 10.9082 19.7404 9.69283ZM18.44 19.0938C18.5763 21.575 19.0385 23.8075 19.7404 25.5572C17.2045 24.3418 15.3458 21.9596 14.8625 19.0938H18.44V19.0938Z" fill="black"/>
</svg>
