<svg width="47" height="47" viewBox="0 0 47 47" fill="none" xmlns="http://www.w3.org/2000/svg">
<path d="M15.9194 21.9839C17.5966 21.9839 18.9516 20.6288 18.9516 18.9516C18.9516 17.2744 17.5966 15.9194 15.9194 15.9194C14.2421 15.9194 12.8871 17.2744 12.8871 18.9516C12.8871 20.6288 14.2421 21.9839 15.9194 21.9839ZM31.0806 21.9839C32.7579 21.9839 34.1129 20.6288 34.1129 18.9516C34.1129 17.2744 32.7579 15.9194 31.0806 15.9194C29.4034 15.9194 28.0484 17.2744 28.0484 18.9516C28.0484 20.6288 29.4034 21.9839 31.0806 21.9839ZM23.5 0C10.5181 0 0 10.5181 0 23.5C0 36.4819 10.5181 47 23.5 47C36.4819 47 47 36.4819 47 23.5C47 10.5181 36.4819 0 23.5 0ZM23.5 43.9677C12.2143 43.9677 3.03226 34.7857 3.03226 23.5C3.03226 12.2143 12.2143 3.03226 23.5 3.03226C34.7857 3.03226 43.9677 12.2143 43.9677 23.5C43.9677 34.7857 34.7857 43.9677 23.5 43.9677ZM23.5 29.5645C22.4387 29.5645 21.4153 29.7256 20.4014 29.953C19.7192 28.7591 18.8758 27.4419 17.7387 25.9353C16.8859 24.7887 14.9528 24.7982 14.1 25.9353C11.2857 29.6877 9.85484 32.4736 9.85484 34.2077C9.85484 37.4958 12.5744 40.1774 15.9194 40.1774C19.2643 40.1774 21.9839 37.4958 21.9839 34.2077C21.9839 33.7907 21.8891 33.3075 21.728 32.7768C22.306 32.6631 22.8935 32.5968 23.5 32.5968C26.8071 32.5968 29.9246 34.056 32.0472 36.5956C32.5494 37.202 33.5065 37.3536 34.1792 36.7851C34.8236 36.245 34.9089 35.2879 34.3688 34.653C31.6681 31.4218 27.7073 29.5645 23.5 29.5645ZM15.9194 37.1452C14.2421 37.1452 12.8871 35.828 12.8871 34.2077C12.8871 33.478 13.8347 31.4786 15.9194 28.5696C18.004 31.4786 18.9516 33.478 18.9516 34.2077C18.9516 35.828 17.5966 37.1452 15.9194 37.1452Z" fill="black"/>
</svg>
