<svg width="47" height="47" viewBox="0 0 47 47" fill="none" xmlns="http://www.w3.org/2000/svg">
<path d="M23.5 0C10.5181 0 0 10.5181 0 23.5C0 36.4819 10.5181 47 23.5 47C36.4819 47 47 36.4819 47 23.5C47 10.5181 36.4819 0 23.5 0ZM23.5 43.9677C12.2143 43.9677 3.03226 34.7857 3.03226 23.5C3.03226 12.2143 12.2143 3.03226 23.5 3.03226C34.7857 3.03226 43.9677 12.2143 43.9677 23.5C43.9677 34.7857 34.7857 43.9677 23.5 43.9677ZM32.0472 30.1141C29.9246 32.6536 26.8071 34.1129 23.5 34.1129C20.1929 34.1129 17.0754 32.6536 14.9528 30.1141C14.4127 29.4698 13.4556 29.3845 12.8208 29.9246C12.1764 30.4647 12.0911 31.4123 12.6313 32.0567C15.3224 35.2879 19.2927 37.1452 23.5 37.1452C27.7073 37.1452 31.6776 35.2879 34.3782 32.0472C34.9183 31.4028 34.8331 30.4458 34.1887 29.9151C33.5444 29.3845 32.5873 29.4698 32.0472 30.1141ZM15.9194 21.9839C17.5966 21.9839 18.9516 20.6288 18.9516 18.9516C18.9516 17.2744 17.5966 15.9194 15.9194 15.9194C14.2421 15.9194 12.8871 17.2744 12.8871 18.9516C12.8871 20.6288 14.2421 21.9839 15.9194 21.9839ZM31.0806 21.9839C32.7579 21.9839 34.1129 20.6288 34.1129 18.9516C34.1129 17.2744 32.7579 15.9194 31.0806 15.9194C29.4034 15.9194 28.0484 17.2744 28.0484 18.9516C28.0484 20.6288 29.4034 21.9839 31.0806 21.9839Z" fill="black"/>
</svg>
