<svg width="49" height="49" viewBox="0 0 49 49" fill="none" xmlns="http://www.w3.org/2000/svg">
<path d="M48.3875 27.5H47.1625C46.8256 27.5 46.55 27.7812 46.55 28.125V39.375C46.55 39.7188 46.8256 40 47.1625 40H48.3875C48.7244 40 49 39.7188 49 39.375V28.125C49 27.7812 48.7244 27.5 48.3875 27.5ZM43.4875 27.5H42.2625C41.9256 27.5 41.65 27.7812 41.65 28.125V39.375C41.65 39.7188 41.9256 40 42.2625 40H43.4875C43.8244 40 44.1 39.7188 44.1 39.375V28.125C44.1 27.7812 43.8244 27.5 43.4875 27.5ZM37.3625 27.5H3.675C1.64609 27.5 0 29.1797 0 31.25V36.25C0 38.3203 1.64609 40 3.675 40H37.3625C38.3731 40 39.2 39.1562 39.2 38.125V29.375C39.2 28.3438 38.3731 27.5 37.3625 27.5ZM14.7 37.5H3.675C3.00125 37.5 2.45 36.9375 2.45 36.25V31.25C2.45 30.5625 3.00125 30 3.675 30H14.7V37.5ZM36.75 37.5H17.15V30H36.75V37.5ZM42.5994 7.30469C42.0252 6.91406 41.65 6.27344 41.65 5.57031V0.625C41.65 0.28125 41.3744 0 41.0375 0H39.8125C39.4756 0 39.2 0.28125 39.2 0.625V5.49219C39.2 7.07031 39.9886 8.52344 41.2672 9.39844C44.5747 11.6641 46.55 15.4375 46.55 19.5078V21.875C46.55 22.2188 46.8256 22.5 47.1625 22.5H48.3875C48.7244 22.5 49 22.2188 49 21.875V19.5078C49 14.5937 46.6113 10.0313 42.5994 7.30469ZM39.7895 11.3984C37.8295 10.1016 36.75 7.77344 36.75 5.39062V0.625C36.75 0.28125 36.4744 0 36.1375 0H34.9125C34.5756 0 34.3 0.28125 34.3 0.625V5.85938C34.3 9.00781 35.9997 11.7969 38.5569 13.5625C40.4939 14.8984 41.65 17.1172 41.65 19.5078V21.875C41.65 22.2188 41.9256 22.5 42.2625 22.5H43.4875C43.8244 22.5 44.1 22.2188 44.1 21.875V19.5078C44.1 16.2266 42.4845 13.1875 39.7895 11.3984V11.3984Z" fill="black"/>
</svg>
