<svg width="59" height="59" viewBox="0 0 59 59" fill="none" xmlns="http://www.w3.org/2000/svg">
<path d="M32.0924 42.9848C34.0267 42.9848 35.5946 41.3967 35.5946 39.4375C35.5946 37.4784 34.0267 35.8902 32.0924 35.8902C30.1581 35.8902 28.5901 37.4784 28.5901 39.4375C28.5901 41.3967 30.1581 42.9848 32.0924 42.9848ZM32.0924 38.2551C32.7361 38.2551 33.2598 38.7855 33.2598 39.4375C33.2598 40.0896 32.7361 40.62 32.0924 40.62C31.4486 40.62 30.925 40.0896 30.925 39.4375C30.925 38.7855 31.4486 38.2551 32.0924 38.2551ZM48.4363 42.9848C50.3706 42.9848 51.9386 41.3967 51.9386 39.4375C51.9386 37.4784 50.3706 35.8902 48.4363 35.8902C46.502 35.8902 44.934 37.4784 44.934 39.4375C44.934 41.3967 46.502 42.9848 48.4363 42.9848ZM48.4363 38.2551C49.0801 38.2551 49.6037 38.7855 49.6037 39.4375C49.6037 40.0896 49.0801 40.62 48.4363 40.62C47.7925 40.62 47.2689 40.0896 47.2689 39.4375C47.2689 38.7855 47.7925 38.2551 48.4363 38.2551ZM47.2689 14.6062H33.2598C28.5901 14.6062 23.9204 17.7826 23.9204 21.7009V40.62C23.9204 44.1059 27.6165 47.0045 31.7203 47.6018L27.6864 51.6875C27.4106 51.9668 27.606 52.4444 27.996 52.4444H29.8784C30.1105 52.4444 30.3333 52.351 30.4975 52.1847L34.9108 47.7146H45.6179L50.0312 52.1846C50.1954 52.3509 50.418 52.4443 50.6503 52.4444H52.5326C52.9226 52.4444 53.1179 51.9667 52.8422 51.6874L48.8084 47.6017C52.9122 47.0045 56.6083 44.1059 56.6083 40.62V21.7009C56.6083 17.7826 52.0115 14.6062 47.2689 14.6062ZM26.2553 24.0658H39.0969V31.1604H26.2553V24.0658ZM54.2734 40.62C54.2734 43.0069 50.8038 45.3497 47.2689 45.3497H33.2598C29.7248 45.3497 26.2553 43.0069 26.2553 40.62V33.5253H54.2734V40.62ZM54.2734 31.1604H41.4318V24.0658H54.2734V31.1604ZM26.2553 21.7009C26.2553 19.3139 29.7248 16.9711 33.2598 16.9711H47.2689C51.5181 16.9711 54.2734 19.7706 54.2734 21.7009H26.2553Z" fill="black"/>
<path d="M22.396 39.5634H3.18473C3.18473 39.5634 2.87421 39.5634 2.4947 39.5634L1.96392 39.5634C1.5844 39.5634 1.27389 39.5634 1.27389 39.5634H0.690022C0.310508 39.5634 0 39.8769 0 40.2601V40.7961C0 41.1793 0.310508 41.4929 0.690022 41.4929H1.27389C1.27389 41.4929 1.5844 41.4973 1.96392 41.4973H2.4947C2.87421 41.4973 3.18473 41.4929 3.18473 41.4929H7.3747L21.1838 43.9584C21.1838 43.9584 21.1838 44.3463 21.1838 45.888V50.9262C21.1838 52.4678 22.5519 52.0507 22.5519 52.0507H21.9248C21.9248 52.0507 23.086 52.4678 23.086 50.9262L23.0947 45.888C23.0947 44.3463 23.0947 43.9584 23.0947 43.9584V41.4929C23.0947 41.4929 23.086 41.1793 23.086 40.7961V40.2601C23.086 39.8769 22.7755 39.5634 22.396 39.5634ZM21.3377 50.9262H22.6852V45.888H21.3377V50.9262ZM21.1838 43.9584L7.3747 41.4929H9.28553H21.1838V43.9584Z" fill="black"/>
<path d="M22.396 39.5634H3.18473C3.18473 39.5634 2.87421 39.5634 2.4947 39.5634L1.96392 39.5634C1.5844 39.5634 1.27389 39.5634 1.27389 39.5634H0.690022C0.310508 39.5634 0 39.8769 0 40.2601V40.7961C0 41.1793 0.310508 41.4929 0.690022 41.4929H1.27389C1.27389 41.4929 1.5844 41.4973 1.96392 41.4973H2.4947C2.87421 41.4973 3.18473 41.4929 3.18473 41.4929H7.3747L21.1838 43.9584C21.1838 43.9584 21.1838 44.3463 21.1838 45.888V50.9262C21.1838 52.4678 22.5519 52.0507 22.5519 52.0507H21.9248C21.9248 52.0507 23.086 52.4678 23.086 50.9262L23.0947 45.888C23.0947 44.3463 23.0947 43.9584 23.0947 43.9584V41.4929C23.0947 41.4929 23.086 41.1793 23.086 40.7961V40.2601C23.086 39.8769 22.7755 39.5634 22.396 39.5634ZM21.3377 50.9262H22.6852V45.888H21.3377V50.9262ZM21.1838 43.9584L7.3747 41.4929H9.28553H21.1838V43.9584Z" fill="black"/>
<path d="M22.4212 14.2601H3.18831C3.18831 14.2601 2.87745 14.2601 2.49751 14.2601L1.96613 14.2601C1.58619 14.2601 1.27532 14.2601 1.27532 14.2601H0.690799C0.310858 14.2601 0 13.9466 0 13.5635V13.0277C0 12.6446 0.310858 12.3311 0.690799 12.3311H1.27532C1.27532 12.3311 1.58619 12.3267 1.96613 12.3267H2.49751C2.87745 12.3267 3.18831 12.3311 3.18831 12.3311H7.383L21.2077 9.86634C21.2077 9.86634 21.2077 9.47854 21.2077 7.93739V7.7311C21.2077 6.18995 22.5773 6.60698 22.5773 6.60698H21.9495C21.9495 6.60698 23.112 6.18995 23.112 7.7311L23.1207 7.93739C23.1207 9.47854 23.1207 9.86634 23.1207 9.86634V12.3311C23.1207 12.3311 23.112 12.6446 23.112 13.0277V13.5635C23.112 13.9466 22.8011 14.2601 22.4212 14.2601ZM21.3617 7.7311H22.7108V7.93739H21.3617V7.7311ZM21.2077 9.86634L7.383 12.3311H9.29599H21.2077V9.86634Z" fill="black"/>
<path d="M22.4212 14.2601H3.18831C3.18831 14.2601 2.87745 14.2601 2.49751 14.2601L1.96613 14.2601C1.58619 14.2601 1.27532 14.2601 1.27532 14.2601H0.690799C0.310858 14.2601 0 13.9466 0 13.5635V13.0277C0 12.6446 0.310858 12.3311 0.690799 12.3311H1.27532C1.27532 12.3311 1.58619 12.3267 1.96613 12.3267H2.49751C2.87745 12.3267 3.18831 12.3311 3.18831 12.3311H7.383L21.2077 9.86634C21.2077 9.86634 21.2077 9.47854 21.2077 7.93739V7.7311C21.2077 6.18995 22.5773 6.60698 22.5773 6.60698H21.9495C21.9495 6.60698 23.112 6.18995 23.112 7.7311L23.1207 7.93739C23.1207 9.47854 23.1207 9.86634 23.1207 9.86634V12.3311C23.1207 12.3311 23.112 12.6446 23.112 13.0277V13.5635C23.112 13.9466 22.8011 14.2601 22.4212 14.2601ZM21.3617 7.7311H22.7108V7.93739H21.3617V7.7311ZM21.2077 9.86634L7.383 12.3311H9.29599H21.2077V9.86634Z" fill="black"/>
<path d="M22.4212 6.55556H3.18831C3.18831 6.55556 2.87745 6.55556 2.49751 6.55556L1.96613 6.55556C1.58619 6.55556 1.27532 6.55556 1.27532 6.55556H0.690799C0.310858 6.55556 0 6.86901 0 7.25212V7.78794C0 8.17105 0.310858 8.48451 0.690799 8.48451H1.27532C1.27532 8.48451 1.58619 8.48888 1.96613 8.48888H2.49751C2.87745 8.48888 3.18831 8.48451 3.18831 8.48451H7.383L21.2077 10.9493C21.2077 10.9493 21.2077 11.3371 21.2077 12.8782V13.0845C21.2077 14.6257 22.5773 14.2086 22.5773 14.2086H21.9495C21.9495 14.2086 23.112 14.6257 23.112 13.0845L23.1207 12.8782C23.1207 11.3371 23.1207 10.9493 23.1207 10.9493V8.48451C23.1207 8.48451 23.112 8.17105 23.112 7.78794V7.25212C23.112 6.86901 22.8011 6.55556 22.4212 6.55556ZM21.3617 13.0845H22.7108V12.8782H21.3617V13.0845ZM21.2077 10.9493L7.383 8.48451H9.29599H21.2077V10.9493Z" fill="black"/>
<path d="M22.4212 6.55556H3.18831C3.18831 6.55556 2.87745 6.55556 2.49751 6.55556L1.96613 6.55556C1.58619 6.55556 1.27532 6.55556 1.27532 6.55556H0.690799C0.310858 6.55556 0 6.86901 0 7.25212V7.78794C0 8.17105 0.310858 8.48451 0.690799 8.48451H1.27532C1.27532 8.48451 1.58619 8.48888 1.96613 8.48888H2.49751C2.87745 8.48888 3.18831 8.48451 3.18831 8.48451H7.383L21.2077 10.9493C21.2077 10.9493 21.2077 11.3371 21.2077 12.8782V13.0845C21.2077 14.6257 22.5773 14.2086 22.5773 14.2086H21.9495C21.9495 14.2086 23.112 14.6257 23.112 13.0845L23.1207 12.8782C23.1207 11.3371 23.1207 10.9493 23.1207 10.9493V8.48451C23.1207 8.48451 23.112 8.17105 23.112 7.78794V7.25212C23.112 6.86901 22.8011 6.55556 22.4212 6.55556ZM21.3617 13.0845H22.7108V12.8782H21.3617V13.0845ZM21.2077 10.9493L7.383 8.48451H9.29599H21.2077V10.9493Z" fill="black"/>
<path d="M8.67522 33.7147C8.67522 33.7147 8.67181 33.7116 8.67163 33.7083L8.10258 35.4254C8.04679 35.5938 7.95795 35.7507 7.83859 35.8829L6.05409 37.9147C5.76683 38.2412 5.79384 38.7421 6.11432 39.0319C6.27465 39.1785 6.47599 39.2434 6.67324 39.2326C6.87049 39.2218 7.06689 39.1349 7.20728 38.9719L8.99178 36.9401C9.25154 36.6448 9.44396 36.3037 9.56669 35.9333L9.94336 34.7987L8.71328 33.7589L8.67522 33.7147ZM11.8819 25.2152C12.7388 25.1681 13.3926 24.4215 13.3455 23.5481C13.2984 22.6747 12.565 22.0044 11.7113 22.0513C10.8544 22.0984 10.2006 22.845 10.2477 23.7184C10.2948 24.5917 11.025 25.2623 11.8819 25.2152ZM15.5782 30.7934L14.5794 29.893C14.5487 29.8649 14.5241 29.8299 14.509 29.7911L14.023 28.5352C13.4808 27.1404 12.136 26.259 10.6679 26.3397C9.5426 26.4015 8.96972 26.7239 7.61952 27.3667C6.95862 27.6807 6.4368 28.2283 6.14051 28.9288L5.73012 29.9794C5.35104 30.9489 6.79067 31.5441 7.17263 30.5678L7.57133 29.5411C7.70949 29.2161 7.95826 28.9578 8.27128 28.8084C8.95752 28.4831 9.31763 28.3047 9.6734 28.1661L9.17385 30.8115C9.05544 31.4428 9.25248 32.0898 9.75266 32.5845L12.4369 34.85C12.6375 35.0208 12.7825 35.2442 12.8547 35.5014L13.6359 38.2615C13.7404 38.6359 14.1392 38.9346 14.596 38.8037C15.0078 38.6819 15.2435 38.2426 15.1236 37.8227L14.3426 35.0659C14.1825 34.5028 13.8639 34.008 13.4221 33.6323L11.5943 32.0933L12.2553 28.5927C12.5118 28.8993 12.5202 28.9947 13.0586 30.3798C13.1639 30.6484 13.3294 30.8905 13.5443 31.087L14.5433 31.9907C15.3026 32.6596 16.3556 31.4977 15.5782 30.7934V30.7934Z" fill="black"/>
</svg>
