<svg width="47" height="47" viewBox="0 0 47 47" fill="none" xmlns="http://www.w3.org/2000/svg">
<path d="M13.25 35.2499C15.6761 35.2499 17.6429 33.2772 17.6429 30.8437C17.6429 28.4102 15.6761 26.4375 13.25 26.4375C10.8239 26.4375 8.85714 28.4102 8.85714 30.8437C8.85714 33.2772 10.8239 35.2499 13.25 35.2499ZM13.25 29.3749C14.0575 29.3749 14.7143 30.0338 14.7143 30.8437C14.7143 31.6536 14.0575 32.3124 13.25 32.3124C12.4425 32.3124 11.7857 31.6536 11.7857 30.8437C11.7857 30.0338 12.4425 29.3749 13.25 29.3749ZM33.75 35.2499C36.1761 35.2499 38.1429 33.2772 38.1429 30.8437C38.1429 28.4102 36.1761 26.4375 33.75 26.4375C31.3239 26.4375 29.3571 28.4102 29.3571 30.8437C29.3571 33.2772 31.3239 35.2499 33.75 35.2499ZM33.75 29.3749C34.5575 29.3749 35.2143 30.0338 35.2143 30.8437C35.2143 31.6536 34.5575 32.3124 33.75 32.3124C32.9425 32.3124 32.2857 31.6536 32.2857 30.8437C32.2857 30.0338 32.9425 29.3749 33.75 29.3749ZM32.2857 0H14.7143C8.85714 0 3 3.94551 3 8.81248V32.3124C3 36.6424 7.63593 40.2428 12.7833 40.9847L7.72369 46.0597C7.37776 46.4067 7.62275 47 8.112 47H10.473C10.7642 47 11.0436 46.884 11.2495 46.6773L16.7851 41.1249H30.2148L35.7504 46.6772C35.9564 46.8838 36.2357 46.9999 36.5269 46.9999H38.8879C39.3771 46.9999 39.6221 46.4066 39.2762 46.0596L34.2167 40.9847C39.3641 40.2428 44 36.6424 44 32.3124V8.81248C44 3.94551 38.2344 0 32.2857 0ZM5.92857 11.75H22.0357V20.5625H5.92857V11.75ZM41.0714 32.3124C41.0714 35.2774 36.7196 38.1874 32.2857 38.1874H14.7143C10.2804 38.1874 5.92857 35.2774 5.92857 32.3124V23.5H41.0714V32.3124ZM41.0714 20.5625H24.9643V11.75H41.0714V20.5625ZM5.92857 8.81248C5.92857 5.84754 10.2804 2.93749 14.7143 2.93749H32.2857C37.6154 2.93749 41.0714 6.41485 41.0714 8.81248H5.92857Z" fill="black"/>
</svg>
