<svg width="47" height="41" viewBox="0 0 47 41" fill="none" xmlns="http://www.w3.org/2000/svg">
<path d="M42.5938 8.78571H32.3125V4.39286C32.3125 1.97038 30.3361 0 27.9062 0H19.0938C16.6639 0 14.6875 1.97038 14.6875 4.39286V8.78571H4.40625C1.97363 8.78571 0 10.7533 0 13.1786V36.6071C0 39.0324 1.97363 41 4.40625 41H42.5938C45.0264 41 47 39.0324 47 36.6071V13.1786C47 10.7533 45.0264 8.78571 42.5938 8.78571ZM17.625 4.39286C17.625 3.58475 18.285 2.92857 19.0938 2.92857H27.9062C28.715 2.92857 29.375 3.58475 29.375 4.39286V8.78571H17.625V4.39286ZM8.8125 38.0714H4.40625C3.59844 38.0714 2.9375 37.4125 2.9375 36.6071V13.1786C2.9375 12.3732 3.59844 11.7143 4.40625 11.7143H8.8125V38.0714ZM35.25 38.0714H11.75V11.7143H35.25V38.0714ZM44.0625 36.6071C44.0625 37.4125 43.4016 38.0714 42.5938 38.0714H38.1875V11.7143H42.5938C43.4016 11.7143 44.0625 12.3732 44.0625 13.1786V36.6071Z" fill="black"/>
</svg>
