<svg width="47" height="47" viewBox="0 0 47 47" fill="none" xmlns="http://www.w3.org/2000/svg">
<path d="M16.9793 13.3288C17.9439 12.0432 18.5152 10.4535 18.5152 8.73438C18.5152 4.46966 15.0011 1 10.6818 1C6.36254 1 2.84848 4.46966 2.84848 8.73438C2.84848 10.4535 3.41978 12.0432 4.38435 13.3288C1.83238 14.2256 0 16.6334 0 19.457V28.6855C0 30.86 1.51691 32.6912 3.56061 33.202V41.3418C3.56061 43.9103 5.67703 46 8.27841 46H13.0852C15.6866 46 17.803 43.9103 17.803 41.3418V33.202C19.8467 32.6912 21.3636 30.86 21.3636 28.6855V19.457C21.3636 16.6334 19.5313 14.2256 16.9793 13.3288ZM10.6818 3.8125C13.4349 3.8125 15.6667 6.01609 15.6667 8.73438C15.6667 11.4527 13.4349 13.6562 10.6818 13.6562C7.92876 13.6562 5.69697 11.4527 5.69697 8.73438C5.69697 6.01609 7.92876 3.8125 10.6818 3.8125ZM18.5152 28.6855C18.5152 29.7049 17.6782 30.5312 16.6458 30.5312H14.9545V41.3418C14.9545 42.3612 14.1176 43.1875 13.0852 43.1875H8.27841C7.24601 43.1875 6.40909 42.3612 6.40909 41.3418V30.5312H4.7178C3.68541 30.5312 2.84848 29.7049 2.84848 28.6855V19.457C2.84848 17.4183 4.52233 15.7656 6.58712 15.7656H7.4203C9.44193 16.6835 11.8346 16.7231 13.9433 15.7656H14.7765C16.8413 15.7656 18.5152 17.4183 18.5152 19.457V28.6855Z" fill="black"/>
<path d="M46.8786 30.9611L43.2817 16.5228C43.0593 15.6009 42.5264 14.7782 41.7681 14.1864C41.6371 14.0847 41.5 13.9905 41.3576 13.9045C42.6237 12.5334 43.3953 10.7202 43.3953 8.73438C43.3953 4.46966 39.8374 1 35.4641 1C31.0908 1 27.5328 4.46966 27.5328 8.73438C27.5328 10.7202 28.3045 12.5334 29.5705 13.9045C29.4282 13.9905 29.2911 14.0847 29.1601 14.1864C28.4018 14.7782 27.8689 15.6009 27.6465 16.5228L24.0496 30.9611C23.3988 33.5687 25.4343 36.1562 28.2581 36.1562H29.4255V41.3418C29.4255 43.9103 31.5684 46 34.2023 46H36.7259C39.3598 46 41.5027 43.9103 41.5027 41.3418V36.1562H42.67C45.4936 36.1562 47.5294 33.5691 46.8786 30.9611ZM35.4641 3.8125C38.2516 3.8125 40.5113 6.01609 40.5113 8.73438C40.5113 11.4527 38.2516 13.6562 35.4641 13.6562C32.6766 13.6562 30.4169 11.4527 30.4169 8.73438C30.4169 6.01609 32.6766 3.8125 35.4641 3.8125ZM42.6743 33.3438H38.6186V41.3418C38.6186 42.3612 37.7712 43.1875 36.7259 43.1875H34.2023C33.157 43.1875 32.3096 42.3612 32.3096 41.3418V33.3438H28.2539C27.3292 33.3438 26.6426 32.5054 26.8477 31.6258L30.4528 17.1719C30.5253 16.861 30.7039 16.5834 30.9594 16.3845C31.2149 16.1856 31.5321 16.0773 31.859 16.0773H32.9721C34.5903 16.5994 36.3379 16.5994 37.9561 16.0773H39.0692C39.3961 16.0773 39.7133 16.1856 39.9688 16.3845C40.2243 16.5834 40.4029 16.861 40.4754 17.1719L44.0805 31.6258C44.2855 32.5051 43.5992 33.3438 42.6743 33.3438Z" fill="black"/>
</svg>
