<svg width="49" height="49" viewBox="0 0 49 49" fill="none" xmlns="http://www.w3.org/2000/svg">
<path d="M48.3875 32.4H46.55V24.2925C46.55 23.0325 46.0294 21.795 45.1106 20.9025L38.687 14.61C37.7836 13.71 36.5203 13.2 35.2264 13.2H31.85V9.495C31.85 7.5675 30.1503 6 28.0678 6H3.78219C1.69969 6 0 7.5675 0 9.495V31.305C0 33.2325 1.69969 34.8 3.78219 34.8H5.0225C4.93828 35.19 4.9 35.5875 4.9 36C4.9 39.315 7.64094 42 11.025 42C14.4091 42 17.15 39.315 17.15 36C17.15 35.5875 17.1041 35.19 17.0275 34.8H31.9725C31.8883 35.19 31.85 35.5875 31.85 36C31.85 39.315 34.5909 42 37.975 42C41.3591 42 44.1 39.315 44.1 36C44.1 35.5875 44.0541 35.19 43.9775 34.8H48.3875C48.7244 34.8 49 34.53 49 34.2V33C49 32.67 48.7244 32.4 48.3875 32.4ZM35.2264 15.6C35.8695 15.6 36.505 15.855 36.9567 16.305L43.3803 22.5975C43.4416 22.6575 43.4645 22.74 43.5181 22.8075H31.85V15.6075H35.2264V15.6ZM11.025 39.6C8.99609 39.6 7.35 37.9875 7.35 36C7.35 34.0125 8.99609 32.4 11.025 32.4C13.0539 32.4 14.7 34.0125 14.7 36C14.7 37.9875 13.0539 39.6 11.025 39.6ZM15.8944 32.4C14.7766 30.9525 13.0156 30 11.025 30C9.03438 30 7.27344 30.9525 6.15563 32.4H3.78219C3.04719 32.4 2.45 31.9125 2.45 31.305V9.495C2.45 8.8875 3.04719 8.4 3.78219 8.4H28.0678C28.8028 8.4 29.4 8.8875 29.4 9.495V32.4H15.8944ZM37.975 39.6C35.9461 39.6 34.3 37.9875 34.3 36C34.3 34.0125 35.9461 32.4 37.975 32.4C40.0039 32.4 41.65 34.0125 41.65 36C41.65 37.9875 40.0039 39.6 37.975 39.6ZM37.975 30C35.9767 30 34.2234 30.9525 33.1056 32.4H31.85V25.2H44.1V32.4H42.8444C41.7266 30.9525 39.9733 30 37.975 30Z" fill="black"/>
</svg>
