<svg width="49" height="49" viewBox="0 0 49 49" fill="none" xmlns="http://www.w3.org/2000/svg">
<path d="M48.4548 35.3055L41.65 31.5V26.5L45.8732 25.118C46.7758 24.657 46.7758 23.343 45.8732 22.882L36.7501 19V14L38.841 12.7266C39.432 12.1234 39.2705 11.1063 38.5225 10.725L24.5002 4L10.4779 10.7242C9.72987 11.1055 9.56833 12.1227 10.1594 12.7258L12.2503 14V19L3.12718 22.882C2.22452 23.343 2.22452 24.657 3.12718 25.118L7.35033 26.5V31.5L0.54552 35.3055C-0.236942 35.8383 -0.164208 37.0344 0.677206 37.4633L4.90035 39V43.375C4.90035 43.7203 5.17445 44 5.51285 44H6.73784C7.07624 44 7.35033 43.7203 7.35033 43.375V39H23.2752V43.375C23.2752 43.7203 23.5493 44 23.8877 44H25.1127C25.4511 44 25.7252 43.7203 25.7252 43.375V39H41.65V43.375C41.65 43.7203 41.9241 44 42.2625 44H43.4875C43.8259 44 44.1 43.7203 44.1 43.375V39L48.3224 37.4633C49.1638 37.0344 49.2373 35.8375 48.4548 35.3055ZM24.5002 6.7625L34.3812 11.5H14.6206L24.5002 6.7625ZM14.7003 14H34.3001V19H14.7003V14ZM7.24315 23.8391L12.7403 21.5H36.2601L41.758 23.8391L41.2672 24H7.73391L7.24315 23.8391V23.8391ZM9.80031 26.5H39.2V31.5H9.80031V26.5ZM43.6766 36.5H5.32374L4.22278 36.0992L7.97737 34H41.0222L44.7768 36.0992L43.6766 36.5V36.5Z" fill="black"/>
</svg>
