<svg width="51" height="51" viewBox="0 0 51 51" fill="none" xmlns="http://www.w3.org/2000/svg">
<path d="M14.3438 30.2812C12.5837 30.2812 11.1562 31.7087 11.1562 33.4688C11.1562 35.2288 12.5837 36.6562 14.3438 36.6562C16.1038 36.6562 17.5312 35.2288 17.5312 33.4688C17.5312 31.7087 16.1038 30.2812 14.3438 30.2812ZM48.6094 12.75H47.8125V7.96875C47.8125 3.50625 37.9313 0 25.5 0C13.0687 0 3.1875 3.50625 3.1875 7.96875V12.75H2.39062C1.0708 12.75 0 13.8198 0 15.1406V23.1094C0 24.4292 1.0708 25.5 2.39062 25.5H3.1875V41.4375C3.1875 43.1976 4.6149 44.625 6.375 44.625V47.8125C6.375 49.5726 7.8024 51 9.5625 51H11.1562C12.9163 51 14.3438 49.5726 14.3438 47.8125V44.625H36.6562V47.8125C36.6562 49.5726 38.0837 51 39.8438 51H41.4375C43.1976 51 44.625 49.5726 44.625 47.8125V44.625C46.3851 44.625 47.8125 43.1976 47.8125 41.4375V25.5H48.6094C49.9292 25.5 51 24.4292 51 23.1094V15.1406C51 13.8198 49.9292 12.75 48.6094 12.75ZM7.96875 15.9375H23.1094V22.3125H7.96875V15.9375ZM43.0312 39.8438H7.96875V27.0938H43.0312V39.8438ZM43.0312 22.3125H27.8906V15.9375H43.0312V22.3125ZM43.0312 11.1562H33.4688C33.4688 9.39615 32.0413 7.96875 30.2812 7.96875H20.7188C18.9587 7.96875 17.5312 9.39615 17.5312 11.1562H7.96875V8.50963C9.38121 7.13203 15.6078 4.78125 25.5 4.78125C35.3922 4.78125 41.6188 7.13203 43.0312 8.50963V11.1562ZM36.6562 36.6562C38.4163 36.6562 39.8438 35.2288 39.8438 33.4688C39.8438 31.7087 38.4163 30.2812 36.6562 30.2812C34.8962 30.2812 33.4688 31.7087 33.4688 33.4688C33.4688 35.2288 34.8962 36.6562 36.6562 36.6562Z" fill="black"/>
</svg>
