<svg width="51" height="51" viewBox="0 0 51 51" fill="none" xmlns="http://www.w3.org/2000/svg">
<path fill-rule="evenodd" clip-rule="evenodd" d="M35.3048 4.70985C32.4259 2.63415 28.81 1.59375 24.4597 1.59375C21.1472 1.59375 18.3524 2.3256 16.0829 3.7842C12.4823 6.07155 10.5673 9.95775 10.3352 15.4351H18.6814C18.6814 13.8388 19.148 12.3012 20.0788 10.8196C21.0095 9.3381 22.5905 8.5986 24.8192 8.5986C27.0862 8.5986 28.6468 9.2004 29.501 10.4014C30.3553 11.605 30.7837 12.9361 30.7837 14.3947C30.7837 15.6646 30.1462 16.8274 29.3786 17.8831C28.9553 18.5002 28.3994 19.0663 27.7084 19.584C27.7084 19.584 23.1821 22.4884 21.1931 24.8191C20.0405 26.1732 19.9385 28.1979 19.8365 31.1049C19.8289 31.3114 19.9079 31.7398 20.6321 31.7398C21.3538 31.7398 26.4793 31.7398 27.1244 31.7398C27.767 31.7398 27.9022 31.2604 27.9124 31.0513C27.9583 29.9905 28.0756 29.4525 28.2694 28.8405C28.6366 27.6854 29.626 26.6755 30.7403 25.8111L33.0379 24.225C35.111 22.6083 36.766 21.2823 37.4953 20.2444C38.7448 18.5359 39.622 16.4271 39.622 13.9306C39.622 9.86085 38.1838 6.78555 35.3048 4.70985V4.70985ZM24.3243 36.748C21.4479 36.6613 19.0713 38.6528 18.982 41.7715C18.8928 44.8901 21.1521 46.9505 24.0285 47.0347C27.0324 47.1239 29.3401 45.1987 29.4319 42.08C29.5212 38.9614 27.3282 36.8372 24.3243 36.748V36.748Z" fill="black"/>
</svg>
