<svg width="51" height="51" viewBox="0 0 51 51" fill="none" xmlns="http://www.w3.org/2000/svg">
<path d="M11.7188 27.8036C10.0277 27.8036 8.65625 29.179 8.65625 30.875C8.65625 32.571 10.0277 33.9464 11.7188 33.9464C13.4098 33.9464 14.7812 32.571 14.7812 30.875C14.7812 29.179 13.4098 27.8036 11.7188 27.8036ZM39.2812 27.8036C37.5902 27.8036 36.2188 29.179 36.2188 30.875C36.2188 32.571 37.5902 33.9464 39.2812 33.9464C40.9723 33.9464 42.3438 32.571 42.3438 30.875C42.3438 29.179 40.9723 27.8036 39.2812 27.8036ZM32.3906 30.1071H18.6094C18.1864 30.1071 17.8438 30.4508 17.8438 30.875V32.4107C17.8438 32.835 18.1864 33.1786 18.6094 33.1786H32.3906C32.8136 33.1786 33.1562 32.835 33.1562 32.4107V30.875C33.1562 30.4508 32.8136 30.1071 32.3906 30.1071ZM44.4636 21.6578L43.0252 14.2039C42.3973 10.9606 39.553 8.60714 36.2609 8.60714H34.6875V7.07143C34.6875 5.37542 33.3161 4 31.625 4H19.375C17.6839 4 16.3125 5.37542 16.3125 7.07143V8.60714H14.7391C11.446 8.60714 8.60266 10.9606 7.97389 14.2039L6.53547 21.6578C3.28061 23.0755 1 26.3206 1 30.1071V34.7143C1 36.9823 2.23936 38.9413 4.0625 40.0048V44.6964C4.0625 45.9682 5.09131 47 6.35938 47H9.42188C10.6899 47 11.7188 45.9682 11.7188 44.6964V40.8571H39.2812V44.6964C39.2812 45.9682 40.3101 47 41.5781 47H44.6406C45.9087 47 46.9375 45.9682 46.9375 44.6964V40.0048C48.7606 38.9404 50 36.9823 50 34.7143V30.1071C50 26.3206 47.7194 23.0755 44.4636 21.6578ZM12.4844 15.0802C12.694 13.9985 13.6414 13.2143 14.7391 13.2143H36.2609C37.3586 13.2143 38.307 13.9985 38.5156 15.0802L39.6373 20.8929H11.3627L12.4844 15.0802ZM45.4062 34.7143C45.4062 35.5608 44.7191 36.25 43.875 36.25H7.125C6.2809 36.25 5.59375 35.5608 5.59375 34.7143V30.1071C5.59375 27.5665 7.65424 25.5 10.1875 25.5H40.8125C43.3458 25.5 45.4062 27.5665 45.4062 30.1071V34.7143Z" fill="black"/>
</svg>
