<svg width="58" height="58" viewBox="0 0 58 58" fill="none" xmlns="http://www.w3.org/2000/svg">
<path fill-rule="evenodd" clip-rule="evenodd" d="M13.2917 53.1667V35.0417H9.66675V21.7501C9.66675 19.0917 11.8417 16.9167 14.5001 16.9167H21.7501C24.4084 16.9167 26.5834 19.0917 26.5834 21.7501V35.0417H22.9584V53.1667H13.2917V53.1667ZM43.5 53.1667V38.6667H50.75L44.6117 20.2276C43.935 18.2459 42.0983 16.9167 40.02 16.9167H39.73C37.6517 16.9167 35.7908 18.2459 35.1383 20.2276L29 38.6667H36.25V53.1667H43.5V53.1667ZM18.1251 14.4999C20.8076 14.4999 22.9584 12.3491 22.9584 9.66659C22.9584 6.98409 20.8076 4.83325 18.1251 4.83325C15.4426 4.83325 13.2917 6.98409 13.2917 9.66659C13.2917 12.3491 15.4426 14.4999 18.1251 14.4999V14.4999ZM39.8751 14.4999C42.5576 14.4999 44.7084 12.3491 44.7084 9.66659C44.7084 6.98409 42.5576 4.83325 39.8751 4.83325C37.1926 4.83325 35.0417 6.98409 35.0417 9.66659C35.0417 12.3491 37.1926 14.4999 39.8751 14.4999V14.4999Z" fill="black"/>
</svg>
