<svg width="4547" height="1856" viewBox="0 0 4547 1856" fill="none" xmlns="http://www.w3.org/2000/svg">
<g filter="url(#filter0_d)">
<path d="M2060 827.338L3253.5 209.672L4447 827.338L3253.5 1445L2060 827.338Z" fill="#FFB2C9"/>
</g>
<path d="M3179.79 1128.92L3575.3 924.23L3634.09 954.651L3238.58 1159.34L3179.79 1128.92Z" fill="black"/>
<g opacity="0.1" filter="url(#filter1_d)">
<path opacity="0.1" d="M3439.69 499.546L3127.12 813.908L3234.6 872.644L3547.17 558.281L3439.69 499.546Z" fill="black"/>
<path opacity="0.1" d="M2937.33 604.052L3351.16 618.766L3382.51 669.424L2968.68 654.71L2937.33 604.052Z" fill="black"/>
<path opacity="0.1" d="M2922.89 632.281L3301.28 680.742L3311.71 705.636L2933.32 657.176L2922.89 632.281Z" fill="black"/>
<path opacity="0.1" d="M3074.3 776.417L3240.5 832.451L3233.97 874.696L3067.77 818.665L3074.3 776.417Z" fill="black"/>
<path opacity="0.1" d="M3125.16 816.179L3435.12 500.395L3506.89 539.43L3196.93 855.215L3125.16 816.179Z" fill="black"/>
<path opacity="0.1" d="M3161.92 835.056L3474.38 521.703L3546.02 560.886L3233.55 874.241L3161.92 835.056Z" fill="black"/>
<path opacity="0.1" d="M3466.54 554.787C3435.9 538.075 3422.04 513.272 3435.72 499.443C3449.39 485.614 3485.39 487.995 3516.05 504.708C3546.69 521.42 3560.53 546.223 3546.87 560.052C3533.2 573.88 3497.19 571.5 3466.54 554.787Z" fill="black"/>
<path opacity="0.1" d="M2932.61 613.747L2937.34 604.084L2956.39 612.295L2951.66 621.958L2932.61 613.747Z" fill="black"/>
<path opacity="0.1" d="M3011.87 667.209L2912.25 655.17L2937.2 604.119L3011.87 667.209Z" fill="black"/>
<path opacity="0.1" d="M3119.2 633.029L3286.05 647.487L3305.36 685.223L3138.51 670.764L3119.2 633.029Z" fill="black"/>
<path opacity="0.1" d="M3167.63 852.179L3042.15 810.091L3074.37 776.415L3167.63 852.179Z" fill="black"/>
<path opacity="0.1" d="M3074.34 776.373L3167.17 784.67L3179.89 809.813L3087.06 801.516L3074.34 776.373Z" fill="black"/>
</g>
<path d="M3878.13 246.844L3405.23 246.77L3405.31 329.276L3878.21 329.351L3878.13 246.844Z" fill="black"/>
<path d="M3775.14 352.996L3367.98 294.636L3362.21 335.474L3769.36 393.835L3775.14 352.996Z" fill="black"/>
<path d="M3594.68 609.211L3440.91 525.713L3402.8 596.449L3556.57 679.946L3594.68 609.211Z" fill="black"/>
<path d="M4061.64 44.7771L3471.65 588.92L3527.35 649.687L4117.34 105.544L4061.64 44.7771Z" fill="black"/>
<path d="M4092.13 77.9433L3500.98 618.186L3556.4 679.206L4147.56 138.964L4092.13 77.9433Z" fill="black"/>
<path d="M4064.73 41.5753L4061.29 44.7392C4036.29 67.7006 4034.58 106.635 4057.46 131.703L4060.74 135.289C4083.62 160.356 4122.44 162.063 4147.43 139.102L4150.88 135.938C4175.88 112.977 4177.59 74.0419 4154.7 48.9747L4151.43 45.3882C4128.54 20.321 4089.73 18.614 4064.73 41.5753Z" fill="black"/>
<path d="M3405.22 246.821L3392.73 263.192L3409.06 275.74L3421.55 259.37L3405.22 246.821Z" fill="black"/>
<path d="M3446.76 347.54L3339.05 333.372L3405.03 246.89L3446.76 347.54Z" fill="black"/>
<path d="M3781.34 298.517L3596.82 284.29L3592.16 345.988L3776.68 360.215L3781.34 298.517Z" fill="black"/>
<path d="M3495.3 646.354L3379.06 583.683L3441 525.705L3495.3 646.354Z" fill="black"/>
<path d="M3543.47 533.973L3441 525.637L3437.72 566.755L3540.2 575.091L3543.47 533.973Z" fill="black"/>
<g filter="url(#filter2_d)">
<path d="M539 1147C539 1189 530.667 1224 514 1252C498 1279.33 477 1301.33 451 1318C425.667 1334.67 396.667 1346.33 364 1353C332 1359.67 300 1363 268 1363H216V1277H267C287 1277 307.333 1275.33 328 1272C348.667 1268.67 367 1262 383 1252C399.667 1242.67 413 1229.67 423 1213C433.667 1195.67 439 1173.67 439 1147C439 1123.67 433.667 1104 423 1088C413 1072 399.667 1059 383 1049C367 1039 348.667 1032 328 1028C307.333 1023.33 287 1021 267 1021H175V1656H80V937H268C300 937 332 940.333 364 947C396.667 953.667 426 965 452 981C477.333 997 498 1018.67 514 1046C530.667 1072.67 539 1106.33 539 1147ZM740.57 1051H626.57V937H740.57V1051ZM730.57 1657H638.57V1159H730.57V1657ZM1303.57 1318H1207.57C1206.9 1308 1204.9 1297 1201.57 1285C1198.24 1273 1192.57 1262 1184.57 1252C1175.9 1242 1164.24 1233.67 1149.57 1227C1135.57 1219.67 1117.57 1216 1095.57 1216C1051.57 1216 1015.24 1230.33 986.57 1259C957.904 1287.67 943.57 1327.67 943.57 1379C943.57 1404.33 946.57 1429.67 952.57 1455C958.57 1479.67 969.904 1502 986.57 1522C1002.57 1542 1025.24 1558.33 1054.57 1571C1083.9 1583.67 1121.57 1590 1167.57 1590C1170.9 1590 1177.24 1589.33 1186.57 1588C1195.9 1586.67 1206.24 1584.67 1217.57 1582C1229.57 1578.67 1241.9 1575 1254.57 1571C1267.24 1566.33 1278.9 1561 1289.57 1555V1627C1258.24 1642.33 1226.24 1652.67 1193.57 1658C1161.57 1663.33 1130.24 1664.67 1099.57 1662C1068.9 1659.33 1039.9 1653.33 1012.57 1644C985.904 1634.67 963.237 1622.67 944.57 1608C916.57 1586.67 893.237 1557.67 874.57 1521C856.57 1484.33 847.57 1442 847.57 1394C847.57 1319.33 869.237 1258.67 912.57 1212C956.57 1164.67 1018.57 1141 1098.57 1141C1157.9 1141 1206.9 1156 1245.57 1186C1284.24 1216 1303.57 1260 1303.57 1318ZM1834.22 1023H1626.22V1658H1530.22V1023H1324.22V940H1834.22V1023ZM2280.98 1650H2187.98V1592H2183.98C2180.65 1597.33 2175.32 1604 2167.98 1612C2160.65 1620 2150.65 1627.67 2137.98 1635C2125.32 1642.33 2109.32 1648.67 2089.98 1654C2071.32 1659.33 2048.98 1662 2022.98 1662C2004.98 1662 1986.98 1659 1968.98 1653C1951.65 1647 1935.98 1638 1921.98 1626C1907.98 1614.67 1896.65 1600.67 1887.98 1584C1879.98 1567.33 1875.98 1548.33 1875.98 1527C1875.98 1489 1887.65 1456 1910.98 1428C1934.98 1399.33 1963.98 1380 1997.98 1370C2019.98 1364 2040.32 1359.67 2058.98 1357C2078.32 1354.33 2095.98 1352.67 2111.98 1352C2127.32 1351.33 2141.32 1351.33 2153.98 1352C2166.65 1352.67 2177.98 1353 2187.98 1353V1317C2187.98 1309 2187.32 1299.67 2185.98 1289C2184.65 1278.33 2180.32 1266.67 2172.98 1254C2166.98 1244 2156.32 1235.33 2140.98 1228C2125.65 1220 2107.65 1216 2086.98 1216C2057.65 1216 2034.32 1223 2016.98 1237C1999.65 1250.33 1990.98 1270 1990.98 1296H1889.98C1889.98 1276.67 1893.98 1257.67 1901.98 1239C1909.98 1220.33 1922.32 1203.67 1938.98 1189C1955.65 1174.33 1976.32 1162.67 2000.98 1154C2025.65 1144.67 2054.65 1140 2087.98 1140C2154.65 1140 2203.32 1157 2233.98 1191C2265.32 1224.33 2280.98 1264.67 2280.98 1312V1650ZM2187.98 1459V1418C2171.32 1417.33 2152.65 1417.33 2131.98 1418C2111.98 1418 2090.98 1420.67 2068.98 1426C2058.32 1428.67 2047.32 1432.67 2035.98 1438C2025.32 1442.67 2015.32 1448.67 2005.98 1456C1996.65 1463.33 1988.98 1472.33 1982.98 1483C1977.65 1493 1974.98 1504 1974.98 1516C1974.98 1542.67 1983.32 1561 1999.98 1571C2017.32 1581 2036.98 1586 2058.98 1586C2078.32 1586 2100.65 1579.33 2125.98 1566C2151.32 1552.67 2169.32 1533.67 2179.98 1509C2181.98 1501.67 2183.65 1494 2184.98 1486C2186.98 1477.33 2187.98 1468.33 2187.98 1459ZM2514.75 1654H2422.75V936H2514.75V1654ZM3105.75 1652H2984.75L2762.75 1416H2758.75V1652H2668.75V934H2758.75V1344L2965.75 1155L3083.75 1154L2842.75 1375L3105.75 1652Z" fill="#FFF3F3"/>
<path d="M514 1252L496.814 1241.77L496.777 1241.83L496.74 1241.9L514 1252ZM451 1318L440.207 1301.16L440.107 1301.23L440.008 1301.29L451 1318ZM364 1353L360.001 1333.4L359.961 1333.41L359.921 1333.42L364 1353ZM216 1363H196V1383H216V1363ZM216 1277V1257H196V1277H216ZM328 1272L324.815 1252.26L324.815 1252.26L328 1272ZM383 1252L373.228 1234.55L372.808 1234.78L372.4 1235.04L383 1252ZM423 1213L405.967 1202.52L405.908 1202.61L405.85 1202.71L423 1213ZM423 1088L406.04 1098.6L406.196 1098.85L406.359 1099.09L423 1088ZM383 1049L372.4 1065.96L372.554 1066.06L372.71 1066.15L383 1049ZM328 1028L323.595 1047.51L323.896 1047.58L324.2 1047.64L328 1028ZM175 1021V1001H155V1021H175ZM175 1656V1676H195V1656H175ZM80 1656H60V1676H80V1656ZM80 937V917H60V937H80ZM364 947L359.921 966.58L359.961 966.588L360.001 966.596L364 947ZM452 981L462.68 964.09L462.581 964.028L462.482 963.967L452 981ZM514 1046L496.74 1056.1L496.886 1056.35L497.04 1056.6L514 1046ZM519 1147C519 1186.42 511.179 1217.64 496.814 1241.77L531.186 1262.23C550.154 1230.36 559 1191.58 559 1147H519ZM496.74 1241.9C482.292 1266.58 463.481 1286.24 440.207 1301.16L461.793 1334.84C490.52 1316.42 513.708 1292.09 531.26 1262.1L496.74 1241.9ZM440.008 1301.29C417.003 1316.43 390.422 1327.2 360.001 1333.4L367.999 1372.6C402.911 1365.47 434.331 1352.91 461.992 1334.71L440.008 1301.29ZM359.921 1333.42C329.234 1339.81 298.6 1343 268 1343V1383C301.4 1383 334.766 1379.52 368.079 1372.58L359.921 1333.42ZM268 1343H216V1383H268V1343ZM236 1363V1277H196V1363H236ZM216 1297H267V1257H216V1297ZM267 1297C288.115 1297 309.514 1295.24 331.185 1291.74L324.815 1252.26C305.153 1255.43 285.885 1257 267 1257V1297ZM331.185 1291.74C354.195 1288.03 375.103 1280.52 393.6 1268.96L372.4 1235.04C358.897 1243.48 343.138 1249.3 324.815 1252.26L331.185 1291.74ZM392.772 1269.45C412.535 1258.38 428.389 1242.89 440.15 1223.29L405.85 1202.71C397.611 1216.44 386.798 1226.95 373.228 1234.55L392.772 1269.45ZM440.033 1223.48C453.154 1202.16 459 1176.24 459 1147H419C419 1171.09 414.179 1189.17 405.967 1202.52L440.033 1223.48ZM459 1147C459 1120.57 452.927 1096.84 439.641 1076.91L406.359 1099.09C414.406 1111.16 419 1126.76 419 1147H459ZM439.96 1077.4C428.234 1058.64 412.582 1043.43 393.29 1031.85L372.71 1066.15C386.752 1074.57 397.766 1085.36 406.04 1098.6L439.96 1077.4ZM393.6 1032.04C375.29 1020.6 354.601 1012.78 331.8 1008.36L324.2 1047.64C342.733 1051.22 358.71 1057.4 372.4 1065.96L393.6 1032.04ZM332.405 1008.49C310.378 1003.52 288.567 1001 267 1001V1041C285.433 1041 304.289 1043.15 323.595 1047.51L332.405 1008.49ZM267 1001H175V1041H267V1001ZM155 1021V1656H195V1021H155ZM175 1636H80V1676H175V1636ZM100 1656V937H60V1656H100ZM80 957H268V917H80V957ZM268 957C298.6 957 329.234 960.186 359.921 966.58L368.079 927.42C334.766 920.48 301.4 917 268 917V957ZM360.001 966.596C390.584 972.838 417.688 983.368 441.518 998.033L462.482 963.967C434.312 946.631 402.749 934.496 367.999 927.404L360.001 966.596ZM441.32 997.91C463.792 1012.1 482.262 1031.37 496.74 1056.1L531.26 1035.9C513.738 1005.96 490.874 981.897 462.68 964.09L441.32 997.91ZM497.04 1056.6C511.216 1079.28 519 1109 519 1147H559C559 1103.67 550.118 1066.05 530.96 1035.4L497.04 1056.6ZM740.57 1051V1071H760.57V1051H740.57ZM626.57 1051H606.57V1071H626.57V1051ZM626.57 937V917H606.57V937H626.57ZM740.57 937H760.57V917H740.57V937ZM730.57 1657V1677H750.57V1657H730.57ZM638.57 1657H618.57V1677H638.57V1657ZM638.57 1159V1139H618.57V1159H638.57ZM730.57 1159H750.57V1139H730.57V1159ZM740.57 1031H626.57V1071H740.57V1031ZM646.57 1051V937H606.57V1051H646.57ZM626.57 957H740.57V917H626.57V957ZM720.57 937V1051H760.57V937H720.57ZM730.57 1637H638.57V1677H730.57V1637ZM658.57 1657V1159H618.57V1657H658.57ZM638.57 1179H730.57V1139H638.57V1179ZM710.57 1159V1657H750.57V1159H710.57ZM1303.57 1318V1338H1323.57V1318H1303.57ZM1207.57 1318L1187.61 1319.33L1188.86 1338H1207.57V1318ZM1184.57 1252L1200.19 1239.51L1199.94 1239.2L1199.68 1238.9L1184.57 1252ZM1149.57 1227L1140.29 1244.72L1140.79 1244.98L1141.29 1245.21L1149.57 1227ZM986.57 1259L1000.71 1273.14L1000.71 1273.14L986.57 1259ZM952.57 1455L933.109 1459.61L933.123 1459.67L933.137 1459.73L952.57 1455ZM986.57 1522L1002.19 1509.51L1002.06 1509.35L1001.93 1509.2L986.57 1522ZM1054.57 1571L1046.64 1589.36L1054.57 1571ZM1186.57 1588L1189.4 1607.8L1189.4 1607.8L1186.57 1588ZM1217.57 1582L1222.15 1601.47L1222.54 1601.38L1222.92 1601.27L1217.57 1582ZM1254.57 1571L1260.59 1590.07L1261.04 1589.93L1261.48 1589.77L1254.57 1571ZM1289.57 1555H1309.57V1520.8L1279.77 1537.57L1289.57 1555ZM1289.57 1627L1298.36 1644.96L1309.57 1639.48V1627H1289.57ZM1193.57 1658L1190.35 1638.26L1190.31 1638.27L1190.28 1638.27L1193.57 1658ZM1099.57 1662L1097.84 1681.92L1099.57 1662ZM1012.57 1644L1005.96 1662.88L1006.04 1662.9L1006.11 1662.93L1012.57 1644ZM944.57 1608L956.927 1592.27L956.81 1592.18L956.691 1592.09L944.57 1608ZM874.57 1521L856.617 1529.81L856.681 1529.94L856.747 1530.07L874.57 1521ZM912.57 1212L897.922 1198.38L897.914 1198.39L912.57 1212ZM1245.57 1186L1257.83 1170.2L1257.83 1170.2L1245.57 1186ZM1303.57 1298H1207.57V1338H1303.57V1298ZM1227.53 1316.67C1226.75 1305.03 1224.46 1292.66 1220.84 1279.65L1182.3 1290.35C1185.35 1301.34 1187.06 1310.97 1187.61 1319.33L1227.53 1316.67ZM1220.84 1279.65C1216.76 1264.97 1209.83 1251.55 1200.19 1239.51L1168.95 1264.49C1175.31 1272.45 1179.71 1281.03 1182.3 1290.35L1220.84 1279.65ZM1199.68 1238.9C1188.77 1226.31 1174.58 1216.4 1157.85 1208.79L1141.29 1245.21C1153.9 1250.94 1163.04 1257.69 1169.46 1265.1L1199.68 1238.9ZM1158.85 1209.28C1141.09 1199.98 1119.61 1196 1095.57 1196V1236C1115.53 1236 1130.05 1239.35 1140.29 1244.72L1158.85 1209.28ZM1095.57 1196C1046.77 1196 1005.18 1212.1 972.428 1244.86L1000.71 1273.14C1025.29 1248.56 1056.38 1236 1095.57 1236V1196ZM972.428 1244.86C939.077 1278.21 923.57 1323.85 923.57 1379H963.57C963.57 1331.49 976.73 1297.12 1000.71 1273.14L972.428 1244.86ZM923.57 1379C923.57 1405.93 926.761 1432.81 933.109 1459.61L972.032 1450.39C966.38 1426.53 963.57 1402.74 963.57 1379H923.57ZM933.137 1459.73C939.878 1487.44 952.636 1512.52 971.206 1534.8L1001.93 1509.2C987.172 1491.48 977.263 1471.89 972.004 1450.27L933.137 1459.73ZM970.953 1534.49C989.442 1557.61 1015.03 1575.71 1046.64 1589.36L1062.5 1552.64C1035.44 1540.95 1015.7 1526.39 1002.19 1509.51L970.953 1534.49ZM1046.64 1589.36C1079.33 1603.47 1119.95 1610 1167.57 1610V1570C1123.19 1570 1088.48 1563.86 1062.5 1552.64L1046.64 1589.36ZM1167.57 1610C1172.54 1610 1180.24 1609.11 1189.4 1607.8L1183.74 1568.2C1174.23 1569.56 1169.27 1570 1167.57 1570V1610ZM1189.4 1607.8C1199.44 1606.36 1210.37 1604.24 1222.15 1601.47L1212.99 1562.53C1202.11 1565.09 1192.37 1566.97 1183.74 1568.2L1189.4 1607.8ZM1222.92 1601.27C1235.16 1597.87 1247.72 1594.14 1260.59 1590.07L1248.55 1551.93C1236.09 1555.86 1223.98 1559.46 1212.22 1562.73L1222.92 1601.27ZM1261.48 1589.77C1275.05 1584.77 1287.69 1579 1299.38 1572.43L1279.77 1537.57C1270.11 1543 1259.43 1547.9 1247.66 1552.23L1261.48 1589.77ZM1269.57 1555V1627H1309.57V1555H1269.57ZM1280.78 1609.04C1251.11 1623.55 1220.98 1633.26 1190.35 1638.26L1196.79 1677.74C1231.49 1672.07 1265.36 1661.11 1298.36 1644.96L1280.78 1609.04ZM1190.28 1638.27C1159.85 1643.34 1130.21 1644.59 1101.3 1642.08L1097.84 1681.92C1130.27 1684.74 1163.29 1683.32 1196.86 1677.73L1190.28 1638.27ZM1101.3 1642.08C1072.14 1639.54 1044.74 1633.85 1019.03 1625.07L1006.11 1662.93C1035.07 1672.82 1065.67 1679.13 1097.84 1681.92L1101.3 1642.08ZM1019.18 1625.12C994.203 1616.38 973.57 1605.35 956.927 1592.27L932.214 1623.73C952.904 1639.98 977.604 1652.95 1005.96 1662.88L1019.18 1625.12ZM956.691 1592.09C931.453 1572.86 909.926 1546.37 892.394 1511.93L856.747 1530.07C876.548 1568.97 901.688 1600.47 932.449 1623.91L956.691 1592.09ZM892.524 1512.19C876.087 1478.7 867.57 1439.48 867.57 1394H827.57C827.57 1444.52 837.054 1489.96 856.617 1529.81L892.524 1512.19ZM867.57 1394C867.57 1323.45 887.911 1267.95 927.226 1225.61L897.914 1198.39C850.563 1249.39 827.57 1315.21 827.57 1394H867.57ZM927.219 1225.62C966.567 1183.29 1022.71 1161 1098.57 1161V1121C1014.43 1121 946.573 1146.05 897.922 1198.38L927.219 1225.62ZM1098.57 1161C1154.43 1161 1198.85 1175.06 1233.31 1201.8L1257.83 1170.2C1214.96 1136.94 1161.37 1121 1098.57 1121V1161ZM1233.31 1201.8C1266.16 1227.29 1283.57 1264.9 1283.57 1318H1323.57C1323.57 1255.1 1302.31 1204.71 1257.83 1170.2L1233.31 1201.8ZM1834.22 1023V1043H1854.22V1023H1834.22ZM1626.22 1023V1003H1606.22V1023H1626.22ZM1626.22 1658V1678H1646.22V1658H1626.22ZM1530.22 1658H1510.22V1678H1530.22V1658ZM1530.22 1023H1550.22V1003H1530.22V1023ZM1324.22 1023H1304.22V1043H1324.22V1023ZM1324.22 940V920H1304.22V940H1324.22ZM1834.22 940H1854.22V920H1834.22V940ZM1834.22 1003H1626.22V1043H1834.22V1003ZM1606.22 1023V1658H1646.22V1023H1606.22ZM1626.22 1638H1530.22V1678H1626.22V1638ZM1550.22 1658V1023H1510.22V1658H1550.22ZM1530.22 1003H1324.22V1043H1530.22V1003ZM1344.22 1023V940H1304.22V1023H1344.22ZM1324.22 960H1834.22V920H1324.22V960ZM1814.22 940V1023H1854.22V940H1814.22ZM2280.98 1650V1670H2300.98V1650H2280.98ZM2187.98 1650H2167.98V1670H2187.98V1650ZM2187.98 1592H2207.98V1572H2187.98V1592ZM2183.98 1592V1572H2172.9L2167.02 1581.4L2183.98 1592ZM2167.98 1612L2153.24 1598.49L2153.24 1598.49L2167.98 1612ZM2137.98 1635L2127.96 1617.69L2127.96 1617.69L2137.98 1635ZM2089.98 1654L2084.67 1634.72L2084.58 1634.74L2084.49 1634.77L2089.98 1654ZM1968.98 1653L1962.44 1671.9L1962.55 1671.94L1962.66 1671.97L1968.98 1653ZM1921.98 1626L1935 1610.81L1934.79 1610.63L1934.57 1610.46L1921.98 1626ZM1887.98 1584L1869.95 1592.65L1870.09 1592.94L1870.24 1593.23L1887.98 1584ZM1910.98 1428L1895.65 1415.16L1895.63 1415.18L1895.62 1415.2L1910.98 1428ZM1997.98 1370L1992.72 1350.7L1992.53 1350.76L1992.34 1350.81L1997.98 1370ZM2058.98 1357L2056.25 1337.19L2056.2 1337.19L2056.16 1337.2L2058.98 1357ZM2111.98 1352L2112.82 1371.98L2112.84 1371.98L2112.85 1371.98L2111.98 1352ZM2187.98 1353V1373H2207.98V1353H2187.98ZM2185.98 1289L2205.83 1286.52L2205.83 1286.52L2185.98 1289ZM2172.98 1254L2190.29 1243.98L2190.21 1243.84L2190.13 1243.71L2172.98 1254ZM2140.98 1228L2131.73 1245.73L2132.04 1245.89L2132.36 1246.04L2140.98 1228ZM2016.98 1237L2029.18 1252.85L2029.37 1252.71L2029.55 1252.56L2016.98 1237ZM1990.98 1296V1316H2010.98V1296H1990.98ZM1889.98 1296H1869.98V1316H1889.98V1296ZM1938.98 1189L1925.77 1173.99L1925.77 1173.99L1938.98 1189ZM2000.98 1154L2007.61 1172.87L2007.84 1172.79L2008.06 1172.71L2000.98 1154ZM2233.98 1191L2219.13 1204.4L2219.27 1204.55L2219.41 1204.7L2233.98 1191ZM2187.98 1418H2207.98V1398.78L2188.78 1398.02L2187.98 1418ZM2131.98 1418V1438H2132.31L2132.63 1437.99L2131.98 1418ZM2068.98 1426L2064.27 1406.56L2064.2 1406.58L2064.13 1406.6L2068.98 1426ZM2035.98 1438L2044 1456.32L2044.25 1456.21L2044.5 1456.1L2035.98 1438ZM2005.98 1456L1993.63 1440.27L1993.63 1440.27L2005.98 1456ZM1982.98 1483L1965.55 1473.19L1965.44 1473.39L1965.34 1473.59L1982.98 1483ZM1999.98 1571L1989.69 1588.15L1989.84 1588.24L1989.99 1588.32L1999.98 1571ZM2125.98 1566L2135.3 1583.7L2135.3 1583.7L2125.98 1566ZM2179.98 1509L2198.34 1516.94L2198.91 1515.63L2199.28 1514.26L2179.98 1509ZM2184.98 1486L2165.5 1481.5L2165.36 1482.1L2165.26 1482.71L2184.98 1486ZM2280.98 1630H2187.98V1670H2280.98V1630ZM2207.98 1650V1592H2167.98V1650H2207.98ZM2187.98 1572H2183.98V1612H2187.98V1572ZM2167.02 1581.4C2164.64 1585.21 2160.25 1590.84 2153.24 1598.49L2182.73 1625.51C2190.39 1617.16 2196.66 1609.45 2200.94 1602.6L2167.02 1581.4ZM2153.24 1598.49C2147.66 1604.57 2139.44 1611.05 2127.96 1617.69L2148.01 1652.31C2161.86 1644.29 2173.64 1635.43 2182.73 1625.51L2153.24 1598.49ZM2127.96 1617.69C2117.2 1623.92 2102.91 1629.69 2084.67 1634.72L2095.3 1673.28C2115.72 1667.65 2133.43 1660.75 2148.01 1652.31L2127.96 1617.69ZM2084.49 1634.77C2068.1 1639.45 2047.71 1642 2022.98 1642V1682C2050.26 1682 2074.54 1679.21 2095.48 1673.23L2084.49 1634.77ZM2022.98 1642C2007.25 1642 1991.38 1639.38 1975.31 1634.03L1962.66 1671.97C1982.59 1678.62 2002.72 1682 2022.98 1682V1642ZM1975.53 1634.1C1960.58 1628.93 1947.1 1621.19 1935 1610.81L1908.97 1641.19C1924.86 1654.81 1942.72 1665.07 1962.44 1671.9L1975.53 1634.1ZM1934.57 1610.46C1922.8 1600.93 1913.18 1589.11 1905.73 1574.77L1870.24 1593.23C1880.12 1612.22 1893.17 1628.41 1909.4 1641.54L1934.57 1610.46ZM1906.01 1575.35C1899.5 1561.77 1895.98 1545.8 1895.98 1527H1855.98C1855.98 1550.87 1860.47 1572.9 1869.95 1592.65L1906.01 1575.35ZM1895.98 1527C1895.98 1493.46 1906.15 1465.05 1926.35 1440.8L1895.62 1415.2C1869.16 1446.95 1855.98 1484.54 1855.98 1527H1895.98ZM1926.32 1440.84C1947.93 1415.02 1973.63 1398.01 2003.63 1389.19L1992.34 1350.81C1954.34 1361.99 1922.04 1383.64 1895.65 1415.16L1926.32 1440.84ZM2003.25 1389.3C2024.61 1383.47 2044.12 1379.33 2061.81 1376.8L2056.16 1337.2C2036.52 1340.01 2015.36 1344.53 1992.72 1350.7L2003.25 1389.3ZM2061.72 1376.81C2080.55 1374.21 2097.57 1372.62 2112.82 1371.98L2111.15 1332.02C2094.4 1332.72 2076.08 1334.45 2056.25 1337.19L2061.72 1376.81ZM2112.85 1371.98C2127.67 1371.34 2141.02 1371.35 2152.93 1371.97L2155.04 1332.03C2141.61 1331.32 2126.96 1331.33 2111.12 1332.02L2112.85 1371.98ZM2152.93 1371.97C2165.86 1372.65 2177.56 1373 2187.98 1373V1333C2178.41 1333 2167.44 1332.68 2155.04 1332.03L2152.93 1371.97ZM2207.98 1353V1317H2167.98V1353H2207.98ZM2207.98 1317C2207.98 1307.94 2207.23 1297.75 2205.83 1286.52L2166.14 1291.48C2167.4 1301.58 2167.98 1310.06 2167.98 1317H2207.98ZM2205.83 1286.52C2204.07 1272.42 2198.51 1258.18 2190.29 1243.98L2155.68 1264.02C2162.12 1275.16 2165.23 1284.25 2166.14 1291.48L2205.83 1286.52ZM2190.13 1243.71C2181.39 1229.14 2166.95 1218.25 2149.61 1209.96L2132.36 1246.04C2145.68 1252.42 2152.58 1258.86 2155.83 1264.29L2190.13 1243.71ZM2150.24 1210.27C2131.54 1200.51 2110.25 1196 2086.98 1196V1236C2105.05 1236 2119.76 1239.49 2131.73 1245.73L2150.24 1210.27ZM2086.98 1196C2054.53 1196 2026.3 1203.77 2004.42 1221.44L2029.55 1252.56C2042.34 1242.23 2060.77 1236 2086.98 1236V1196ZM2004.79 1221.15C1981.58 1239 1970.98 1265.11 1970.98 1296H2010.98C2010.98 1274.89 2017.72 1261.66 2029.18 1252.85L2004.79 1221.15ZM1990.98 1276H1889.98V1316H1990.98V1276ZM1909.98 1296C1909.98 1279.51 1913.38 1263.18 1920.37 1246.88L1883.6 1231.12C1874.59 1252.15 1869.98 1273.82 1869.98 1296H1909.98ZM1920.37 1246.88C1927.09 1231.19 1937.55 1216.9 1952.2 1204.01L1925.77 1173.99C1907.08 1190.43 1892.88 1209.47 1883.6 1231.12L1920.37 1246.88ZM1952.2 1204.01C1966.63 1191.32 1984.95 1180.83 2007.61 1172.87L1994.35 1135.13C1967.69 1144.5 1944.68 1157.35 1925.77 1173.99L1952.2 1204.01ZM2008.06 1172.71C2029.96 1164.42 2056.46 1160 2087.98 1160V1120C2052.84 1120 2021.34 1124.91 1993.91 1135.29L2008.06 1172.71ZM2087.98 1160C2151.61 1160 2193.72 1176.22 2219.13 1204.4L2248.84 1177.6C2212.92 1137.78 2157.69 1120 2087.98 1120V1160ZM2219.41 1204.7C2247.13 1234.18 2260.98 1269.56 2260.98 1312H2300.98C2300.98 1259.77 2283.51 1214.48 2248.56 1177.3L2219.41 1204.7ZM2260.98 1312V1650H2300.98V1312H2260.98ZM2207.98 1459V1418H2167.98V1459H2207.98ZM2188.78 1398.02C2171.54 1397.33 2152.38 1397.33 2131.34 1398.01L2132.63 1437.99C2152.92 1437.33 2171.1 1437.34 2187.19 1437.98L2188.78 1398.02ZM2131.98 1398C2110.2 1398 2087.62 1400.9 2064.27 1406.56L2073.7 1445.44C2094.35 1440.43 2113.76 1438 2131.98 1438V1398ZM2064.13 1406.6C2052.05 1409.62 2039.82 1414.09 2027.47 1419.9L2044.5 1456.1C2054.82 1451.24 2064.59 1447.71 2073.84 1445.4L2064.13 1406.6ZM2027.97 1419.68C2015.72 1425.04 2004.27 1431.92 1993.63 1440.27L2018.34 1471.73C2026.37 1465.42 2034.91 1460.3 2044 1456.32L2027.97 1419.68ZM1993.63 1440.27C1982.17 1449.28 1972.8 1460.31 1965.55 1473.19L2000.42 1492.81C2005.17 1484.35 2011.14 1477.39 2018.34 1471.73L1993.63 1440.27ZM1965.34 1473.59C1958.37 1486.66 1954.98 1500.92 1954.98 1516H1994.98C1994.98 1507.08 1996.93 1499.34 2000.63 1492.41L1965.34 1473.59ZM1954.98 1516C1954.98 1546.77 1964.86 1573.25 1989.69 1588.15L2010.27 1553.85C2001.77 1548.75 1994.98 1538.56 1994.98 1516H1954.98ZM1989.99 1588.32C2010.66 1600.25 2033.83 1606 2058.98 1606V1566C2040.13 1566 2023.98 1561.75 2009.98 1553.68L1989.99 1588.32ZM2058.98 1606C2082.75 1606 2108.37 1597.87 2135.3 1583.7L2116.67 1548.3C2092.93 1560.79 2073.89 1566 2058.98 1566V1606ZM2135.3 1583.7C2164.39 1568.39 2185.74 1546.08 2198.34 1516.94L2161.63 1501.06C2152.9 1521.25 2138.25 1536.95 2116.67 1548.3L2135.3 1583.7ZM2199.28 1514.26C2201.47 1506.24 2203.28 1497.91 2204.71 1489.29L2165.26 1482.71C2164.03 1490.09 2162.5 1497.1 2160.69 1503.74L2199.28 1514.26ZM2204.47 1490.5C2206.83 1480.28 2207.98 1469.77 2207.98 1459H2167.98C2167.98 1466.89 2167.14 1474.38 2165.5 1481.5L2204.47 1490.5ZM2514.75 1654V1674H2534.75V1654H2514.75ZM2422.75 1654H2402.75V1674H2422.75V1654ZM2422.75 936V916H2402.75V936H2422.75ZM2514.75 936H2534.75V916H2514.75V936ZM2514.75 1634H2422.75V1674H2514.75V1634ZM2442.75 1654V936H2402.75V1654H2442.75ZM2422.75 956H2514.75V916H2422.75V956ZM2494.75 936V1654H2534.75V936H2494.75ZM3105.75 1652V1672H3152.32L3120.25 1638.23L3105.75 1652ZM2984.75 1652L2970.18 1665.7L2976.11 1672H2984.75V1652ZM2762.75 1416L2777.32 1402.3L2771.39 1396H2762.75V1416ZM2758.75 1416V1396H2738.75V1416H2758.75ZM2758.75 1652V1672H2778.75V1652H2758.75ZM2668.75 1652H2648.75V1672H2668.75V1652ZM2668.75 934V914H2648.75V934H2668.75ZM2758.75 934H2778.75V914H2758.75V934ZM2758.75 1344H2738.75V1389.34L2772.24 1358.77L2758.75 1344ZM2965.75 1155L2965.58 1135L2957.92 1135.07L2952.26 1140.23L2965.75 1155ZM3083.75 1154L3097.27 1168.74L3135.63 1133.56L3083.58 1134L3083.75 1154ZM2842.75 1375L2829.23 1360.26L2814.23 1374.01L2828.25 1388.77L2842.75 1375ZM3105.75 1632H2984.75V1672H3105.75V1632ZM2999.32 1638.3L2777.32 1402.3L2748.18 1429.7L2970.18 1665.7L2999.32 1638.3ZM2762.75 1396H2758.75V1436H2762.75V1396ZM2738.75 1416V1652H2778.75V1416H2738.75ZM2758.75 1632H2668.75V1672H2758.75V1632ZM2688.75 1652V934H2648.75V1652H2688.75ZM2668.75 954H2758.75V914H2668.75V954ZM2738.75 934V1344H2778.75V934H2738.75ZM2772.24 1358.77L2979.24 1169.77L2952.26 1140.23L2745.26 1329.23L2772.24 1358.77ZM2965.92 1175L3083.92 1174L3083.58 1134L2965.58 1135L2965.92 1175ZM3070.23 1139.26L2829.23 1360.26L2856.27 1389.74L3097.27 1168.74L3070.23 1139.26ZM2828.25 1388.77L3091.25 1665.77L3120.25 1638.23L2857.25 1361.23L2828.25 1388.77Z" fill="#FF6190"/>
</g>
<g filter="url(#filter3_d)">
<path d="M2578 536.5H2533.5V256.5H2578V536.5ZM2479 498.5H2222V457H2277.5C2277.5 449.667 2277.33 441.667 2277 433C2277 424 2276.83 415.667 2276.5 408C2275.83 393.667 2273.67 382.5 2270 374.5C2266.67 366.167 2264.33 361 2263 359L2300.5 342.5C2301.5 344.167 2303 346.667 2305 350C2307 353 2309.17 357 2311.5 362C2313.5 367 2315.33 373 2317 380C2319 387 2320.17 395 2320.5 404C2321.17 413 2321.5 422.167 2321.5 431.5C2321.83 440.833 2322 449.333 2322 457H2378V331.5H2231V289.5H2470V331.5H2423V457H2479V498.5ZM2567 730H2522V601H2328.5V559H2567V730ZM3061.3 542.5H2637.8V500.5H2825.3V462H2730.8V272.5H2963.3V314H2775.3V345H2957.3V387.5H2775.3V420.5H2966.3V462H2871.3V500.5H3061.3V542.5ZM2967.3 730H2922.3V619H2728.8V577H2967.3V730Z" fill="#FFF3F3"/>
<path d="M2578 536.5V546.5H2588V536.5H2578ZM2533.5 536.5H2523.5V546.5H2533.5V536.5ZM2533.5 256.5V246.5H2523.5V256.5H2533.5ZM2578 256.5H2588V246.5H2578V256.5ZM2479 498.5V508.5H2489V498.5H2479ZM2222 498.5H2212V508.5H2222V498.5ZM2222 457V447H2212V457H2222ZM2277.5 457V467H2287.5V457H2277.5ZM2277 433H2267V433.192L2267.01 433.384L2277 433ZM2276.5 408L2286.49 407.566L2286.49 407.55L2286.49 407.535L2276.5 408ZM2270 374.5L2260.72 378.214L2260.81 378.443L2260.91 378.667L2270 374.5ZM2263 359L2258.97 349.847L2248.08 354.641L2254.68 364.547L2263 359ZM2300.5 342.5L2309.07 337.355L2304.54 329.797L2296.47 333.347L2300.5 342.5ZM2305 350L2296.43 355.145L2296.55 355.349L2296.68 355.547L2305 350ZM2311.5 362L2320.78 358.286L2320.68 358.025L2320.56 357.771L2311.5 362ZM2317 380L2307.27 382.316L2307.32 382.533L2307.38 382.747L2317 380ZM2320.5 404L2310.51 404.37L2310.51 404.555L2310.53 404.739L2320.5 404ZM2321.5 431.5H2311.5V431.679L2311.51 431.857L2321.5 431.5ZM2322 457H2312V467H2322V457ZM2378 457V467H2388V457H2378ZM2378 331.5H2388V321.5H2378V331.5ZM2231 331.5H2221V341.5H2231V331.5ZM2231 289.5V279.5H2221V289.5H2231ZM2470 289.5H2480V279.5H2470V289.5ZM2470 331.5V341.5H2480V331.5H2470ZM2423 331.5V321.5H2413V331.5H2423ZM2423 457H2413V467H2423V457ZM2479 457H2489V447H2479V457ZM2567 730V740H2577V730H2567ZM2522 730H2512V740H2522V730ZM2522 601H2532V591H2522V601ZM2328.5 601H2318.5V611H2328.5V601ZM2328.5 559V549H2318.5V559H2328.5ZM2567 559H2577V549H2567V559ZM2578 526.5H2533.5V546.5H2578V526.5ZM2543.5 536.5V256.5H2523.5V536.5H2543.5ZM2533.5 266.5H2578V246.5H2533.5V266.5ZM2568 256.5V536.5H2588V256.5H2568ZM2479 488.5H2222V508.5H2479V488.5ZM2232 498.5V457H2212V498.5H2232ZM2222 467H2277.5V447H2222V467ZM2287.5 457C2287.5 449.518 2287.33 441.388 2286.99 432.616L2267.01 433.384C2267.34 441.945 2267.5 449.815 2267.5 457H2287.5ZM2287 433C2287 423.879 2286.83 415.399 2286.49 407.566L2266.51 408.434C2266.84 415.934 2267 424.121 2267 433H2287ZM2286.49 407.535C2285.8 392.628 2283.52 380.003 2279.09 370.333L2260.91 378.667C2263.81 384.997 2265.87 394.706 2266.51 408.465L2286.49 407.535ZM2279.28 370.786C2276.08 362.773 2273.36 356.505 2271.32 353.453L2254.68 364.547C2254.68 364.544 2254.73 364.628 2254.85 364.832C2254.96 365.03 2255.11 365.298 2255.29 365.649C2255.65 366.355 2256.1 367.293 2256.64 368.491C2257.72 370.888 2259.08 374.114 2260.72 378.214L2279.28 370.786ZM2267.03 368.153L2304.53 351.653L2296.47 333.347L2258.97 349.847L2267.03 368.153ZM2291.93 347.645C2292.93 349.312 2294.43 351.812 2296.43 355.145L2313.57 344.855C2311.57 341.522 2310.07 339.022 2309.07 337.355L2291.93 347.645ZM2296.68 355.547C2298.29 357.969 2300.22 361.474 2302.44 366.229L2320.56 357.771C2318.11 352.526 2315.71 348.031 2313.32 344.453L2296.68 355.547ZM2302.22 365.714C2303.98 370.138 2305.68 375.645 2307.27 382.316L2326.73 377.684C2324.98 370.355 2323.02 363.862 2320.78 358.286L2302.22 365.714ZM2307.38 382.747C2309.12 388.816 2310.2 395.993 2310.51 404.37L2330.49 403.63C2330.14 394.007 2328.88 385.184 2326.62 377.253L2307.38 382.747ZM2310.53 404.739C2311.18 413.485 2311.5 422.405 2311.5 431.5H2331.5C2331.5 421.929 2331.16 412.515 2330.47 403.261L2310.53 404.739ZM2311.51 431.857C2311.84 441.096 2312 449.475 2312 457H2332C2332 449.192 2331.83 440.571 2331.49 431.143L2311.51 431.857ZM2322 467H2378V447H2322V467ZM2388 457V331.5H2368V457H2388ZM2378 321.5H2231V341.5H2378V321.5ZM2241 331.5V289.5H2221V331.5H2241ZM2231 299.5H2470V279.5H2231V299.5ZM2460 289.5V331.5H2480V289.5H2460ZM2470 321.5H2423V341.5H2470V321.5ZM2413 331.5V457H2433V331.5H2413ZM2423 467H2479V447H2423V467ZM2469 457V498.5H2489V457H2469ZM2567 720H2522V740H2567V720ZM2532 730V601H2512V730H2532ZM2522 591H2328.5V611H2522V591ZM2338.5 601V559H2318.5V601H2338.5ZM2328.5 569H2567V549H2328.5V569ZM2557 559V730H2577V559H2557ZM3061.3 542.5V552.5H3071.3V542.5H3061.3ZM2637.8 542.5H2627.8V552.5H2637.8V542.5ZM2637.8 500.5V490.5H2627.8V500.5H2637.8ZM2825.3 500.5V510.5H2835.3V500.5H2825.3ZM2825.3 462H2835.3V452H2825.3V462ZM2730.8 462H2720.8V472H2730.8V462ZM2730.8 272.5V262.5H2720.8V272.5H2730.8ZM2963.3 272.5H2973.3V262.5H2963.3V272.5ZM2963.3 314V324H2973.3V314H2963.3ZM2775.3 314V304H2765.3V314H2775.3ZM2775.3 345H2765.3V355H2775.3V345ZM2957.3 345H2967.3V335H2957.3V345ZM2957.3 387.5V397.5H2967.3V387.5H2957.3ZM2775.3 387.5V377.5H2765.3V387.5H2775.3ZM2775.3 420.5H2765.3V430.5H2775.3V420.5ZM2966.3 420.5H2976.3V410.5H2966.3V420.5ZM2966.3 462V472H2976.3V462H2966.3ZM2871.3 462V452H2861.3V462H2871.3ZM2871.3 500.5H2861.3V510.5H2871.3V500.5ZM3061.3 500.5H3071.3V490.5H3061.3V500.5ZM2967.3 730V740H2977.3V730H2967.3ZM2922.3 730H2912.3V740H2922.3V730ZM2922.3 619H2932.3V609H2922.3V619ZM2728.8 619H2718.8V629H2728.8V619ZM2728.8 577V567H2718.8V577H2728.8ZM2967.3 577H2977.3V567H2967.3V577ZM3061.3 532.5H2637.8V552.5H3061.3V532.5ZM2647.8 542.5V500.5H2627.8V542.5H2647.8ZM2637.8 510.5H2825.3V490.5H2637.8V510.5ZM2835.3 500.5V462H2815.3V500.5H2835.3ZM2825.3 452H2730.8V472H2825.3V452ZM2740.8 462V272.5H2720.8V462H2740.8ZM2730.8 282.5H2963.3V262.5H2730.8V282.5ZM2953.3 272.5V314H2973.3V272.5H2953.3ZM2963.3 304H2775.3V324H2963.3V304ZM2765.3 314V345H2785.3V314H2765.3ZM2775.3 355H2957.3V335H2775.3V355ZM2947.3 345V387.5H2967.3V345H2947.3ZM2957.3 377.5H2775.3V397.5H2957.3V377.5ZM2765.3 387.5V420.5H2785.3V387.5H2765.3ZM2775.3 430.5H2966.3V410.5H2775.3V430.5ZM2956.3 420.5V462H2976.3V420.5H2956.3ZM2966.3 452H2871.3V472H2966.3V452ZM2861.3 462V500.5H2881.3V462H2861.3ZM2871.3 510.5H3061.3V490.5H2871.3V510.5ZM3051.3 500.5V542.5H3071.3V500.5H3051.3ZM2967.3 720H2922.3V740H2967.3V720ZM2932.3 730V619H2912.3V730H2932.3ZM2922.3 609H2728.8V629H2922.3V609ZM2738.8 619V577H2718.8V619H2738.8ZM2728.8 587H2967.3V567H2728.8V587ZM2957.3 577V730H2977.3V577H2957.3Z" fill="#FF6190"/>
</g>
<defs>
<filter id="filter0_d" x="1960" y="209.672" width="2587" height="1435.33" filterUnits="userSpaceOnUse" color-interpolation-filters="sRGB">
<feFlood flood-opacity="0" result="BackgroundImageFix"/>
<feColorMatrix in="SourceAlpha" type="matrix" values="0 0 0 0 0 0 0 0 0 0 0 0 0 0 0 0 0 0 127 0"/>
<feOffset dy="100"/>
<feGaussianBlur stdDeviation="50"/>
<feColorMatrix type="matrix" values="0 0 0 0 1 0 0 0 0 0.156863 0 0 0 0 0.411765 0 0 0 0.75 0"/>
<feBlend mode="normal" in2="BackgroundImageFix" result="effect1_dropShadow"/>
<feBlend mode="normal" in="SourceGraphic" in2="effect1_dropShadow" result="shape"/>
</filter>
<filter id="filter1_d" x="2910.25" y="488.443" width="643.887" height="388.253" filterUnits="userSpaceOnUse" color-interpolation-filters="sRGB">
<feFlood flood-opacity="0" result="BackgroundImageFix"/>
<feColorMatrix in="SourceAlpha" type="matrix" values="0 0 0 0 0 0 0 0 0 0 0 0 0 0 0 0 0 0 127 0"/>
<feOffset/>
<feGaussianBlur stdDeviation="1"/>
<feColorMatrix type="matrix" values="0 0 0 0 0 0 0 0 0 0 0 0 0 0 0 0 0 0 1 0"/>
<feBlend mode="normal" in2="BackgroundImageFix" result="effect1_dropShadow"/>
<feBlend mode="normal" in="SourceGraphic" in2="effect1_dropShadow" result="shape"/>
</filter>
<filter id="filter2_d" x="20" y="914" width="3172.32" height="849.333" filterUnits="userSpaceOnUse" color-interpolation-filters="sRGB">
<feFlood flood-opacity="0" result="BackgroundImageFix"/>
<feColorMatrix in="SourceAlpha" type="matrix" values="0 0 0 0 0 0 0 0 0 0 0 0 0 0 0 0 0 0 127 0"/>
<feOffset dy="40"/>
<feGaussianBlur stdDeviation="20"/>
<feColorMatrix type="matrix" values="0 0 0 0 1 0 0 0 0 0.371179 0 0 0 0 0.56256 0 0 0 1 0"/>
<feBlend mode="normal" in2="BackgroundImageFix" result="effect1_dropShadow"/>
<feBlend mode="normal" in="SourceGraphic" in2="effect1_dropShadow" result="shape"/>
</filter>
<filter id="filter3_d" x="2172" y="246.5" width="939.305" height="573.5" filterUnits="userSpaceOnUse" color-interpolation-filters="sRGB">
<feFlood flood-opacity="0" result="BackgroundImageFix"/>
<feColorMatrix in="SourceAlpha" type="matrix" values="0 0 0 0 0 0 0 0 0 0 0 0 0 0 0 0 0 0 127 0"/>
<feOffset dy="40"/>
<feGaussianBlur stdDeviation="20"/>
<feColorMatrix type="matrix" values="0 0 0 0 1 0 0 0 0 0.371179 0 0 0 0 0.56256 0 0 0 1 0"/>
<feBlend mode="normal" in2="BackgroundImageFix" result="effect1_dropShadow"/>
<feBlend mode="normal" in="SourceGraphic" in2="effect1_dropShadow" result="shape"/>
</filter>
</defs>
</svg>
