<svg width="48" height="48" viewBox="0 0 48 48" fill="none" xmlns="http://www.w3.org/2000/svg">
<path fill-rule="evenodd" clip-rule="evenodd" d="M42.826 10.1306H40.4524V45.7772H42.826C45.442 45.7772 47.578 43.6387 47.578 41.025V14.8829C47.5804 12.2691 45.442 10.1306 42.826 10.1306V10.1306ZM0.055542 14.8829V41.0226C0.055542 43.6363 2.19634 45.7748 4.80754 45.7748H7.18354V10.1306H4.80754C2.19634 10.1306 0.055542 12.2691 0.055542 14.8829V14.8829ZM31.8987 5.15531C30.2787 4.40407 27.6963 3 23.8203 3C19.9419 3 17.3595 4.40167 15.7395 5.15531V10.1284H10.5123V45.7749H37.1259V10.1308H31.8987V5.15531V5.15531ZM29.0451 10.1308H18.5907V6.95781C19.8579 6.41059 21.6747 5.85376 23.8203 5.85376C25.9635 5.85376 27.7779 6.41059 29.0475 6.95781V10.1308H29.0451Z" fill="black"/>
</svg>
