<svg width="49" height="49" viewBox="0 0 49 49" fill="none" xmlns="http://www.w3.org/2000/svg">
<path d="M41.65 19.1429H40.425L32.0958 8.82295C31.6368 8.25415 31.0546 7.79497 30.3924 7.47942C29.7301 7.16386 29.0047 7.00001 28.2699 7H13.1175C11.1138 7 9.3123 8.20897 8.56811 10.0532L4.9 19.1429C2.19352 19.1429 0 21.3172 0 24V32.5C0 33.1709 0.548187 33.7143 1.225 33.7143H4.9C4.9 37.7381 8.19066 41 12.25 41C16.3093 41 19.6 37.7381 19.6 33.7143H29.4C29.4 37.7381 32.6907 41 36.75 41C40.8093 41 44.1 37.7381 44.1 33.7143H47.775C48.4518 33.7143 49 33.1709 49 32.5V26.4286C49 22.4047 45.7093 19.1429 41.65 19.1429ZM22.05 9.42857H28.2699C29.018 9.42857 29.7154 9.76098 30.1832 10.34L37.2875 19.1429H22.05V9.42857ZM10.8428 10.9555C11.2172 10.0274 12.1099 9.42857 13.1175 9.42857H19.6V19.1429H7.53834L10.8428 10.9555ZM12.25 38.5714C9.54352 38.5714 7.35 36.3971 7.35 33.7143C7.35 31.0315 9.54352 28.8571 12.25 28.8571C14.9565 28.8571 17.15 31.0315 17.15 33.7143C17.15 36.3971 14.9565 38.5714 12.25 38.5714ZM36.75 38.5714C34.0435 38.5714 31.85 36.3971 31.85 33.7143C31.85 31.0315 34.0435 28.8571 36.75 28.8571C39.4565 28.8571 41.65 31.0315 41.65 33.7143C41.65 36.3971 39.4565 38.5714 36.75 38.5714ZM46.55 31.2857H43.6498C42.6377 28.4625 39.9457 26.4286 36.75 26.4286C33.5543 26.4286 30.8623 28.4625 29.8502 31.2857H19.1498C18.1377 28.4625 15.4457 26.4286 12.25 26.4286C9.05428 26.4286 6.36234 28.4625 5.35019 31.2857H2.45V24C2.45 22.6613 3.54944 21.5714 4.9 21.5714H41.65C44.3519 21.5714 46.55 23.7503 46.55 26.4286V31.2857Z" fill="black"/>
</svg>
