<svg width="53" height="53" viewBox="0 0 53 53" fill="none" xmlns="http://www.w3.org/2000/svg">
<path d="M39.8574 35.2875L35.6483 18.2824C35.388 17.1966 34.7644 16.2277 33.877 15.5307C33.7237 15.4108 33.5633 15.2999 33.3967 15.1986C34.8782 13.5838 35.7812 11.4482 35.7812 9.10938C35.7812 4.08649 31.6177 0 26.5 0C21.3823 0 17.2187 4.08649 17.2187 9.10938C17.2187 11.4482 18.1218 13.5838 19.6033 15.1986C19.4367 15.2999 19.2763 15.4108 19.123 15.5307C18.2357 16.2277 17.612 17.1966 17.3517 18.2824L13.1426 35.2875C12.3811 38.3586 14.763 41.4062 18.0674 41.4062H19.4336V47.5137C19.4336 50.5388 21.9412 53 25.0234 53H27.9766C31.0588 53 33.5664 50.5388 33.5664 47.5137V41.4062H34.9324C38.2367 41.4062 40.619 38.3592 39.8574 35.2875ZM26.5 3.3125C29.7619 3.3125 32.4062 5.90784 32.4062 9.10938C32.4062 12.3109 29.7619 14.9062 26.5 14.9062C23.2381 14.9062 20.5937 12.3109 20.5937 9.10938C20.5937 5.90784 23.2381 3.3125 26.5 3.3125ZM34.9375 38.0938H30.1914V47.5137C30.1914 48.7142 29.1998 49.6875 27.9766 49.6875H25.0234C23.8002 49.6875 22.8086 48.7142 22.8086 47.5137V38.0938H18.0625C16.9805 38.0938 16.177 37.1063 16.417 36.0704L20.6357 19.0469C20.7205 18.6807 20.9295 18.3537 21.2285 18.1195C21.5275 17.8853 21.8987 17.7577 22.2812 17.7577H23.5839C25.4775 18.3727 27.5226 18.3727 29.4162 17.7577H30.7187C31.1013 17.7577 31.4725 17.8853 31.7715 18.1195C32.0705 18.3537 32.2795 18.6807 32.3643 19.0469L36.583 36.0704C36.8229 37.106 36.0198 38.0938 34.9375 38.0938Z" fill="black"/>
</svg>
