<svg width="47" height="47" viewBox="0 0 47 47" fill="none" xmlns="http://www.w3.org/2000/svg">
<path d="M25.4583 12.5C25.4583 11.4123 24.5812 10.5312 23.5 10.5312C22.4188 10.5312 21.5417 11.4123 21.5417 12.5C21.5417 13.5869 22.4188 14.4688 23.5 14.4688C24.5812 14.4688 25.4583 13.5877 25.4583 12.5ZM45.6961 15.125C45.5361 15.125 45.3713 15.1554 45.2098 15.2202L31.3342 20.375H31.3333L30.4953 20.078C32.3965 17.2184 33.9453 14.2374 33.9453 12.0939C33.9444 6.5191 29.2681 2 23.5 2C17.7319 2 13.0556 6.5191 13.0556 12.0939C13.0556 13.0619 13.3836 14.2063 13.9034 15.4277L1.64174 19.7155C0.65033 20.1133 0 21.0788 0 22.1526V42.6867C0 43.4397 0.614427 44 1.30474 44C1.46467 44 1.62868 43.9696 1.79106 43.9048L15.6667 38.75L29.7014 43.7301C30.7613 44.0857 31.9068 44.09 32.9694 43.7424L45.3583 39.4104C45.8429 39.2156 46.2583 38.8793 46.5509 38.4449C46.8436 38.0105 47 37.4979 47 36.9732V16.4391C47 15.6853 46.3856 15.125 45.6961 15.125ZM14.3611 36.4367L2.60377 40.8049L2.49932 22.1945L14.3611 18.0461V36.4367ZM23.5 4.625C27.8198 4.625 31.3333 7.97516 31.3333 12.0939C31.3333 14.3088 28.2253 19.3857 23.5 24.954C18.7755 19.3857 15.6667 14.3088 15.6667 12.0939C15.6667 7.97516 19.1802 4.625 23.5 4.625ZM30.0278 41.0625L16.9722 36.4293V20.7704C18.9648 23.6636 21.2267 26.3485 22.4972 27.7972C22.7615 28.0991 23.1312 28.25 23.5 28.25C23.8688 28.25 24.2385 28.0991 24.5028 27.7972C25.544 26.6102 27.2527 24.5889 28.9319 22.306L30.027 22.6948V41.0625H30.0278ZM32.6389 41.0789V22.6891L44.3962 18.3201L44.5007 36.9305L32.6389 41.0789Z" fill="black"/>
</svg>
