<svg width="49" height="49" viewBox="0 0 49 49" fill="none" xmlns="http://www.w3.org/2000/svg">
<path d="M24.5 9.1875C19.3995 9.1875 15.25 13.309 15.25 18.375C15.25 23.4411 19.3995 27.5625 24.5 27.5625C29.6005 27.5625 33.75 23.4411 33.75 18.375C33.75 13.309 29.6005 9.1875 24.5 9.1875ZM24.5 24.5C21.0997 24.5 18.3333 21.7524 18.3333 18.375C18.3333 14.9976 21.0997 12.25 24.5 12.25C27.9003 12.25 30.6667 14.9976 30.6667 18.375C30.6667 21.7524 27.9003 24.5 24.5 24.5ZM24.5 0C14.2827 0 6 8.22674 6 18.375C6 25.7837 8.59867 27.8526 22.5987 48.0114C23.5174 49.3294 25.4825 49.3296 26.4014 48.0114C40.4013 27.8526 43 25.7837 43 18.375C43 8.22674 34.7173 0 24.5 0ZM24.5 45.3567C11.0783 26.078 9.08333 24.5473 9.08333 18.375C9.08333 14.2848 10.687 10.4396 13.5988 7.54744C16.5106 4.65529 20.382 3.0625 24.5 3.0625C28.618 3.0625 32.4894 4.65529 35.4012 7.54744C38.313 10.4396 39.9167 14.2848 39.9167 18.375C39.9167 24.5469 37.9229 26.0762 24.5 45.3567Z" fill="black"/>
</svg>
