<svg width="47" height="47" viewBox="0 0 47 47" fill="none" xmlns="http://www.w3.org/2000/svg">
<path d="M42.5938 8.85714H32.3125V5.19643C32.3125 3.98336 31.3261 3 30.1094 3H16.8906C15.6739 3 14.6875 3.98336 14.6875 5.19643V8.85714H4.40625C1.97271 8.85714 0 10.8239 0 13.25V39.6071C0 42.0333 1.97271 44 4.40625 44H42.5938C45.0273 44 47 42.0333 47 39.6071V13.25C47 10.8239 45.0273 8.85714 42.5938 8.85714ZM17.625 5.92857H29.375V8.85714H17.625V5.92857ZM35.25 11.7857V41.0714H11.75V11.7857H35.25ZM2.9375 39.6071V13.25C2.9375 12.4426 3.59642 11.7857 4.40625 11.7857H8.8125V41.0714H4.40625C3.59642 41.0714 2.9375 40.4145 2.9375 39.6071ZM44.0625 39.6071C44.0625 40.4145 43.4036 41.0714 42.5938 41.0714H38.1875V11.7857H42.5938C43.4036 11.7857 44.0625 12.4426 44.0625 13.25V39.6071ZM32.3125 24.9643V27.8929C32.3125 28.4993 31.8193 28.9911 31.2109 28.9911H26.0703V34.1161C26.0703 34.7226 25.5771 35.2143 24.9688 35.2143H22.0312C21.4229 35.2143 20.9297 34.7226 20.9297 34.1161V28.9911H15.7891C15.1807 28.9911 14.6875 28.4993 14.6875 27.8929V24.9643C14.6875 24.3578 15.1807 23.8661 15.7891 23.8661H20.9297V18.7411C20.9297 18.1346 21.4229 17.6429 22.0312 17.6429H24.9688C25.5771 17.6429 26.0703 18.1346 26.0703 18.7411V23.8661H31.2109C31.8193 23.8661 32.3125 24.3578 32.3125 24.9643Z" fill="black"/>
</svg>
