<svg width="50" height="50" viewBox="0 0 50 50" fill="none" xmlns="http://www.w3.org/2000/svg">
<path d="M18.75 35.25C16.443 35.25 15 37.1589 15 39.0502V44.3906C15 44.7273 15.2797 45 15.625 45H16.875C17.2203 45 17.5 44.7273 17.5 44.3906V38.9062C17.5 38.2337 18.0617 37.6875 18.75 37.6875C19.4383 37.6875 20 38.2337 20 38.9062V44.3906C20 44.7273 20.2797 45 20.625 45H21.875C22.2203 45 22.5 44.7273 22.5 44.3906V38.9062C22.5 36.89 20.818 35.25 18.75 35.25ZM46.25 25.5H45.768C46.0625 24.8419 46.25 24.1601 46.25 23.4502C46.25 19.3423 42.85 16.1788 39.1609 13.9546C35.8969 11.9863 33.3117 9.9617 30 6C26.6992 9.94951 24.1711 11.9452 20.8391 13.9546C17.15 16.1788 13.75 19.3423 13.75 23.4502C13.75 24.1601 13.9375 24.8419 14.232 25.5H13.75C13.3094 25.5 12.893 25.5876 12.5 25.7247V15.1406C12.5 9.04688 6.25 6 6.25 6C6.25 6 0 9.04688 0 15.1406V45H2.5V20.625H10V44.3906C10 44.7273 10.2797 45 10.625 45H11.875C12.2203 45 12.5 44.7273 12.5 44.3906V29.1562C12.5 28.4829 13.0594 27.9375 13.75 27.9375H46.25C46.9406 27.9375 47.5 28.4829 47.5 29.1562V44.3906C47.5 44.7273 47.7797 45 48.125 45H49.375C49.7203 45 50 44.7273 50 44.3906V29.1562C50 27.1369 48.3211 25.5 46.25 25.5ZM10 18.1875H2.5V15.1406C2.5 12.048 4.80859 9.91371 6.25 8.88311C7.69141 9.91371 10 12.048 10 15.1406V18.1875ZM42.8961 25.5H17.1039C16.5367 24.7977 16.25 24.1106 16.25 23.4502C16.25 20.9343 18.1688 18.4785 21.9531 16.1499C25.1555 14.1801 27.8039 12.0785 30 9.76213C32.1961 12.0785 34.8453 14.1801 38.0469 16.1499C41.8312 18.4777 43.75 20.9343 43.75 23.4502C43.75 24.1106 43.4633 24.7977 42.8961 25.5V25.5ZM30 30.375C25.2328 32.699 25 36.1793 25 37.2221V44.3906C25 44.7273 25.2797 45 25.625 45H26.875C27.2203 45 27.5 44.7273 27.5 44.3906V37.2221C27.5 35.151 29.1164 33.7692 30 33.1682C30.8836 33.7692 32.5 35.151 32.5 37.2221V44.3906C32.5 44.7273 32.7797 45 33.125 45H34.375C34.7203 45 35 44.7273 35 44.3906V37.2221C35 36.1778 34.7672 32.699 30 30.375ZM41.25 35.25C38.943 35.25 37.5 37.1589 37.5 39.0502V44.3906C37.5 44.7273 37.7797 45 38.125 45H39.375C39.7203 45 40 44.7273 40 44.3906V38.9062C40 38.2337 40.5617 37.6875 41.25 37.6875C41.9383 37.6875 42.5 38.2337 42.5 38.9062V44.3906C42.5 44.7273 42.7797 45 43.125 45H44.375C44.7203 45 45 44.7273 45 44.3906V38.9062C45 36.89 43.318 35.25 41.25 35.25Z" fill="black"/>
</svg>
