<svg width="51" height="51" viewBox="0 0 51 51" fill="none" xmlns="http://www.w3.org/2000/svg">
<path d="M40.8189 20C39.3891 19.9974 38.0278 20.2837 36.792 20.802L34.7277 17.5H41.4374C42.4937 17.5 43.3499 16.6605 43.3499 15.625V11.875C43.3499 10.8395 42.4937 10 41.4374 10H36.6562C36.3593 10 36.0665 10.0678 35.8009 10.198C35.5353 10.3281 35.3043 10.5171 35.1262 10.75L32.5847 14.0722L30.412 10.5968C30.298 10.4145 30.1382 10.2639 29.9479 10.1594C29.7576 10.0549 29.5431 10 29.3249 10H23.2687C22.7406 10 22.3125 10.4198 22.3125 10.9375V11.5625C22.3125 12.0802 22.7406 12.5 23.2687 12.5H28.6109L31.7368 17.5H17.3387C16.0096 16.0106 14.0082 15 10.2 15H6.411C5.72442 15 5.1337 15.5173 5.1015 16.1896C5.067 16.9075 5.65039 17.5 6.37499 17.5H10.2C12.1338 17.5 13.3991 18.1437 14.3091 19.0587L13.4833 20.5308C12.4634 20.1909 11.3949 20.012 10.3178 20.0006C4.67836 19.9377 0.0216714 24.4316 7.61395e-05 29.9609C-0.0215191 35.5017 4.55341 40 10.2 40C14.9526 40 18.9453 36.8129 20.0777 32.5H26.8333C27.5811 32.5 28.1705 31.8705 28.1032 31.1377C27.6949 26.7009 29.7118 22.481 33.2535 19.9259L34.5915 22.0661C32.1507 23.9046 30.5821 26.8008 30.6003 30.0557C30.6305 35.4962 35.1579 39.951 40.707 39.9995C46.3313 40.0487 50.9159 35.6346 50.9989 30.1513C51.0827 24.6035 46.4783 20.0101 40.8189 20V20ZM36.8156 12.1875H41.1187V15.3125H34.4249L36.8156 12.1875ZM10.2 37.5C5.98173 37.5 2.54999 34.1355 2.54999 30C2.54999 25.8645 5.98173 22.5 10.2 22.5C10.8852 22.4997 11.5674 22.59 12.228 22.7684L7.80776 30.6476C7.34127 31.4791 7.95582 32.5 8.92498 32.5H17.4116C16.3591 35.4099 13.5244 37.5 10.2 37.5ZM25.5 30H11.0814L16.6913 20H29.3988C26.9166 22.7238 25.5 26.2783 25.5 30ZM40.4976 37.4942C36.5274 37.3434 33.3099 34.1891 33.1558 30.2968C33.0591 27.852 34.1632 25.6509 35.9353 24.2159L40.517 31.5446C40.7929 31.9861 41.3817 32.1246 41.832 31.854L42.3755 31.5273C42.8257 31.2568 42.967 30.6796 42.6911 30.2381L38.1448 22.966C38.9945 22.657 39.8937 22.4992 40.7999 22.5C45.0182 22.5 48.4499 25.8645 48.4499 30C48.4499 34.2339 44.8529 37.6596 40.4976 37.4942Z" fill="black"/>
</svg>
