<svg width="60" height="60" viewBox="0 0 60 60" fill="none" xmlns="http://www.w3.org/2000/svg">
<path d="M33.2458 2.07152C33.6404 1.28237 34.1089 0.739828 34.6515 0.443895C35.2433 0.147965 35.8352 0 36.4271 0C37.2655 0 38.0054 0.295932 38.6465 0.887795C39.337 1.47965 39.6823 2.31813 39.6823 3.40321C39.6823 3.99507 39.6823 4.7349 39.6823 5.62269C39.6823 6.46116 39.6576 7.32429 39.6083 8.21208C39.6083 9.09988 39.6083 9.98767 39.6083 10.8755C39.6083 11.7633 39.6083 12.5277 39.6083 13.1689C39.6083 14.5993 39.6083 16.0789 39.6083 17.6079C39.6083 19.0875 39.633 20.5672 39.6823 22.0469C39.6823 23.3785 39.6823 24.7102 39.6823 26.0419C39.7316 27.3243 39.7563 28.6067 39.7563 29.889C39.7563 31.6646 39.7563 33.3169 39.7563 34.8459C39.7563 36.3255 39.7316 37.7805 39.6823 39.2109H45.6749C46.8093 39.3095 47.5245 39.6794 47.8204 40.3206C48.1657 40.9125 48.3383 41.529 48.3383 42.1702C48.3383 42.8113 48.0917 43.4032 47.5985 43.9457C47.1052 44.439 46.3407 44.6856 45.305 44.6856C44.6638 44.6856 44.1213 44.6856 43.6774 44.6856C43.2828 44.6856 42.8882 44.6856 42.4936 44.6856C42.0991 44.6856 41.6798 44.6856 41.2359 44.6856C40.8414 44.6856 40.3235 44.7102 39.6823 44.7596C39.633 46.0419 39.5837 47.0777 39.5343 47.8668C39.5343 48.6067 39.5343 49.3465 39.5343 50.0863C39.5343 50.8261 39.5343 51.7139 39.5343 52.7497C39.5343 53.7361 39.5343 55.1171 39.5343 56.8927C39.485 57.9285 39.1398 58.693 38.4986 59.1862C37.9067 59.7287 37.1915 60 36.3531 60C35.6132 60 34.9227 59.7534 34.2816 59.2602C33.6404 58.767 33.2705 58.0271 33.1718 57.0407L33.2458 45.0555C31.7661 45.0555 30.3358 45.0801 28.9548 45.1295C27.5738 45.1295 26.1681 45.1541 24.7378 45.2035C23.3568 45.2035 21.9018 45.2281 20.3728 45.2774C18.8438 45.2774 17.1669 45.3021 15.342 45.3514C13.9116 45.3514 12.9005 44.9075 12.3087 44.0197C11.7661 43.1319 11.9388 41.9482 12.8266 40.4686C13.8623 38.8409 14.9227 37.0654 16.0078 35.1418C17.0929 33.2182 18.178 31.2207 19.2631 29.1492C20.3975 27.0284 21.5072 24.9075 22.5923 22.7867C23.7267 20.6165 24.8364 18.5203 25.9215 16.4981C27.2532 13.8841 28.5602 11.3687 29.8426 8.95191C31.125 6.53514 32.2594 4.24168 33.2458 2.07152ZM33.2458 39.3588C33.2951 38.1258 33.3198 36.7448 33.3198 35.2158C33.3198 33.6868 33.3198 32.1085 33.3198 30.4809C33.3198 28.8039 33.3198 27.127 33.3198 25.4501C33.3198 23.7238 33.3198 22.0715 33.3198 20.4932C33.3198 19.6054 33.3198 18.9396 33.3198 18.4957C33.3198 18.0025 33.3198 17.5832 33.3198 17.238C33.3691 16.8927 33.3938 16.5475 33.3938 16.2022C33.3938 15.857 33.3938 15.3637 33.3938 14.7226C32.1607 17.1887 31.0263 19.4821 29.9906 21.603C28.9548 23.7238 27.9437 25.7707 26.9573 27.7435C25.9708 29.6671 24.9597 31.6153 23.924 33.5882C22.9375 35.5117 21.8278 37.5339 20.5948 39.6547L33.2458 39.3588Z" fill="black"/>
</svg>
