<svg width="60" height="60" viewBox="0 0 60 60" fill="none" xmlns="http://www.w3.org/2000/svg">
<path d="M20.52 6.61611C19.64 6.61611 19 6.3128 18.6 5.70616C18.2 5.09953 18 4.41706 18 3.65877C18 2.79937 18.22 2.06635 18.66 1.45971C19.14 0.853081 19.84 0.575041 20.76 0.625593C21.32 0.676145 22.2 0.726698 23.4 0.77725C24.64 0.77725 26.02 0.77725 27.54 0.77725C28.3 0.77725 29.16 0.77725 30.12 0.77725C31.08 0.726698 32.02 0.676145 32.94 0.625593C33.86 0.575041 34.7 0.524489 35.46 0.473936C36.26 0.372829 36.86 0.271723 37.26 0.170618C37.86 0.0189583 38.44 -0.0315955 39 0.0189568C39.56 0.0695091 40.02 0.271721 40.38 0.625593C40.78 0.979462 41.04 1.51027 41.16 2.21801C41.32 2.8752 41.28 3.75987 41.04 4.87204C40.64 6.54028 40.2 8.41074 39.72 10.4834C39.24 12.5561 38.74 14.7551 38.22 17.0806C37.74 19.3555 37.24 21.7062 36.72 24.1327C36.2 26.5592 35.7 28.9858 35.22 31.4123C34.38 35.6588 33.56 40.0316 32.76 44.5308C32 49.03 31.28 53.2512 30.6 57.1943C30.44 58.1043 30.06 58.7867 29.46 59.2417C28.9 59.7472 28.34 60 27.78 60C27.46 60 27.12 59.9242 26.76 59.7725C26.44 59.6209 26.14 59.4186 25.86 59.1659C25.62 58.9131 25.42 58.5845 25.26 58.1801C25.14 57.7757 25.12 57.2954 25.2 56.7393C25.76 52.4929 26.38 48.575 27.06 44.9858C27.74 41.346 28.42 37.6303 29.1 33.8389C29.18 33.4344 29.3 32.8278 29.46 32.019C29.62 31.2101 29.74 30.5782 29.82 30.1232C30.34 27.4439 30.84 25.0174 31.32 22.8436C31.84 20.6193 32.34 18.4455 32.82 16.3223C33.26 14.5529 33.62 12.9858 33.9 11.6209C34.22 10.2054 34.56 8.51185 34.92 6.54029C33.16 6.64139 31.52 6.69194 30 6.69194C28.48 6.69194 27.08 6.69194 25.8 6.69194C24.8 6.69194 23.84 6.69194 22.92 6.69194C22.04 6.69194 21.24 6.66667 20.52 6.61611Z" fill="black"/>
</svg>
