<svg width="60" height="60" viewBox="0 0 60 60" fill="none" xmlns="http://www.w3.org/2000/svg">
<path d="M43.606 7.10723C43.5062 8.40399 43.3566 9.95012 43.1571 11.7456C42.9576 13.4913 42.7332 15.1372 42.4838 16.6833C42.0848 19.7756 41.6608 23.1172 41.212 26.7082C40.813 30.2993 40.4888 34.0898 40.2394 38.0798C40.0399 40.3242 39.8903 42.6683 39.7905 45.1122C39.7406 47.5561 39.7157 50.1496 39.7157 52.8928C39.7157 53.5411 39.7157 54.1895 39.7157 54.8379C39.7656 55.5362 39.7905 56.2344 39.7905 56.9327C39.7905 57.98 39.4414 58.7531 38.7431 59.2519C38.0948 59.7506 37.3965 60 36.6484 60C35.8504 60 35.1022 59.7257 34.404 59.1771C33.7556 58.6783 33.3815 57.9302 33.2818 56.9327C33.2319 56.2344 33.207 55.4863 33.207 54.6883C33.207 53.9401 33.207 53.217 33.207 52.5187C33.207 49.0773 33.3067 45.6858 33.5062 42.3441C33.7057 39.0025 33.9052 35.7606 34.1047 32.6185V32.5436C32.9576 33.2419 31.6858 33.7656 30.2893 34.1147C28.9426 34.4638 27.6209 34.5137 26.3242 34.2643C24.4788 33.9152 22.8828 33.2918 21.5362 32.394C20.2394 31.4464 19.1671 30.3242 18.3192 29.0274C17.5212 27.7307 16.9227 26.3092 16.5237 24.7631C16.1746 23.1671 16 21.5711 16 19.9751C16 19.1272 16.0249 18.3292 16.0748 17.581C16.1746 16.783 16.2743 15.985 16.3741 15.187C16.7731 12.9925 17.4214 10.9726 18.3192 9.12718C19.217 7.28179 20.3641 5.68578 21.7606 4.33915C23.1571 2.99252 24.803 1.94514 26.6983 1.19701C28.5935 0.399002 30.7132 0 33.0574 0C34.1546 0 35.202 0.074812 36.1995 0.224436C37.197 0.324188 38.1197 0.548627 38.9676 0.897753C40.5137 1.49626 41.7107 2.24439 42.5586 3.14214C43.4065 4.0399 43.7556 5.36159 43.606 7.10723ZM27.1471 28.1297C27.6958 28.2793 28.3441 28.3292 29.0923 28.2793C29.8404 28.1795 30.5885 27.98 31.3367 27.6808C32.0848 27.3815 32.7581 26.9825 33.3566 26.4838C34.005 25.9352 34.5287 25.2868 34.9277 24.5387C35.1272 22.8429 35.3017 21.0973 35.4514 19.3017C35.6509 17.5062 35.8753 15.9352 36.1247 14.5885C36.3741 13.2918 36.5985 12.0698 36.798 10.9227C37.0474 9.77556 37.2219 8.55361 37.3217 7.25686C36.7731 6.70823 36.0499 6.30922 35.1521 6.05985C34.3042 5.81047 33.4564 5.68578 32.6085 5.68578C31.3117 5.68578 30.1147 5.98504 29.0175 6.58354C27.9202 7.18205 26.9476 7.98005 26.0998 8.97756C25.3017 9.97506 24.6284 11.0973 24.0798 12.3441C23.581 13.591 23.2319 14.8379 23.0324 16.0848C22.9327 16.6833 22.8579 17.2818 22.808 17.8803C22.7581 18.4788 22.7332 19.0524 22.7332 19.601C22.7332 21.7955 23.1322 23.6908 23.9302 25.2868C24.7781 26.8329 25.8504 27.7805 27.1471 28.1297Z" fill="black"/>
</svg>
