<svg width="47" height="47" viewBox="0 0 47 47" fill="none" xmlns="http://www.w3.org/2000/svg">
<path d="M45.2787 5.16449L41.8354 1.72119C40.6889 0.57373 39.1853 0 37.6816 0C36.178 0 34.6744 0.57373 33.5269 1.72027L1.17968 34.0677L0.0138611 44.5527C-0.133013 45.8727 0.907041 47 2.19862 47C2.28032 47 2.36201 46.9954 2.44555 46.9862L12.9232 45.8287L45.2796 13.4721C47.5736 11.1781 47.5736 7.4585 45.2787 5.16449V5.16449ZM11.5747 43.0234L3.03488 43.9698L3.98589 35.4171L28.2101 11.1928L35.8081 18.7908L11.5747 43.0234V43.0234ZM43.2023 11.3957L37.8845 16.7135L30.2865 9.11543L35.6043 3.79764C36.1587 3.24318 36.8968 2.9375 37.6816 2.9375C38.4665 2.9375 39.2036 3.24318 39.759 3.79764L43.2023 7.24094C44.347 8.38656 44.347 10.25 43.2023 11.3957Z" fill="black"/>
</svg>
