<svg width="51" height="51" viewBox="0 0 51 51" fill="none" xmlns="http://www.w3.org/2000/svg">
<path d="M38.25 34.3148L45.0379 28.062C46.4773 26.7362 46.0213 24.5032 44.3545 23.7854L38.25 21.1562V11.4062C38.25 10.6986 37.6792 10.125 36.975 10.125H33.15V6.92188C33.15 5.86044 32.2938 5 31.2375 5H19.7625C18.7062 5 17.85 5.86044 17.85 6.92188V10.125H14.025C13.3208 10.125 12.75 10.6986 12.75 11.4062V21.1562L6.68937 23.7664C4.89767 24.538 4.58777 26.7961 5.92692 28.0296L12.75 34.3148C12.75 37.2048 8.68976 43.4375 0.95625 43.4375C0.428161 43.4375 0 43.8678 0 44.3984V45.0391C0 45.5697 0.428161 46 0.95625 46C6.1749 46 10.3049 43.679 12.9696 40.1424C13.7888 43.5008 16.8091 46 20.4 46H30.6C34.1909 46 37.2112 43.5008 38.0304 40.1424C40.7106 43.6996 44.8499 46 50.0437 46C50.5718 46 51 45.5697 51 45.0391V44.3984C51 43.8678 50.5718 43.4375 50.0437 43.4375C42.5832 43.4375 38.25 37.4488 38.25 34.3148ZM20.4 7.5625H30.6V10.125H20.4V7.5625ZM15.3 12.6875H35.7V20.0581L26.5045 16.0978C26.187 15.9611 25.8453 15.8906 25.5 15.8906C25.1546 15.8906 24.8129 15.9611 24.4955 16.0978L15.3 20.0581V12.6875ZM35.7 33.1875V38.3125C35.7 41.1429 33.4166 43.4375 30.6 43.4375H20.4C17.5834 43.4375 15.3 41.1429 15.3 38.3125V33.1875L7.65 26.1406L25.5 18.4531L43.35 26.1406L35.7 33.1875Z" fill="black"/>
</svg>
