<svg width="47" height="47" viewBox="0 0 47 47" fill="none" xmlns="http://www.w3.org/2000/svg">
<path d="M35.25 19.1071C35.25 19.9159 34.5925 20.5714 33.7812 20.5714C32.97 20.5714 32.3125 19.9159 32.3125 19.1071C32.3125 18.2984 32.97 17.6429 33.7812 17.6429C34.5925 17.6429 35.25 18.2984 35.25 19.1071ZM39.6562 17.6429C38.845 17.6429 38.1875 18.2984 38.1875 19.1071C38.1875 19.9159 38.845 20.5714 39.6562 20.5714C40.4675 20.5714 41.125 19.9159 41.125 19.1071C41.125 18.2984 40.4675 17.6429 39.6562 17.6429ZM45.5312 17.6429C44.72 17.6429 44.0625 18.2984 44.0625 19.1071C44.0625 19.9159 44.72 20.5714 45.5312 20.5714C46.3425 20.5714 47 19.9159 47 19.1071C47 18.2984 46.3425 17.6429 45.5312 17.6429ZM30.8438 20.5714C30.0325 20.5714 29.375 21.227 29.375 22.0357C29.375 22.8445 30.0325 23.5 30.8438 23.5C31.655 23.5 32.3125 22.8445 32.3125 22.0357C32.3125 21.227 31.655 20.5714 30.8438 20.5714ZM36.7188 20.5714C35.9075 20.5714 35.25 21.227 35.25 22.0357C35.25 22.8445 35.9075 23.5 36.7188 23.5C37.53 23.5 38.1875 22.8445 38.1875 22.0357C38.1875 21.227 37.53 20.5714 36.7188 20.5714ZM42.5938 20.5714C41.7825 20.5714 41.125 21.227 41.125 22.0357C41.125 22.8445 41.7825 23.5 42.5938 23.5C43.405 23.5 44.0625 22.8445 44.0625 22.0357C44.0625 21.227 43.405 20.5714 42.5938 20.5714ZM27.9062 23.5C27.095 23.5 26.4375 24.1555 26.4375 24.9643C26.4375 25.773 27.095 26.4286 27.9062 26.4286C28.7175 26.4286 29.375 25.773 29.375 24.9643C29.375 24.1555 28.7175 23.5 27.9062 23.5ZM33.7812 23.5C32.97 23.5 32.3125 24.1555 32.3125 24.9643C32.3125 25.773 32.97 26.4286 33.7812 26.4286C34.5925 26.4286 35.25 25.773 35.25 24.9643C35.25 24.1555 34.5925 23.5 33.7812 23.5ZM39.6562 23.5C38.845 23.5 38.1875 24.1555 38.1875 24.9643C38.1875 25.773 38.845 26.4286 39.6562 26.4286C40.4675 26.4286 41.125 25.773 41.125 24.9643C41.125 24.1555 40.4675 23.5 39.6562 23.5ZM30.8438 26.4286C30.0325 26.4286 29.375 27.0841 29.375 27.8929C29.375 28.7016 30.0325 29.3571 30.8438 29.3571C31.655 29.3571 32.3125 28.7016 32.3125 27.8929C32.3125 27.0841 31.655 26.4286 30.8438 26.4286ZM36.7188 26.4286C35.9075 26.4286 35.25 27.0841 35.25 27.8929C35.25 28.7016 35.9075 29.3571 36.7188 29.3571C37.53 29.3571 38.1875 28.7016 38.1875 27.8929C38.1875 27.0841 37.53 26.4286 36.7188 26.4286ZM27.9062 29.3571C27.095 29.3571 26.4375 30.0127 26.4375 30.8214C26.4375 31.6302 27.095 32.2857 27.9062 32.2857C28.7175 32.2857 29.375 31.6302 29.375 30.8214C29.375 30.0127 28.7175 29.3571 27.9062 29.3571ZM33.7812 29.3571C32.97 29.3571 32.3125 30.0127 32.3125 30.8214C32.3125 31.6302 32.97 32.2857 33.7812 32.2857C34.5925 32.2857 35.25 31.6302 35.25 30.8214C35.25 30.0127 34.5925 29.3571 33.7812 29.3571ZM30.8438 32.2857C30.0325 32.2857 29.375 32.9413 29.375 33.75C29.375 34.5587 30.0325 35.2143 30.8438 35.2143C31.655 35.2143 32.3125 34.5587 32.3125 33.75C32.3125 32.9413 31.655 32.2857 30.8438 32.2857ZM27.9062 35.2143C27.095 35.2143 26.4375 35.8698 26.4375 36.6786C26.4375 37.4873 27.095 38.1429 27.9062 38.1429C28.7175 38.1429 29.375 37.4873 29.375 36.6786C29.375 35.8698 28.7175 35.2143 27.9062 35.2143ZM34.9907 8.59861L35.5093 9.11568C35.9395 9.54454 35.9395 10.2399 35.5093 10.6688L19.4421 26.6871C19.012 27.116 18.3145 27.116 17.8842 26.6871L17.3657 26.17C16.9355 25.7412 16.9355 25.0458 17.3657 24.6169L18.1418 23.8431C15.9881 21.9434 14.6875 19.1931 14.6875 16.1786C14.6875 13.1926 15.9526 10.4993 18.0592 8.58717C16.4357 6.92594 14.1606 5.90112 11.6496 5.92912C6.80499 5.98321 2.9375 9.98666 2.9375 14.8169V44H0V14.8457C0 8.34456 5.3356 2.94253 11.8564 3.00046C15.2984 3.03103 18.3914 4.54464 20.5239 6.92978C24.5303 5.01303 29.5366 5.85683 32.6567 9.37239L33.4329 8.59861C33.863 8.16976 34.5605 8.16976 34.9907 8.59861V8.59861ZM30.5739 11.4489C27.8416 8.20334 22.8359 7.95057 19.7758 11.0014C19.7666 11.0106 19.7574 11.0197 19.7483 11.0298C16.703 14.0964 16.9947 19.0638 20.2247 21.7667L30.5739 11.4489V11.4489Z" fill="black"/>
</svg>
