<svg width="48" height="48" viewBox="0 0 48 48" fill="none" xmlns="http://www.w3.org/2000/svg">
<path d="M46.9103 13.2656L41.8529 5.17188C41.4009 4.44531 40.5982 4 39.7411 4H8.25894C7.40175 4 6.59912 4.44531 6.14715 5.17188L1.08975 13.2656C-1.21686 16.9531 0.310486 21.9062 4.05094 23.4844V41.25C4.05094 42.7656 5.16528 44 6.54457 44H41.4554C42.8347 44 43.9491 42.7656 43.9491 41.25V23.4844C47.6895 21.9062 49.2169 16.9531 46.9103 13.2656ZM41.4398 41.5L6.63808 41.5234C6.6147 41.5078 6.54457 41.4219 6.54457 41.25V24H6.73938C9.04599 24 11.0877 22.9844 12.4903 21.4141C13.893 22.9844 15.9424 24 18.2413 24C20.5479 24 22.5895 22.9844 23.9922 21.4141C25.3949 22.9844 27.4443 24 29.7431 24C32.0498 24 34.0914 22.9844 35.4941 21.4141C36.9046 22.9844 38.9462 24 41.2528 24H41.4476V29H6.54457V31.5H41.4554V41.25C41.4554 41.4062 41.3931 41.4922 41.4398 41.5ZM45.0556 19.1172C44.4478 20.4141 43.3335 21.2656 41.9931 21.4453C41.7516 21.4766 41.51 21.4922 41.2606 21.4922C39.7566 21.4922 38.3774 20.8672 37.3643 19.7344L35.5097 17.6719L33.655 19.75C32.642 20.8828 31.2627 21.5078 29.7587 21.5078C28.2548 21.5078 26.8755 20.8828 25.8624 19.75L24 17.6719L22.1454 19.75C21.1323 20.8828 19.753 21.5078 18.2491 21.5078C16.7451 21.5078 15.3658 20.8828 14.3528 19.75L12.4903 17.6719L10.6357 19.75C9.62265 20.8828 8.24336 21.5078 6.73938 21.5078C6.49002 21.5078 6.24845 21.4922 6.00688 21.4609C4.66655 21.2813 3.55221 20.4297 2.94439 19.1328C2.26643 17.6797 2.35994 15.9453 3.20154 14.6094L8.25894 6.5H39.7411L44.7985 14.5938C45.6401 15.9375 45.7336 17.6641 45.0556 19.1172Z" fill="black"/>
</svg>
