<svg width="47" height="47" viewBox="0 0 47 47" fill="none" xmlns="http://www.w3.org/2000/svg">
<path d="M8.8125 26.4286C7.19045 26.4286 5.875 27.74 5.875 29.3571C5.875 30.9743 7.19045 32.2857 8.8125 32.2857C10.4346 32.2857 11.75 30.9743 11.75 29.3571C11.75 27.74 10.4346 26.4286 8.8125 26.4286ZM38.1875 26.4286C36.5654 26.4286 35.25 27.74 35.25 29.3571C35.25 30.9743 36.5654 32.2857 38.1875 32.2857C39.8096 32.2857 41.125 30.9743 41.125 29.3571C41.125 27.74 39.8096 26.4286 38.1875 26.4286ZM30.1094 29.3571H16.8906C16.4849 29.3571 16.1562 29.6848 16.1562 30.0893V31.5536C16.1562 31.9581 16.4849 32.2857 16.8906 32.2857H30.1094C30.5151 32.2857 30.8438 31.9581 30.8438 31.5536V30.0893C30.8438 29.6848 30.5151 29.3571 30.1094 29.3571ZM41.0433 21.0839L39.8206 14.7884C39.1541 11.351 36.1221 8.85714 32.6108 8.85714H32.3125V5.92857C32.3125 4.31145 30.9971 3 29.375 3H17.625C16.0029 3 14.6875 4.31145 14.6875 5.92857V8.85714H14.3892C10.8779 8.85714 7.84588 11.351 7.18035 14.7875L5.95762 21.0839C2.49963 22.2718 0 25.507 0 29.3571V32.2857C0 34.4483 1.18877 36.3162 2.9375 37.3302V41.0714C2.9375 42.6885 4.25295 44 5.875 44H10.2812C11.9033 44 13.2188 42.6885 13.2188 41.0714V38.1429H33.7812V41.0714C33.7812 42.6885 35.0967 44 36.7188 44H41.125C42.7471 44 44.0625 42.6885 44.0625 41.0714V37.3302C45.8112 36.3152 47 34.4483 47 32.2857V29.3571C47 25.507 44.5004 22.2718 41.0433 21.0839ZM17.625 5.92857H29.375V8.85714H17.625V5.92857ZM10.0664 15.3439C10.4648 13.2811 12.2833 11.7857 14.3892 11.7857H32.6108C34.7167 11.7857 36.5352 13.2811 36.9336 15.3448L37.9488 20.5714H9.05117L10.0664 15.3439ZM10.2812 41.0714H5.875V38.1429H10.2812V41.0714ZM41.125 41.0714H36.7188V38.1429H41.125V41.0714ZM44.0625 32.2857C44.0625 33.9001 42.7443 35.2143 41.125 35.2143H5.875C4.2557 35.2143 2.9375 33.9001 2.9375 32.2857V29.3571C2.9375 26.1275 5.57299 23.5 8.8125 23.5H38.1875C41.427 23.5 44.0625 26.1275 44.0625 29.3571V32.2857Z" fill="black"/>
</svg>
