<svg width="49" height="49" viewBox="0 0 49 49" fill="none" xmlns="http://www.w3.org/2000/svg">
<path d="M23.9 35.4792C22.8339 35.4792 21.9693 36.3411 21.9693 37.404C21.9693 38.4669 22.8339 39.3289 23.9 39.3289C24.9661 39.3289 25.8307 38.4669 25.8307 37.404C25.8307 36.3411 24.9661 35.4792 23.9 35.4792ZM43.2071 35.4792C42.141 35.4792 41.2764 36.3411 41.2764 37.404C41.2764 38.4669 42.141 39.3289 43.2071 39.3289C44.2732 39.3289 45.1378 38.4669 45.1378 37.404C45.1378 36.3411 44.2732 35.4792 43.2071 35.4792ZM37.8977 37.404H29.2095C28.9428 37.404 28.7268 37.6194 28.7268 37.8852V38.8476C28.7268 39.1135 28.9428 39.3289 29.2095 39.3289H37.8977C38.1643 39.3289 38.3803 39.1135 38.3803 38.8476V37.8852C38.3803 37.6194 38.1643 37.404 37.8977 37.404ZM45.0841 31.9664L44.2804 27.8286C43.8424 25.5693 41.8496 23.9302 39.5418 23.9302H39.3457V22.0053C39.3457 20.9424 38.4811 20.0805 37.415 20.0805H29.6921C28.626 20.0805 27.7614 20.9424 27.7614 22.0053V23.9302H27.5654C25.2576 23.9302 23.2647 25.5693 22.8273 27.828L22.0236 31.9664C19.7508 32.7471 18.1079 34.8735 18.1079 37.404V39.3289C18.1079 40.7502 18.8892 41.9779 20.0386 42.6444V45.1034C20.0386 46.1662 20.9032 47.0282 21.9693 47.0282H24.8654C25.9315 47.0282 26.7961 46.1662 26.7961 45.1034V43.1785H40.311V45.1034C40.311 46.1662 41.1756 47.0282 42.2417 47.0282H45.1378C46.2039 47.0282 47.0685 46.1662 47.0685 45.1034V42.6444C48.2179 41.9773 48.9992 40.7502 48.9992 39.3289V37.404C48.9992 34.8735 47.3563 32.7471 45.0841 31.9664ZM29.6921 22.0053H37.415V23.9302H29.6921V22.0053ZM24.7242 28.1937C24.9861 26.8379 26.1813 25.855 27.5654 25.855H39.5418C40.9258 25.855 42.1211 26.8379 42.3829 28.1943L43.0502 31.6295H24.0569L24.7242 28.1937ZM24.8654 45.1034H21.9693V43.1785H24.8654V45.1034ZM45.1378 45.1034H42.2417V43.1785H45.1378V45.1034ZM47.0685 39.3289C47.0685 40.3899 46.2021 41.2537 45.1378 41.2537H21.9693C20.905 41.2537 20.0386 40.3899 20.0386 39.3289V37.404C20.0386 35.2813 21.7708 33.5543 23.9 33.5543H43.2071C45.3363 33.5543 47.0685 35.2813 47.0685 37.404V39.3289Z" fill="black"/>
<path d="M31.0929 1.59783H3.99649V0.865494C3.99649 0.389475 3.607 3.8147e-06 3.13098 3.8147e-06H2.46524C1.98922 3.8147e-06 1.59976 0.389475 1.59976 0.865494V1.59783H0.867432C0.391413 1.59783 0.00195312 1.9873 0.00195312 2.46332V3.12908C0.00195312 3.6051 0.391413 3.99457 0.867432 3.99457H1.59976V48.1345C1.59976 48.6105 1.98922 49 2.46524 49H3.13098C3.607 49 3.99649 48.6105 3.99649 48.1345V3.99457H12.2519V7.05707H9.45566C7.54076 7.05707 7.05893 7.53891 7.05893 9.45381V15.712C7.05893 17.6269 8.60598 18.1087 9.45566 18.1087H26.7654C28.6803 18.1087 29.1622 17.6269 29.1622 15.712V9.45381C29.1622 7.53891 28.6803 7.05707 26.7654 7.05707H23.9693V3.99457H31.0929C31.5689 3.99457 31.9584 3.6051 31.9584 3.12908V2.46332C31.9584 1.9873 31.5689 1.59783 31.0929 1.59783ZM26.7654 15.712H9.45566V9.45381H26.7654V15.712ZM21.5725 7.05707H14.6486V3.99457H21.5725V7.05707Z" fill="black"/>
</svg>
