<svg width="47" height="47" viewBox="0 0 47 47" fill="none" xmlns="http://www.w3.org/2000/svg">
<path d="M46.9368 22.8173C44.546 12.7325 35.1292 6.46931 24.8056 5.97007V3.3125C24.8056 2.58759 24.2211 2 23.5 2C22.779 2 22.1945 2.58759 22.1945 3.3125V5.96998C11.916 6.46488 2.52203 12.6594 0.065054 22.808C-0.421347 24.7651 1.92294 26.4246 3.66186 24.8645C7.70059 21.0841 10.9938 22.5958 13.891 27.1328C14.8188 28.5935 16.7303 28.516 17.6093 27.134C18.8513 25.2048 20.1515 23.4421 22.1944 22.9118V37.4375C22.1944 39.6086 20.4373 41.375 18.2777 41.375C16.1181 41.375 14.361 39.6086 14.361 37.4375C14.361 36.7126 13.7765 36.125 13.0555 36.125C12.3345 36.125 11.7499 36.7126 11.7499 37.4375C11.7499 41.0561 14.6783 44 18.2777 44C21.8771 44 24.8055 41.0561 24.8055 37.4375V22.9306C27.2609 23.6091 28.4473 25.6592 29.3899 27.133C30.2736 28.5239 32.1846 28.5864 33.1081 27.1342C36.0629 22.5447 39.3607 21.1422 43.3377 24.8646C45.0657 26.4152 47.4161 24.7834 46.9368 22.8173V22.8173ZM31.2724 25.1715C29.2916 21.9112 26.5485 20.1242 23.5 20.1242C19.8726 20.1242 17.6536 22.3403 15.7701 25.1683C12.3764 19.6086 6.99527 18.8108 3.02899 21.9441C5.88334 13.3782 14.5859 8.5625 23.5 8.5625C32.421 8.5625 41.2039 13.429 43.9943 21.9928C39.2412 18.3883 34.6871 20.1908 31.2724 25.1715Z" fill="black"/>
</svg>
