<svg width="47" height="47" viewBox="0 0 47 47" fill="none" xmlns="http://www.w3.org/2000/svg">
<path d="M33.5425 43.1721L34.8442 28.0439C30.985 25.0055 28.3908 20.9756 28.3908 16.1562C28.4 7.4998 36.4758 0 42.3333 0C44.3592 0 46 1.58809 46 3.53418V43.4658C46 45.4119 44.3592 47 42.3333 47H37.2C35.11 47 33.3683 45.2834 33.5425 43.1721ZM31.3333 16.1562C31.3333 20.8379 34.285 24.0049 37.915 26.667L36.4667 43.4291C36.4392 43.7688 36.7783 44.0625 37.2 44.0625H42.3333C42.7275 44.0625 43.0667 43.7871 43.0667 43.4658V3.53418C43.0667 3.21289 42.7275 2.9375 42.3333 2.9375C38.245 2.9375 31.3333 8.97773 31.3333 16.1562ZM24.0642 3.10273C23.7617 1.3127 22.1208 0 19.8383 0C18.7475 0 17.6292 0.312109 16.7858 1.02812C16.0158 0.376367 14.9525 0 13.7333 0C12.5142 0 11.4508 0.376367 10.6808 1.02812C9.8375 0.312109 8.71917 0 7.62833 0C5.31833 0 3.705 1.33105 3.4025 3.10273C3.2375 3.96562 2 10.8687 2 13.7604C2 18.4328 4.4475 22.1689 8.50833 23.9223L7.46333 43.273C7.35333 45.2926 8.9575 47 10.9833 47H16.4833C18.5 47 20.1133 45.3018 20.0033 43.273L18.9583 23.9223C23.01 22.1689 25.4667 18.4328 25.4667 13.7604C25.4667 10.8687 24.2292 3.96562 24.0642 3.10273V3.10273ZM15.9608 22.0312L17.0792 43.4291C17.0975 43.7688 16.8317 44.0625 16.4833 44.0625H10.9833C10.6442 44.0625 10.3692 43.7779 10.3875 43.4291L11.5058 22.0312C7.61917 21.2234 4.93333 18.084 4.93333 13.7604C4.93333 11.034 6.29 3.60762 6.29 3.60762C6.43667 2.69883 8.88417 2.71719 8.99417 3.62598V14.8711C9.07667 15.9268 11.5792 15.9451 11.6983 14.8895L12.3767 3.60762C12.5233 2.71719 14.9342 2.71719 15.0808 3.60762L15.7592 14.8895C15.8783 15.9359 18.3808 15.9176 18.4633 14.8711V3.63516C18.5733 2.72637 21.0208 2.70801 21.1675 3.6168C21.1675 3.6168 22.5242 11.0432 22.5242 13.7695C22.5333 18.0656 19.8658 21.2234 15.9608 22.0312Z" fill="black"/>
</svg>
