<svg width="49" height="49" viewBox="0 0 49 49" fill="none" xmlns="http://www.w3.org/2000/svg">
<path d="M47.8646 21.4L38.2192 9.77154C37.7593 9.21707 37.1837 8.77097 36.5332 8.46483C35.8826 8.1587 35.173 8.00001 34.4547 8H3.675C1.64533 8 0 9.65308 0 11.6923V32.6154C0 33.9746 1.09714 35.0769 2.45 35.0769H5.02403C5.59289 37.8823 8.06739 40 11.025 40C13.9826 40 16.4571 37.8823 17.026 35.0769H31.974C32.5429 37.8823 35.0174 40 37.975 40C40.9326 40 43.4071 37.8823 43.976 35.0769H46.55C47.9029 35.0769 49 33.9746 49 32.6154V24.5515C49 23.4 48.598 22.2846 47.8646 21.4V21.4ZM26.95 10.4615H34.4547C35.1843 10.4615 35.8695 10.7846 36.3366 11.3469L43.7693 20.3077H26.95V10.4615ZM14.7 10.4615H24.5V20.3077H14.7V10.4615ZM2.45 11.6923C2.45 11.0138 2.99972 10.4615 3.675 10.4615H12.25V20.3077H2.45V11.6923ZM11.025 37.5385C8.99533 37.5385 7.35 35.8854 7.35 33.8462C7.35 31.8069 8.99533 30.1538 11.025 30.1538C13.0547 30.1538 14.7 31.8069 14.7 33.8462C14.7 35.8854 13.0547 37.5385 11.025 37.5385ZM37.975 37.5385C35.9453 37.5385 34.3 35.8854 34.3 33.8462C34.3 31.8069 35.9453 30.1538 37.975 30.1538C40.0047 30.1538 41.65 31.8069 41.65 33.8462C41.65 35.8854 40.0047 37.5385 37.975 37.5385ZM46.55 32.6154H43.976C43.4071 29.81 40.9326 27.6923 37.975 27.6923C35.0174 27.6923 32.5429 29.81 31.974 32.6154H17.026C16.4571 29.81 13.9826 27.6923 11.025 27.6923C8.06739 27.6923 5.59289 29.81 5.02403 32.6154H2.45V22.7692H45.8112L45.9819 22.9754C46.3485 23.4181 46.5494 23.9757 46.55 24.5515V32.6154Z" fill="black"/>
</svg>
